{
.appVersion = "1179";
DisplayStrings = (
"ff fb bf fh hf fi if fj jf fk kf fl lf ft tb hi ij jk kl lt\012\012fffbbffhhffiiffjjffkkffllffttbhiijjkkllt\012\012nnftnnooftoo\012\012lofty goalsftnn\012\012kakbkckdkekfkgkhkikjkkklkmknkokpkqkrksktkukvkwkxkykz\012nnknnookoo\012\012\012nnkannkbnnkcnnkdnnkennkfnnkgnnkhnnkinnkjnnkknnklnnkmnnknnnkonnkpnnkqnnkrnnksnnktnnkunnkvnnkwnnkxnnkynnkz\012\012nnffnnfbnnbfnnfhnnhfnnfinnifnnfjnnjfnnfknnkfnnflnnlfnnftnntbnnhinnijnnjknnklnnlt\012\012ooffoofboobfoofhoohfoofiooifoofjoojfoofkookfoktofloolfooftootboohiooijoojkooklooltf'f*\012\012|ff|fb|bf|fh|hf|fi|if|fj|jf|fk|kf|fl|lf|ft|tb|hi|ij|jk|kl|lt\012techy nology\012aynnynnooyooybynnynnooyooycynnynnooyooydynnynnooyooyeynnynnooyooyfynnynnooyooygynnynnooyooyhynnynnooyooyiynnynnooyooyjynnynnooyooykynnynnooyooylynnynnooyooymynnynnooyooynynnynnooyooyoynnynnooyooypynnynnooyooyqynnynnooyooyrynnynnooyooysynnynnooyooytynnynnooyooyuynnynnooyooyvynnynnooyooywynnynnooyooyxynnynnooyooyyynnynnooyooyz\012\012nnynnooyoo\012nnvnnoovoo\012avnnvnnoovoovbvnnvnnoovoovcvnnvnnoovoovdvnnvnnoovoovevnnvnnoovoovfvnnvnnoovoovgvnnvnnoovoovhvnnvnnoovoovivnnvnnoovoovjvnnvnnoovoovkvnnvnnoovoovlvnnvnnoovoovmvnnvnnoovoovnvnnvnnoovoovovnnvnnoovoovpvnnvnnoovoovqvnnvnnoovoovrvnnvnnoovoovsvnnvnnoovoovtvnnvnnoovoovuvnnvnnoovoovvvnnvnnoovoovwvnnvnnoovoovxvnnvnnoovoovyvnnvnnoovoovz\012\012nnynnooyoo\012nnvnnoovoo\012nnwnnoowoo\012awnnwnnoowoowbwnnwnnoowoowcwnnwnnoowoowdwnnwnnoowoowewnnwnnoowoowfwnnwnnoowoowgwnnwnnoowoowhwnnwnnoowoowiwnnwnnoowoowjwnnwnnoowoowkwnnwnnoowoowlwnnwnnoowoowmwnnwnnoowoownwnnwnnoowoowownnwnnoowoowpwnnwnnoowoowqwnnwnnoowoowrwnnwnnoowoowswnnwnnoowoowtwnnwnnoowoowuwnnwnnoowoowvwnnwnnoowoowwwnnwnnoowoowxwnnwnnoowoowywnnwnnoowoowz",

glyphs = (
{
glyphname = A;
layers = (
{
anchors = (
{
name = bottom;
position = "{1078, 0}";
},
{
name = topcap;
position = "{642, 1461}";
}
);
layerId = "FA6D65B5-4623-4FAC-A199-3F662257AC29";
paths = (
{
closed = 1;
nodes = (
"510 0 LINE",
"510 65 LINE",
"364 86 OFFCURVE",
"312 114 OFFCURVE",
"312 174 CURVE SMOOTH",
"312 197 OFFCURVE",
"319 224 OFFCURVE",
"331 257 CURVE SMOOTH",
"581 908 LINE",
"588 908 LINE",
"848 201 LINE SMOOTH",
"859 172 OFFCURVE",
"864 148 OFFCURVE",
"864 130 CURVE SMOOTH",
"864 83 OFFCURVE",
"820 69 OFFCURVE",
"692 65 CURVE",
"692 0 LINE",
"1417 0 LINE",
"1417 65 LINE",
"1288 74 OFFCURVE",
"1260 92 OFFCURVE",
"1227 172 CURVE SMOOTH",
"723 1390 LINE",
"461 1290 LINE",
"542 1109 LINE",
"209 260 LINE SMOOTH",
"153 118 OFFCURVE",
"130 93 OFFCURVE",
"-35 65 CURVE",
"-35 0 LINE"
);
},
{
closed = 1;
nodes = (
"891 391 LINE",
"891 491 LINE",
"324 491 LINE",
"324 391 LINE"
);
}
);
width = 1375;
},
{
anchors = (
{
name = bottom;
position = "{1055.457, 0}";
},
{
name = topcap;
position = "{642, 1461}";
}
);
layerId = "E9E5A43B-81E4-4E67-9C96-907763DB0C14";
paths = (
{
closed = 1;
nodes = (
"459.711 0 LINE",
"459.711 43.324 LINE",
"337.988 61.723 OFFCURVE",
"276.451 89.723 OFFCURVE",
"276.451 153.191 CURVE SMOOTH",
"276.451 174.457 OFFCURVE",
"283.451 200.59 OFFCURVE",
"295.451 235.324 CURVE SMOOTH",
"591.405 1058 LINE",
"598.405 1058 LINE",
"917.364 179.324 LINE SMOOTH",
"931.832 139.052 OFFCURVE",
"935.965 118.52 OFFCURVE",
"935.965 103.121 CURVE SMOOTH",
"935.965 64.792 OFFCURVE",
"913.642 50.792 OFFCURVE",
"756.162 43.324 CURVE",
"756.162 0 LINE",
"1337.231 0 LINE",
"1337.231 43.324 LINE",
"1213.434 52.324 OFFCURVE",
"1187.168 70.324 OFFCURVE",
"1156.769 151.191 CURVE SMOOTH",
"686.584 1390 LINE",
"502.618 1294.335 LINE",
"552.405 1180.965 LINE",
"212.468 239.191 LINE SMOOTH",
"166.873 113.665 OFFCURVE",
"142.139 72.191 OFFCURVE",
"-41.069 43.324 CURVE",
"-41.069 0 LINE"
);
},
{
closed = 1;
nodes = (
"845.046 483.775 LINE",
"845.046 557.763 LINE",
"357.815 557.763 LINE",
"357.815 483.775 LINE"
);
}
);
width = 1317.77457;
}
);
leftKerningGroup = A;
rightKerningGroup = A;
unicode = 0041;
},
{
glyphname = Aringacute;
layers = (
{
components = (
{
name = A;
}
);
layerId = "FA6D65B5-4623-4FAC-A199-3F662257AC29";
paths = (
{
closed = 1;
nodes = (
"521 1482 LINE",
"540 1468 OFFCURVE",
"567 1461 OFFCURVE",
"595 1461 CURVE SMOOTH",
"655 1461 OFFCURVE",
"700 1498 OFFCURVE",
"715 1552 CURVE",
"794 1575 OFFCURVE",
"810 1609 OFFCURVE",
"810 1644 CURVE SMOOTH",
"810 1686 OFFCURVE",
"767 1705 OFFCURVE",
"732 1705 CURVE SMOOTH",
"708 1705 OFFCURVE",
"688 1698 OFFCURVE",
"667 1686 CURVE",
"646 1700 OFFCURVE",
"621 1707 OFFCURVE",
"595 1707 CURVE SMOOTH",
"524 1707 OFFCURVE",
"472 1654 OFFCURVE",
"472 1584 CURVE SMOOTH",
"472 1570 OFFCURVE",
"473 1558 OFFCURVE",
"477 1545 CURVE",
"401 1489 LINE",
"421 1452 LINE"
);
},
{
closed = 1;
nodes = (
"574 1549 OFFCURVE",
"560 1563 OFFCURVE",
"560 1584 CURVE SMOOTH",
"560 1605 OFFCURVE",
"574 1619 OFFCURVE",
"595 1619 CURVE SMOOTH",
"616 1619 OFFCURVE",
"630 1605 OFFCURVE",
"630 1584 CURVE SMOOTH",
"630 1563 OFFCURVE",
"616 1549 OFFCURVE",
"595 1549 CURVE SMOOTH"
);
}
);
width = 1375;
},
{
components = (
{
alignment = -1;
name = A;
}
);
layerId = "E9E5A43B-81E4-4E67-9C96-907763DB0C14";
paths = (
{
closed = 1;
nodes = (
"530.538 1482 LINE",
"549.538 1468 OFFCURVE",
"575.671 1461 OFFCURVE",
"603.671 1461 CURVE SMOOTH",
"663.671 1461 OFFCURVE",
"709.538 1498 OFFCURVE",
"723.671 1552 CURVE",
"802.671 1575 OFFCURVE",
"818.671 1609 OFFCURVE",
"818.671 1644 CURVE SMOOTH",
"818.671 1686 OFFCURVE",
"776.538 1705 OFFCURVE",
"741.538 1705 CURVE SMOOTH",
"716.671 1705 OFFCURVE",
"697.538 1698 OFFCURVE",
"676.538 1686 CURVE",
"654.671 1700 OFFCURVE",
"630.538 1707 OFFCURVE",
"603.671 1707 CURVE SMOOTH",
"533.538 1707 OFFCURVE",
"480.671 1654 OFFCURVE",
"480.671 1584 CURVE SMOOTH",
"480.671 1570 OFFCURVE",
"482.538 1558 OFFCURVE",
"486.538 1545 CURVE",
"410.538 1489 LINE",
"429.671 1452 LINE"
);
},
{
closed = 1;
nodes = (
"568.798 1525.59 OFFCURVE",
"546.127 1549.127 OFFCURVE",
"546.127 1584 CURVE SMOOTH",
"546.127 1618.873 OFFCURVE",
"568.798 1642.41 OFFCURVE",
"603.671 1642.41 CURVE SMOOTH",
"638.543 1642.41 OFFCURVE",
"662.081 1618.873 OFFCURVE",
"662.081 1584 CURVE SMOOTH",
"662.081 1549.127 OFFCURVE",
"638.543 1525.59 OFFCURVE",
"603.671 1525.59 CURVE SMOOTH"
);
}
);
width = 1317.77457;
}
);
leftKerningGroup = A;
rightKerningGroup = A;
unicode = 01FA;
},
{
glyphname = AE;
layers = (
{
layerId = "FA6D65B5-4623-4FAC-A199-3F662257AC29";
paths = (
{
closed = 1;
nodes = (
"479 0 LINE",
"479 65 LINE",
"384 79 OFFCURVE",
"343 106 OFFCURVE",
"343 155 CURVE SMOOTH",
"343 181 OFFCURVE",
"357 215 OFFCURVE",
"378 257 CURVE SMOOTH",
"507 507 LINE",
"861 507 LINE",
"861 99 LINE",
"711 65 LINE",
"711 0 LINE",
"1779 0 LINE",
"1853 412 LINE",
"1762 412 LINE",
"1721 297 OFFCURVE",
"1677 204 OFFCURVE",
"1602 100 CURVE",
"1163 100 LINE",
"1163 669 LINE",
"1385 669 LINE",
"1424 604 OFFCURVE",
"1448 540 OFFCURVE",
"1461 470 CURVE",
"1535 470 LINE",
"1535 963 LINE",
"1461 963 LINE",
"1448 892 OFFCURVE",
"1424 829 OFFCURVE",
"1385 764 CURVE",
"1163 764 LINE",
"1163 1255 LINE",
"1612 1255 LINE",
"1672 1163 OFFCURVE",
"1720 1061 OFFCURVE",
"1748 968 CURVE",
"1822 968 LINE",
"1788 1355 LINE",
"676 1355 LINE",
"676 1308 LINE",
"785 1276 LINE",
"250 260 LINE SMOOTH",
"180 127 OFFCURVE",
"132 92 OFFCURVE",
"-48 65 CURVE",
"-48 0 LINE"
);
},
{
closed = 1;
nodes = (
"854 1174 LINE",
"861 1174 LINE",
"861 602 LINE",
"556 602 LINE"
);
}
);
width = 1924;
},
{
layerId = "E9E5A43B-81E4-4E67-9C96-907763DB0C14";
paths = (
{
closed = 1;
nodes = (
"457.324 0 LINE",
"457.324 43.324 LINE",
"350.185 60.792 OFFCURVE",
"303.116 80.855 OFFCURVE",
"303.116 130.723 CURVE SMOOTH",
"303.116 156.723 OFFCURVE",
"316.249 190.723 OFFCURVE",
"339.85 235.324 CURVE SMOOTH",
"483.59 513.069 LINE",
"833.254 513.069 LINE",
"833.254 77.324 LINE",
"683.254 43.324 LINE",
"683.254 0 LINE",
"1668.017 0 LINE",
"1734.214 412 LINE",
"1671.827 412 LINE",
"1632.561 297 OFFCURVE",
"1592.896 187.526 OFFCURVE",
"1522.231 73.988 CURVE",
"1033.809 73.988 LINE",
"1033.809 649.058 LINE",
"1336.445 649.058 LINE",
"1370.243 579.723 OFFCURVE",
"1391.642 509.653 OFFCURVE",
"1402.908 439.653 CURVE",
"1449.162 439.653 LINE",
"1449.162 932.653 LINE",
"1402.908 932.653 LINE",
"1390.775 861.653 OFFCURVE",
"1370.243 792.584 OFFCURVE",
"1336.445 722.382 CURVE",
"1033.809 722.382 LINE",
"1033.809 1281.012 LINE",
"1531.364 1281.012 LINE",
"1589.63 1181.208 OFFCURVE",
"1630.694 1067.069 OFFCURVE",
"1659.561 968 CURVE",
"1705.815 968 LINE",
"1675.283 1355 LINE",
"663.861 1355 LINE",
"663.861 1314.069 LINE",
"807.543 1283.803 LINE",
"257.803 239.191 LINE SMOOTH",
"190.405 111.393 OFFCURVE",
"148.474 72.058 OFFCURVE",
"-40.197 43.324 CURVE",
"-40.197 0 LINE"
);
},
{
closed = 1;
nodes = (
"824.52 1174 LINE",
"831.52 1174 LINE",
"831.52 586.393 LINE",
"522.185 586.393 LINE"
);
}
);
width = 1826.02312;
}
);
leftKerningGroup = AE;
rightKerningGroup = E;
unicode = 00C6;
},
{
glyphname = B;
layers = (
{
layerId = "FA6D65B5-4623-4FAC-A199-3F662257AC29";
paths = (
{
closed = 1;
nodes = (
"699 0 LINE SMOOTH",
"910 0 OFFCURVE",
"1028 26 OFFCURVE",
"1118 92 CURVE SMOOTH",
"1199 153 OFFCURVE",
"1248 252 OFFCURVE",
"1248 359 CURVE SMOOTH",
"1248 565 OFFCURVE",
"1091 713 OFFCURVE",
"854 736 CURVE",
"854 743 LINE",
"1063 780 OFFCURVE",
"1181 884 OFFCURVE",
"1181 1026 CURVE SMOOTH",
"1181 1130 OFFCURVE",
"1128 1225 OFFCURVE",
"1037 1283 CURVE SMOOTH",
"957 1332 OFFCURVE",
"845 1355 OFFCURVE",
"667 1355 CURVE SMOOTH",
"74 1355 LINE",
"74 1290 LINE",
"224 1253 LINE",
"224 104 LINE",
"74 65 LINE",
"74 0 LINE"
);
},
{
closed = 1;
nodes = (
"558 93 OFFCURVE",
"526 116 OFFCURVE",
"526 199 CURVE SMOOTH",
"526 674 LINE",
"591 674 LINE",
"813 674 OFFCURVE",
"917 581 OFFCURVE",
"917 375 CURVE SMOOTH",
"917 181 OFFCURVE",
"836 93 OFFCURVE",
"662 93 CURVE SMOOTH"
);
},
{
closed = 1;
nodes = (
"526 1260 LINE",
"558 1260 LINE SMOOTH",
"658 1260 OFFCURVE",
"734 1241 OFFCURVE",
"785 1200 CURVE SMOOTH",
"832 1162 OFFCURVE",
"859 1102 OFFCURVE",
"859 1019 CURVE SMOOTH",
"859 875 OFFCURVE",
"780 788 OFFCURVE",
"639 774 CURVE SMOOTH",
"616 771 OFFCURVE",
"588 769 OFFCURVE",
"546 769 CURVE SMOOTH",
"526 769 LINE"
);
}
);
width = 1322;
},
{
layerId = "E9E5A43B-81E4-4E67-9C96-907763DB0C14";
paths = (
{
closed = 1;
nodes = (
"645.243 0 LINE SMOOTH",
"839.769 0 OFFCURVE",
"948.231 26 OFFCURVE",
"1030.428 92 CURVE SMOOTH",
"1105.358 153 OFFCURVE",
"1150.023 252 OFFCURVE",
"1150.023 359 CURVE SMOOTH",
"1150.023 552.861 OFFCURVE",
"1008.63 697.393 OFFCURVE",
"794.173 720.393 CURVE",
"794.173 727.393 LINE",
"984.098 766.127 OFFCURVE",
"1089.092 874.462 OFFCURVE",
"1089.092 1026 CURVE SMOOTH",
"1089.092 1130 OFFCURVE",
"1039.561 1225 OFFCURVE",
"955.497 1283 CURVE SMOOTH",
"882.434 1332 OFFCURVE",
"779.104 1355 OFFCURVE",
"614.977 1355 CURVE SMOOTH",
"84.405 1355 LINE",
"84.405 1311.676 LINE",
"234.405 1277.277 LINE",
"234.405 77.988 LINE",
"84.405 43.324 LINE",
"84.405 0 LINE"
);
},
{
closed = 1;
nodes = (
"469.561 70.457 OFFCURVE",
"434.96 93.457 OFFCURVE",
"434.96 175.59 CURVE SMOOTH",
"434.96 683.538 LINE",
"572.792 683.538 LINE",
"816.468 683.538 OFFCURVE",
"929.139 585.335 OFFCURVE",
"929.139 375 CURVE SMOOTH",
"929.139 166.26 OFFCURVE",
"820.393 70.457 OFFCURVE",
"587.434 70.457 CURVE SMOOTH"
);
},
{
closed = 1;
nodes = (
"434.96 1281.676 LINE",
"570.139 1281.676 LINE SMOOTH",
"694.416 1281.676 OFFCURVE",
"758.277 1263.543 OFFCURVE",
"809.277 1212.139 CURVE SMOOTH",
"855.41 1166.335 OFFCURVE",
"875.474 1112.405 OFFCURVE",
"875.474 1029.405 CURVE SMOOTH",
"875.474 871.532 OFFCURVE",
"802.543 775.861 OFFCURVE",
"672.815 761.861 CURVE SMOOTH",
"635.942 758.861 OFFCURVE",
"596.671 756.861 OFFCURVE",
"532.127 756.861 CURVE SMOOTH",
"434.96 756.861 LINE"
);
}
);
width = 1242.23121;
}
);
leftKerningGroup = I;
unicode = 0042;
},
{
glyphname = C;
layers = (
{
anchors = (
{
name = bottom;
position = "{777, 0}";
},
{
name = topcap;
position = "{775, 1461}";
}
);
layerId = "FA6D65B5-4623-4FAC-A199-3F662257AC29";
paths = (
{
closed = 1;
nodes = (
"922 -18 OFFCURVE",
"1051 23 OFFCURVE",
"1188 116 CURVE",
"1260 0 LINE",
"1325 0 LINE",
"1325 488 LINE",
"1246 488 LINE",
"1230 401 OFFCURVE",
"1199 327 OFFCURVE",
"1158 268 CURVE SMOOTH",
"1079 153 OFFCURVE",
"959 88 OFFCURVE",
"815 88 CURVE SMOOTH",
"553 88 OFFCURVE",
"412 297 OFFCURVE",
"412 686 CURVE SMOOTH",
"412 1072 OFFCURVE",
"551 1269 OFFCURVE",
"822 1269 CURVE SMOOTH",
"970 1269 OFFCURVE",
"1081 1211 OFFCURVE",
"1163 1084 CURVE SMOOTH",
"1193 1040 OFFCURVE",
"1218 986 OFFCURVE",
"1241 924 CURVE",
"1325 924 LINE",
"1325 1355 LINE",
"1272 1355 LINE",
"1195 1265 LINE",
"1188 1265 LINE",
"1072 1334 OFFCURVE",
"920 1373 OFFCURVE",
"773 1373 CURVE SMOOTH",
"366 1373 OFFCURVE",
"79 1081 OFFCURVE",
"79 669 CURVE SMOOTH",
"79 260 OFFCURVE",
"359 -18 OFFCURVE",
"767 -18 CURVE SMOOTH"
);
}
);
width = 1431;
},
{
anchors = (
{
name = bottom;
position = "{763.994, 0}";
},
{
name = topcap;
position = "{763.728, 1461}";
}
);
layerId = "E9E5A43B-81E4-4E67-9C96-907763DB0C14";
paths = (
{
closed = 1;
nodes = (
"885.584 -18 OFFCURVE",
"1005.046 23 OFFCURVE",
"1131.642 116 CURVE",
"1211.445 0 LINE",
"1256.503 0 LINE",
"1256.503 464.59 LINE",
"1205.249 464.59 LINE",
"1187.514 372.387 OFFCURVE",
"1155.647 294.052 OFFCURVE",
"1112.046 232.451 CURVE SMOOTH",
"1036.514 122.653 OFFCURVE",
"920.85 65.457 OFFCURVE",
"779.451 65.457 CURVE SMOOTH",
"494.908 65.457 OFFCURVE",
"332.231 290.064 OFFCURVE",
"332.231 681.665 CURVE SMOOTH",
"332.231 1073.734 OFFCURVE",
"491.173 1291.543 OFFCURVE",
"779.514 1291.543 CURVE SMOOTH",
"934.451 1291.543 OFFCURVE",
"1043.717 1238.746 OFFCURVE",
"1126.584 1105.676 CURVE SMOOTH",
"1153.983 1061.676 OFFCURVE",
"1178.116 1010.277 OFFCURVE",
"1199.382 946.543 CURVE",
"1256.503 946.543 LINE",
"1256.503 1355 LINE",
"1221.711 1355 LINE",
"1136.908 1265 LINE",
"1129.908 1265 LINE",
"1023.445 1334 OFFCURVE",
"885.318 1373 OFFCURVE",
"746.988 1373 CURVE SMOOTH",
"366 1373 OFFCURVE",
"96.341 1081 OFFCURVE",
"96.341 669 CURVE SMOOTH",
"96.341 261.734 OFFCURVE",
"357.266 -18 OFFCURVE",
"740.121 -18 CURVE SMOOTH"
);
}
);
width = 1371.17341;
}
);
leftKerningGroup = C;
rightKerningGroup = C;
unicode = 0043;
},
{
glyphname = D;
layers = (
{
anchors = (
{
name = bottom;
position = "{725, 0}";
},
{
name = topcap;
position = "{722, 1461}";
}
);
layerId = "FA6D65B5-4623-4FAC-A199-3F662257AC29";
paths = (
{
closed = 1;
nodes = (
"725 0 LINE",
"924 0 OFFCURVE",
"1052 30 OFFCURVE",
"1169 104 CURVE SMOOTH",
"1348 217 OFFCURVE",
"1464 433 OFFCURVE",
"1464 679 CURVE SMOOTH",
"1464 919 OFFCURVE",
"1355 1113 OFFCURVE",
"1183 1227 CURVE SMOOTH",
"1040 1322 OFFCURVE",
"859 1355 OFFCURVE",
"553 1355 CURVE SMOOTH",
"72 1355 LINE",
"72 1290 LINE",
"224 1257 LINE",
"224 100 LINE",
"72 67 LINE",
"72 0 LINE"
);
},
{
closed = 1;
nodes = (
"577 95 OFFCURVE",
"526 127 OFFCURVE",
"526 201 CURVE SMOOTH",
"526 1257 LINE",
"685 1257 LINE SMOOTH",
"834 1257 OFFCURVE",
"942 1216 OFFCURVE",
"1012 1130 CURVE SMOOTH",
"1091 1035 OFFCURVE",
"1126 894 OFFCURVE",
"1126 679 CURVE SMOOTH",
"1126 461 OFFCURVE",
"1091 306 OFFCURVE",
"1012 213 CURVE SMOOTH",
"943 132 OFFCURVE",
"843 95 OFFCURVE",
"706 95 CURVE SMOOTH"
);
}
);
width = 1545;
},
{
anchors = (
{
name = bottom;
position = "{722.399, 0}";
},
{
name = topcap;
position = "{722, 1461}";
}
);
layerId = "E9E5A43B-81E4-4E67-9C96-907763DB0C14";
paths = (
{
closed = 1;
nodes = (
"682.514 0 LINE",
"861.572 0 OFFCURVE",
"974.832 30 OFFCURVE",
"1078.827 104 CURVE SMOOTH",
"1243.954 223.069 OFFCURVE",
"1343.48 434.734 OFFCURVE",
"1343.48 674.665 CURVE SMOOTH",
"1343.48 906.861 OFFCURVE",
"1251.821 1106.064 OFFCURVE",
"1091.092 1227 CURVE SMOOTH",
"965.434 1320.266 OFFCURVE",
"811.312 1355 OFFCURVE",
"527.855 1355 CURVE SMOOTH",
"84.139 1355 LINE",
"84.139 1311.676 LINE",
"234.405 1277.809 LINE",
"234.405 77.457 LINE",
"84.139 43.59 LINE",
"84.139 0 LINE"
);
},
{
closed = 1;
nodes = (
"479.89 70.723 OFFCURVE",
"434.96 96.653 OFFCURVE",
"434.96 175.855 CURVE SMOOTH",
"434.96 1281.277 LINE",
"576.618 1281.277 LINE SMOOTH",
"767.237 1281.277 OFFCURVE",
"876.104 1245.48 OFFCURVE",
"963.445 1152.543 CURVE SMOOTH",
"1058.919 1049.74 OFFCURVE",
"1107.792 894 OFFCURVE",
"1107.792 692.873 CURVE SMOOTH",
"1107.792 493.081 OFFCURVE",
"1058.919 323.341 OFFCURVE",
"967.78 209.532 CURVE SMOOTH",
"884.908 110.324 OFFCURVE",
"784.908 70.723 OFFCURVE",
"617.561 70.723 CURVE SMOOTH"
);
}
);
width = 1441.82081;
}
);
leftKerningGroup = I;
rightKerningGroup = D;
unicode = 0044;
},
{
glyphname = Eth;
layers = (
{
layerId = "FA6D65B5-4623-4FAC-A199-3F662257AC29";
paths = (
{
closed = 1;
nodes = (
"725 0 LINE SMOOTH",
"924 0 OFFCURVE",
"1052 30 OFFCURVE",
"1169 104 CURVE SMOOTH",
"1348 218 OFFCURVE",
"1464 433 OFFCURVE",
"1464 679 CURVE SMOOTH",
"1464 919 OFFCURVE",
"1355 1112 OFFCURVE",
"1183 1227 CURVE SMOOTH",
"1040 1322 OFFCURVE",
"859 1355 OFFCURVE",
"553 1355 CURVE SMOOTH",
"72 1355 LINE",
"72 1290 LINE",
"224 1257 LINE",
"224 773 LINE",
"92 773 LINE",
"92 623 LINE",
"224 623 LINE",
"224 100 LINE",
"72 67 LINE",
"72 0 LINE"
);
},
{
closed = 1;
nodes = (
"577 95 OFFCURVE",
"526 127 OFFCURVE",
"526 201 CURVE SMOOTH",
"526 623 LINE",
"773 623 LINE",
"773 773 LINE",
"526 773 LINE",
"526 1257 LINE",
"685 1257 LINE SMOOTH",
"834 1257 OFFCURVE",
"942 1216 OFFCURVE",
"1012 1130 CURVE SMOOTH",
"1091 1035 OFFCURVE",
"1126 894 OFFCURVE",
"1126 679 CURVE SMOOTH",
"1126 461 OFFCURVE",
"1091 306 OFFCURVE",
"1012 213 CURVE SMOOTH",
"943 132 OFFCURVE",
"843 95 OFFCURVE",
"706 95 CURVE SMOOTH"
);
}
);
width = 1545;
},
{
layerId = "E9E5A43B-81E4-4E67-9C96-907763DB0C14";
paths = (
{
closed = 1;
nodes = (
"684.249 0 LINE SMOOTH",
"863.306 0 OFFCURVE",
"975.699 30 OFFCURVE",
"1080.561 104 CURVE SMOOTH",
"1245.688 223.202 OFFCURVE",
"1345.214 434.734 OFFCURVE",
"1345.214 674.665 CURVE SMOOTH",
"1345.214 906.861 OFFCURVE",
"1252.688 1105.931 OFFCURVE",
"1092.827 1227 CURVE SMOOTH",
"967.168 1320.266 OFFCURVE",
"813.046 1355 OFFCURVE",
"529.59 1355 CURVE SMOOTH",
"85.873 1355 LINE",
"85.873 1311.676 LINE",
"236.139 1277.809 LINE",
"236.139 757.393 LINE",
"98.069 757.393 LINE",
"98.069 638.607 LINE",
"236.139 638.607 LINE",
"236.139 77.457 LINE",
"85.873 43.59 LINE",
"85.873 0 LINE"
);
},
{
closed = 1;
nodes = (
"480.757 70.723 OFFCURVE",
"435.827 96.653 OFFCURVE",
"435.827 175.855 CURVE SMOOTH",
"435.827 638.607 LINE",
"656.815 638.607 LINE",
"656.815 757.393 LINE",
"435.827 757.393 LINE",
"435.827 1281.277 LINE",
"577.486 1281.277 LINE SMOOTH",
"768.971 1281.277 OFFCURVE",
"877.838 1245.48 OFFCURVE",
"964.312 1152.543 CURVE SMOOTH",
"1060.653 1049.74 OFFCURVE",
"1109.526 894 OFFCURVE",
"1109.526 692.873 CURVE SMOOTH",
"1109.526 493.081 OFFCURVE",
"1060.653 323.341 OFFCURVE",
"969.514 209.532 CURVE SMOOTH",
"886.642 110.324 OFFCURVE",
"786.642 70.723 OFFCURVE",
"618.428 70.723 CURVE SMOOTH"
);
}
);
width = 1442.68786;
}
);
leftKerningGroup = I;
rightKerningGroup = D;
unicode = 00D0;
},
{
glyphname = Dcroat;
layers = (
{
layerId = "FA6D65B5-4623-4FAC-A199-3F662257AC29";
paths = (
{
closed = 1;
nodes = (
"725 0 LINE SMOOTH",
"924 0 OFFCURVE",
"1052 30 OFFCURVE",
"1169 104 CURVE SMOOTH",
"1348 218 OFFCURVE",
"1464 433 OFFCURVE",
"1464 679 CURVE SMOOTH",
"1464 919 OFFCURVE",
"1355 1112 OFFCURVE",
"1183 1227 CURVE SMOOTH",
"1040 1322 OFFCURVE",
"859 1355 OFFCURVE",
"553 1355 CURVE SMOOTH",
"72 1355 LINE",
"72 1290 LINE",
"224 1257 LINE",
"224 773 LINE",
"92 773 LINE",
"92 623 LINE",
"224 623 LINE",
"224 100 LINE",
"72 67 LINE",
"72 0 LINE"
);
},
{
closed = 1;
nodes = (
"577 95 OFFCURVE",
"526 127 OFFCURVE",
"526 201 CURVE SMOOTH",
"526 623 LINE",
"773 623 LINE",
"773 773 LINE",
"526 773 LINE",
"526 1257 LINE",
"685 1257 LINE SMOOTH",
"834 1257 OFFCURVE",
"942 1216 OFFCURVE",
"1012 1130 CURVE SMOOTH",
"1091 1035 OFFCURVE",
"1126 894 OFFCURVE",
"1126 679 CURVE SMOOTH",
"1126 461 OFFCURVE",
"1091 306 OFFCURVE",
"1012 213 CURVE SMOOTH",
"943 132 OFFCURVE",
"843 95 OFFCURVE",
"706 95 CURVE SMOOTH"
);
}
);
width = 1545;
},
{
layerId = "E9E5A43B-81E4-4E67-9C96-907763DB0C14";
paths = (
{
closed = 1;
nodes = (
"684.249 0 LINE SMOOTH",
"863.306 0 OFFCURVE",
"975.699 30 OFFCURVE",
"1080.561 104 CURVE SMOOTH",
"1245.688 223.202 OFFCURVE",
"1345.214 434.734 OFFCURVE",
"1345.214 674.665 CURVE SMOOTH",
"1345.214 906.861 OFFCURVE",
"1252.688 1105.931 OFFCURVE",
"1092.827 1227 CURVE SMOOTH",
"967.168 1320.266 OFFCURVE",
"813.046 1355 OFFCURVE",
"529.59 1355 CURVE SMOOTH",
"85.873 1355 LINE",
"85.873 1311.676 LINE",
"236.139 1277.809 LINE",
"236.139 757.393 LINE",
"98.069 757.393 LINE",
"98.069 638.607 LINE",
"236.139 638.607 LINE",
"236.139 77.457 LINE",
"85.873 43.59 LINE",
"85.873 0 LINE"
);
},
{
closed = 1;
nodes = (
"480.757 70.723 OFFCURVE",
"435.827 96.653 OFFCURVE",
"435.827 175.855 CURVE SMOOTH",
"435.827 638.607 LINE",
"656.815 638.607 LINE",
"656.815 757.393 LINE",
"435.827 757.393 LINE",
"435.827 1281.277 LINE",
"577.486 1281.277 LINE SMOOTH",
"768.971 1281.277 OFFCURVE",
"877.838 1245.48 OFFCURVE",
"964.312 1152.543 CURVE SMOOTH",
"1060.653 1049.74 OFFCURVE",
"1109.526 894 OFFCURVE",
"1109.526 692.873 CURVE SMOOTH",
"1109.526 493.081 OFFCURVE",
"1060.653 323.341 OFFCURVE",
"969.514 209.532 CURVE SMOOTH",
"886.642 110.324 OFFCURVE",
"786.642 70.723 OFFCURVE",
"618.428 70.723 CURVE SMOOTH"
);
}
);
width = 1442.68786;
}
);
leftKerningGroup = I;
rightKerningGroup = D;
unicode = 0110;
},
{
glyphname = E;
layers = (
{
anchors = (
{
name = bottom;
position = "{680, 0}";
},
{
name = topcap;
position = "{669, 1461}";
}
);
layerId = "FA6D65B5-4623-4FAC-A199-3F662257AC29";
paths = (
{
closed = 1;
nodes = (
"1142 0 LINE",
"1216 412 LINE",
"1125 412 LINE",
"1082 308 OFFCURVE",
"1040 204 OFFCURVE",
"964 100 CURVE",
"526 100 LINE",
"526 1255 LINE",
"975 1255 LINE",
"1035 1163 OFFCURVE",
"1079 1060 OFFCURVE",
"1111 968 CURVE",
"1184 968 LINE",
"1151 1355 LINE",
"74 1355 LINE",
"74 1290 LINE",
"224 1257 LINE",
"224 99 LINE",
"74 65 LINE",
"74 0 LINE"
);
},
{
closed = 1;
nodes = (
"898 470 LINE",
"898 963 LINE",
"824 963 LINE",
"810 898 OFFCURVE",
"787 829 OFFCURVE",
"748 764 CURVE",
"498 764 LINE",
"498 669 LINE",
"748 669 LINE",
"785 604 OFFCURVE",
"810 535 OFFCURVE",
"824 470 CURVE"
);
}
);
width = 1287;
},
{
anchors = (
{
name = bottom;
position = "{636.647, 0}";
},
{
name = topcap;
position = "{632.584, 1461}";
}
);
layerId = "E9E5A43B-81E4-4E67-9C96-907763DB0C14";
paths = (
{
closed = 1;
nodes = (
"1069.168 0 LINE",
"1135.364 412 LINE",
"1072.977 412 LINE",
"1033.445 298.462 OFFCURVE",
"994.046 187.526 OFFCURVE",
"923.249 73.988 CURVE",
"434.96 73.988 LINE",
"434.96 1281.012 LINE",
"932.514 1281.012 LINE",
"990.78 1181.208 OFFCURVE",
"1031.312 1066.936 OFFCURVE",
"1059.844 968 CURVE",
"1106.832 968 LINE",
"1076.434 1355 LINE",
"84.405 1355 LINE",
"84.405 1311.676 LINE",
"234.405 1277.809 LINE",
"234.405 77.324 LINE",
"84.405 43.324 LINE",
"84.405 0 LINE"
);
},
{
closed = 1;
nodes = (
"850.312 468.266 LINE",
"850.312 961.266 LINE",
"804.058 961.266 LINE",
"790.925 891.931 OFFCURVE",
"771.393 821.197 OFFCURVE",
"737.595 751.861 CURVE",
"409.561 751.861 LINE",
"409.561 677.671 LINE",
"737.595 677.671 LINE",
"771.127 608.335 OFFCURVE",
"792.659 538.468 OFFCURVE",
"804.058 468.266 CURVE"
);
}
);
width = 1227.17341;
}
);
leftKerningGroup = I;
rightKerningGroup = E;
unicode = 0045;
},
{
glyphname = F;
layers = (
{
layerId = "FA6D65B5-4623-4FAC-A199-3F662257AC29";
paths = (
{
closed = 1;
nodes = (
"725 0 LINE",
"725 65 LINE",
"524 99 LINE",
"524 1255 LINE",
"986 1255 LINE",
"1044 1163 OFFCURVE",
"1084 1060 OFFCURVE",
"1112 968 CURVE",
"1181 968 LINE",
"1151 1355 LINE",
"74 1355 LINE",
"74 1290 LINE",
"224 1257 LINE",
"224 99 LINE",
"74 65 LINE",
"74 0 LINE"
);
},
{
closed = 1;
nodes = (
"896 470 LINE",
"896 963 LINE",
"827 963 LINE",
"815 896 OFFCURVE",
"796 831 OFFCURVE",
"762 764 CURVE",
"502 764 LINE",
"502 671 LINE",
"762 671 LINE",
"794 604 OFFCURVE",
"815 537 OFFCURVE",
"827 470 CURVE"
);
}
);
width = 1204;
},
{
layerId = "E9E5A43B-81E4-4E67-9C96-907763DB0C14";
paths = (
{
closed = 1;
nodes = (
"634.827 0 LINE",
"634.827 43.324 LINE",
"434.694 77.324 LINE",
"434.694 1281.012 LINE",
"933.977 1281.012 LINE",
"991.977 1181.208 OFFCURVE",
"1031.977 1066.936 OFFCURVE",
"1059.977 968 CURVE",
"1106.434 968 LINE",
"1076.434 1355 LINE",
"84.405 1355 LINE",
"84.405 1311.676 LINE",
"234.405 1277.809 LINE",
"234.405 77.324 LINE",
"84.405 43.324 LINE",
"84.405 0 LINE"
);
},
{
closed = 1;
nodes = (
"850.046 468.266 LINE",
"850.046 961.266 LINE",
"804.457 961.266 LINE",
"791.59 891.665 OFFCURVE",
"772.59 821.462 OFFCURVE",
"739.457 751.861 CURVE",
"410.092 751.861 LINE",
"410.092 677.936 LINE",
"739.457 677.936 LINE",
"772.324 608.335 OFFCURVE",
"793.324 538.734 OFFCURVE",
"804.457 468.266 CURVE"
);
}
);
width = 1151.97688;
}
);
leftKerningGroup = I;
unicode = 0046;
},
{
glyphname = G;
layers = (
{
anchors = (
{
name = bottom;
position = "{772, 0}";
},
{
name = topcap;
position = "{794, 1461}";
}
);
layerId = "FA6D65B5-4623-4FAC-A199-3F662257AC29";
paths = (
{
closed = 1;
nodes = (
"968 -18 OFFCURVE",
"1207 51 OFFCURVE",
"1318 143 CURVE",
"1318 581 LINE",
"1475 614 LINE",
"1475 679 LINE",
"857 679 LINE",
"857 614 LINE",
"1016 581 LINE",
"1016 283 LINE SMOOTH",
"1016 227 OFFCURVE",
"1012 208 OFFCURVE",
"996 185 CURVE SMOOTH",
"954 123 OFFCURVE",
"866 84 OFFCURVE",
"764 84 CURVE SMOOTH",
"526 84 OFFCURVE",
"417 259 OFFCURVE",
"417 664 CURVE SMOOTH",
"417 1068 OFFCURVE",
"549 1267 OFFCURVE",
"817 1267 CURVE SMOOTH",
"1003 1267 OFFCURVE",
"1114 1176 OFFCURVE",
"1236 924 CURVE",
"1315 924 LINE",
"1315 1355 LINE",
"1258 1355 LINE",
"1181 1265 LINE",
"1174 1265 LINE",
"1088 1332 OFFCURVE",
"942 1373 OFFCURVE",
"785 1373 CURVE SMOOTH",
"371 1373 OFFCURVE",
"79 1077 OFFCURVE",
"79 656 CURVE SMOOTH",
"79 252 OFFCURVE",
"352 -18 OFFCURVE",
"764 -18 CURVE SMOOTH"
);
}
);
width = 1505;
},
{
anchors = (
{
name = bottom;
position = "{754.659, 0}";
},
{
name = topcap;
position = "{772.324, 1461}";
}
);
layerId = "E9E5A43B-81E4-4E67-9C96-907763DB0C14";
paths = (
{
closed = 1;
nodes = (
"923.78 -18 OFFCURVE",
"1130.699 49.266 OFFCURVE",
"1229.561 143 CURVE",
"1229.561 601.809 LINE",
"1386.561 635.676 LINE",
"1386.561 679 LINE",
"870.873 679 LINE",
"870.873 635.676 LINE",
"1029.006 601.809 LINE",
"1029.006 264.792 LINE SMOOTH",
"1029.006 205.324 OFFCURVE",
"1025.873 190.659 OFFCURVE",
"1014.208 172.861 CURVE SMOOTH",
"970.474 102.191 OFFCURVE",
"878.139 65.792 OFFCURVE",
"765.734 65.792 CURVE SMOOTH",
"475.711 65.792 OFFCURVE",
"334.63 261.601 OFFCURVE",
"334.63 662.266 CURVE SMOOTH",
"334.63 1075.803 OFFCURVE",
"488.306 1290.41 OFFCURVE",
"785.786 1290.41 CURVE SMOOTH",
"980.457 1290.41 OFFCURVE",
"1086.254 1202.012 OFFCURVE",
"1200.451 946.543 CURVE",
"1246.503 946.543 LINE",
"1246.503 1355 LINE",
"1205.11 1355 LINE",
"1112.503 1265 LINE",
"1105.503 1265 LINE",
"1026.439 1333.734 OFFCURVE",
"900.382 1373 OFFCURVE",
"760.723 1373 CURVE SMOOTH",
"376.202 1373 OFFCURVE",
"94.607 1070.931 OFFCURVE",
"94.607 661.202 CURVE SMOOTH",
"94.607 262.405 OFFCURVE",
"359.803 -18 OFFCURVE",
"739.723 -18 CURVE SMOOTH"
);
}
);
width = 1433.03468;
}
);
leftKerningGroup = G;
rightKerningGroup = G;
unicode = 0047;
},
{
glyphname = H;
layers = (
{
anchors = (
{
name = bottom;
position = "{812, 0}";
},
{
name = topcap;
position = "{812, 1461}";
}
);
layerId = "FA6D65B5-4623-4FAC-A199-3F662257AC29";
paths = (
{
closed = 1;
nodes = (
"1551 0 LINE",
"1551 65 LINE",
"1403 102 LINE",
"1403 1255 LINE",
"1551 1290 LINE",
"1551 1355 LINE",
"950 1355 LINE",
"950 1290 LINE",
"1100 1255 LINE",
"1100 102 LINE",
"950 65 LINE",
"950 0 LINE"
);
},
{
closed = 1;
nodes = (
"674 0 LINE",
"674 65 LINE",
"526 102 LINE",
"526 1255 LINE",
"674 1290 LINE",
"674 1355 LINE",
"74 1355 LINE",
"74 1290 LINE",
"224 1255 LINE",
"224 102 LINE",
"74 65 LINE",
"74 0 LINE"
);
},
{
closed = 1;
nodes = (
"1276 665 LINE",
"1276 766 LINE",
"354 766 LINE",
"354 665 LINE"
);
}
);
width = 1624;
},
{
anchors = (
{
name = bottom;
position = "{766.913, 0}";
},
{
name = topcap;
position = "{766.913, 1461}";
}
);
layerId = "E9E5A43B-81E4-4E67-9C96-907763DB0C14";
paths = (
{
closed = 1;
nodes = (
"1445.22 0 LINE",
"1445.22 40.723 LINE",
"1289.416 77.723 LINE",
"1289.416 1277.543 LINE",
"1445.22 1308.208 LINE",
"1445.22 1355 LINE",
"931.792 1355 LINE",
"931.792 1311.676 LINE",
"1089.595 1277.543 LINE",
"1089.595 77.723 LINE",
"931.792 43.324 LINE",
"931.792 0 LINE"
);
},
{
closed = 1;
nodes = (
"591.63 0 LINE",
"591.63 43.324 LINE",
"435.827 77.723 LINE",
"435.827 1277.543 LINE",
"591.63 1311.676 LINE",
"591.63 1355 LINE",
"78.335 1355 LINE",
"78.335 1311.676 LINE",
"236.139 1277.543 LINE",
"236.139 77.723 LINE",
"78.335 43.324 LINE",
"78.335 0 LINE"
);
},
{
closed = 1;
nodes = (
"1177.156 676.272 LINE",
"1177.156 750.393 LINE",
"352.266 750.393 LINE",
"352.266 676.272 LINE"
);
}
);
width = 1523.42197;
}
);
leftKerningGroup = I;
rightKerningGroup = I;
unicode = 0048;
},
{
glyphname = Hbar;
layers = (
{
layerId = "FA6D65B5-4623-4FAC-A199-3F662257AC29";
paths = (
{
closed = 1;
nodes = (
"676 0 LINE",
"676 65 LINE",
"528 102 LINE",
"528 665 LINE",
"1102 665 LINE",
"1102 102 LINE",
"952 65 LINE",
"952 0 LINE",
"1552 0 LINE",
"1552 65 LINE",
"1404 102 LINE",
"1404 945 LINE",
"1540 945 LINE",
"1540 1077 LINE",
"1404 1077 LINE",
"1404 1255 LINE",
"1552 1290 LINE",
"1552 1355 LINE",
"952 1355 LINE",
"952 1290 LINE",
"1102 1255 LINE",
"1102 1077 LINE",
"528 1077 LINE",
"528 1255 LINE",
"676 1290 LINE",
"676 1355 LINE",
"76 1355 LINE",
"76 1290 LINE",
"225 1255 LINE",
"225 1077 LINE",
"93 1077 LINE",
"93 945 LINE",
"225 945 LINE",
"225 102 LINE",
"76 65 LINE",
"76 0 LINE"
);
},
{
closed = 1;
nodes = (
"528 945 LINE",
"1102 945 LINE",
"1102 766 LINE",
"528 766 LINE"
);
}
);
width = 1628;
},
{
layerId = "E9E5A43B-81E4-4E67-9C96-907763DB0C14";
paths = (
{
closed = 1;
nodes = (
"591.896 0 LINE",
"591.896 43.324 LINE",
"436.092 77.723 LINE",
"436.092 676.272 LINE",
"1089.861 676.272 LINE",
"1089.861 77.723 LINE",
"932.058 43.324 LINE",
"932.058 0 LINE",
"1445.353 0 LINE",
"1445.353 40.723 LINE",
"1289.549 77.723 LINE",
"1289.549 960.607 LINE",
"1445.491 960.607 LINE",
"1445.491 1077 LINE",
"1289.549 1077 LINE",
"1289.549 1277.543 LINE",
"1445.353 1308.208 LINE",
"1445.353 1355 LINE",
"932.058 1355 LINE",
"932.058 1311.676 LINE",
"1089.861 1277.543 LINE",
"1089.861 1077 LINE",
"436.092 1077 LINE",
"436.092 1277.543 LINE",
"591.896 1311.676 LINE",
"591.896 1355 LINE",
"78.601 1355 LINE",
"78.601 1311.676 LINE",
"236.272 1277.543 LINE",
"236.272 1077 LINE",
"96.468 1077 LINE",
"96.468 960.607 LINE",
"236.272 960.607 LINE",
"236.272 77.723 LINE",
"78.601 43.324 LINE",
"78.601 0 LINE"
);
},
{
closed = 1;
nodes = (
"436.092 960.607 LINE",
"1089.861 960.607 LINE",
"1089.861 750.393 LINE",
"436.092 750.393 LINE"
);
}
);
width = 1525.68786;
}
);
leftKerningGroup = I;
rightKerningGroup = I;
unicode = 0126;
},
{
glyphname = I;
layers = (
{
anchors = (
{
name = bottom;
position = "{374, 0}";
},
{
name = topcap;
position = "{374, 1461}";
}
);
layerId = "FA6D65B5-4623-4FAC-A199-3F662257AC29";
paths = (
{
closed = 1;
nodes = (
"674 0 LINE",
"674 65 LINE",
"526 102 LINE",
"526 1255 LINE",
"674 1290 LINE",
"674 1355 LINE",
"74 1355 LINE",
"74 1290 LINE",
"224 1255 LINE",
"224 102 LINE",
"74 65 LINE",
"74 0 LINE"
);
}
);
width = 748;
},
{
anchors = (
{
name = bottom;
position = "{336.717, 0}";
},
{
name = topcap;
position = "{336.717, 1461}";
}
);
layerId = "E9E5A43B-81E4-4E67-9C96-907763DB0C14";
paths = (
{
closed = 1;
nodes = (
"591.63 0 LINE",
"591.63 43.324 LINE",
"435.827 77.723 LINE",
"435.827 1277.543 LINE",
"591.63 1311.676 LINE",
"591.63 1355 LINE",
"78.335 1355 LINE",
"78.335 1311.676 LINE",
"236.139 1277.543 LINE",
"236.139 77.723 LINE",
"78.335 43.324 LINE",
"78.335 0 LINE"
);
}
);
width = 669.96532;
}
);
leftKerningGroup = I;
rightKerningGroup = I;
unicode = 0049;
},
{
glyphname = J;
layers = (
{
anchors = (
{
name = topcap;
position = "{360, 1461}";
}
);
layerId = "FA6D65B5-4623-4FAC-A199-3F662257AC29";
paths = (
{
closed = 1;
nodes = (
"192 -458 OFFCURVE",
"359 -378 OFFCURVE",
"452 -231 CURVE",
"503 -137 OFFCURVE",
"512 -72 OFFCURVE",
"512 273 CURVE SMOOTH",
"512 1255 LINE",
"660 1290 LINE",
"660 1355 LINE",
"60 1355 LINE",
"60 1290 LINE",
"209 1255 LINE",
"209 -76 LINE SMOOTH",
"209 -266 OFFCURVE",
"153 -357 OFFCURVE",
"83 -357 CURVE SMOOTH",
"40 -357 OFFCURVE",
"11 -324 OFFCURVE",
"-16 -245 CURVE SMOOTH",
"-39 -181 OFFCURVE",
"-72 -136 OFFCURVE",
"-144 -136 CURVE SMOOTH",
"-215 -136 OFFCURVE",
"-271 -181 OFFCURVE",
"-271 -269 CURVE SMOOTH",
"-271 -384 OFFCURVE",
"-164 -458 OFFCURVE",
"26 -458 CURVE SMOOTH"
);
}
);
width = 720;
},
{
anchors = (
{
name = topcap;
position = "{324.451, 1461}";
}
);
layerId = "E9E5A43B-81E4-4E67-9C96-907763DB0C14";
paths = (
{
closed = 1;
nodes = (
"136.509 -458 OFFCURVE",
"280.098 -378 OFFCURVE",
"363.561 -231 CURVE SMOOTH",
"414.561 -137 OFFCURVE",
"423.561 -72 OFFCURVE",
"423.561 273 CURVE SMOOTH",
"423.561 1277.543 LINE",
"579.364 1311.676 LINE",
"579.364 1355 LINE",
"66.069 1355 LINE",
"66.069 1311.676 LINE",
"222.873 1277.543 LINE",
"222.873 -82.936 LINE SMOOTH",
"222.873 -273.803 OFFCURVE",
"160.803 -364.803 OFFCURVE",
"81.266 -364.803 CURVE SMOOTH",
"35.665 -364.803 OFFCURVE",
"-0.272 -336.139 OFFCURVE",
"-24.671 -267.543 CURVE SMOOTH",
"-45.069 -213.081 OFFCURVE",
"-73.734 -182.821 OFFCURVE",
"-125.792 -182.821 CURVE SMOOTH",
"-190.723 -182.821 OFFCURVE",
"-232.85 -226.954 OFFCURVE",
"-232.85 -299.347 CURVE SMOOTH",
"-232.85 -397.873 OFFCURVE",
"-148.393 -458 OFFCURVE",
"-10.416 -458 CURVE SMOOTH"
);
}
);
width = 648.03468;
}
);
leftKerningGroup = J;
rightKerningGroup = J;
unicode = 004A;
},
{
glyphname = K;
layers = (
{
anchors = (
{
name = bottom;
position = "{770, 0}";
}
);
layerId = "FA6D65B5-4623-4FAC-A199-3F662257AC29";
paths = (
{
closed = 1;
nodes = (
"674 0 LINE",
"674 65 LINE",
"526 102 LINE",
"526 577 LINE",
"565 618 LINE",
"998 0 LINE",
"1468 0 LINE",
"1468 65 LINE",
"1308 99 LINE",
"773 843 LINE",
"1082 1181 LINE SMOOTH",
"1140 1244 OFFCURVE",
"1177 1264 OFFCURVE",
"1343 1290 CURVE",
"1343 1355 LINE",
"838 1355 LINE",
"838 1292 LINE",
"928 1288 OFFCURVE",
"973 1274 OFFCURVE",
"973 1241 CURVE SMOOTH",
"973 1227 OFFCURVE",
"968 1206 OFFCURVE",
"949 1186 CURVE SMOOTH",
"526 732 LINE",
"526 1255 LINE",
"674 1290 LINE",
"674 1355 LINE",
"74 1355 LINE",
"74 1290 LINE",
"224 1255 LINE",
"224 102 LINE",
"74 65 LINE",
"74 0 LINE"
);
}
);
width = 1420;
},
{
anchors = (
{
name = bottom;
position = "{706.705, 0}";
}
);
layerId = "E9E5A43B-81E4-4E67-9C96-907763DB0C14";
paths = (
{
closed = 1;
nodes = (
"591.63 0 LINE",
"591.63 43.324 LINE",
"435.827 77.723 LINE",
"435.827 542.318 LINE",
"540.723 660.486 LINE",
"1032.682 0 LINE",
"1426.382 0 LINE",
"1426.382 43.324 LINE",
"1236.035 77.324 LINE",
"675.023 812.653 LINE",
"1017.838 1202.676 LINE SMOOTH",
"1074.971 1267.41 OFFCURVE",
"1113.705 1283.942 OFFCURVE",
"1275.37 1311.676 CURVE",
"1275.37 1355 LINE",
"805.919 1355 LINE",
"805.919 1311.942 LINE",
"908.058 1305.341 OFFCURVE",
"952.191 1289.607 OFFCURVE",
"952.191 1259.208 CURVE SMOOTH",
"952.191 1245.208 OFFCURVE",
"943.723 1226.809 OFFCURVE",
"923.855 1205.942 CURVE SMOOTH",
"435.827 661.769 LINE",
"435.827 1277.543 LINE",
"591.63 1311.676 LINE",
"591.63 1355 LINE",
"78.335 1355 LINE",
"78.335 1311.676 LINE",
"236.139 1277.543 LINE",
"236.139 77.723 LINE",
"78.335 43.324 LINE",
"78.335 0 LINE"
);
}
);
width = 1383.58382;
}
);
leftKerningGroup = I;
rightKerningGroup = K;
unicode = 004B;
},
{
glyphname = L;
layers = (
{
anchors = (
{
name = bottom;
position = "{655, 0}";
},
{
name = topcap;
position = "{392, 1461}";
}
);
layerId = "FA6D65B5-4623-4FAC-A199-3F662257AC29";
paths = (
{
closed = 1;
nodes = (
"1142 0 LINE",
"1216 412 LINE",
"1125 412 LINE",
"1082 308 OFFCURVE",
"1040 204 OFFCURVE",
"964 100 CURVE",
"526 100 LINE",
"526 1255 LINE",
"692 1290 LINE",
"692 1355 LINE",
"74 1355 LINE",
"74 1290 LINE",
"224 1257 LINE",
"224 99 LINE",
"74 65 LINE",
"74 0 LINE"
);
}
);
width = 1230;
},
{
anchors = (
{
name = bottom;
position = "{613.382, 0}";
},
{
name = topcap;
position = "{342.578, 1461}";
}
);
layerId = "E9E5A43B-81E4-4E67-9C96-907763DB0C14";
paths = (
{
closed = 1;
nodes = (
"1069.168 0 LINE",
"1135.364 419.803 LINE",
"1083.382 419.803 LINE",
"1043.85 304.532 OFFCURVE",
"1005.318 189.26 OFFCURVE",
"933.653 73.988 CURVE",
"434.96 73.988 LINE",
"434.96 1277.543 LINE",
"601.827 1311.676 LINE",
"601.827 1355 LINE",
"84.405 1355 LINE",
"84.405 1311.676 LINE",
"234.405 1277.809 LINE",
"234.405 77.324 LINE",
"84.405 43.324 LINE",
"84.405 0 LINE"
);
}
);
width = 1164.9711;
}
);
leftKerningGroup = I;
rightKerningGroup = L;
unicode = 004C;
},
{
glyphname = Lslash;
layers = (
{
components = (
{
name = L;
transform = "{1, 0, 0, 1, 2, 0}";
}
);
layerId = "FA6D65B5-4623-4FAC-A199-3F662257AC29";
paths = (
{
closed = 1;
nodes = (
"656 778 LINE",
"656 945 LINE",
"107 653 LINE",
"107 486 LINE"
);
}
);
width = 1232;
},
{
components = (
{
alignment = -1;
name = L;
transform = "{1, 0, 0, 1, 2, 0}";
}
);
layerId = "E9E5A43B-81E4-4E67-9C96-907763DB0C14";
paths = (
{
closed = 1;
nodes = (
"598.775 796.208 LINE",
"598.775 917.254 LINE",
"104.399 653 LINE",
"104.399 531.954 LINE"
);
}
);
width = 1166.10405;
}
);
leftKerningGroup = I;
rightKerningGroup = L;
unicode = 0141;
},
{
glyphname = M;
layers = (
{
layerId = "FA6D65B5-4623-4FAC-A199-3F662257AC29";
paths = (
{
closed = 1;
nodes = (
"915 -18 LINE",
"1357 1045 LINE",
"1364 1045 LINE",
"1364 102 LINE",
"1214 65 LINE",
"1214 0 LINE",
"1815 0 LINE",
"1815 65 LINE",
"1667 102 LINE",
"1667 1255 LINE",
"1815 1290 LINE",
"1815 1355 LINE",
"1362 1355 LINE",
"980 447 LINE",
"970 447 LINE",
"604 1355 LINE",
"70 1355 LINE",
"70 1290 LINE",
"225 1257 LINE",
"225 99 LINE",
"69 65 LINE",
"69 0 LINE",
"502 0 LINE",
"502 65 LINE",
"347 99 LINE",
"347 1093 LINE",
"354 1093 LINE",
"831 -18 LINE"
);
}
);
width = 1888;
},
{
layerId = "E9E5A43B-81E4-4E67-9C96-907763DB0C14";
paths = (
{
closed = 1;
nodes = (
"862.11 -18 LINE",
"1353.532 1140.376 LINE",
"1360.532 1140.376 LINE",
"1360.532 77.723 LINE",
"1203.595 43.324 LINE",
"1203.595 0 LINE",
"1717.023 0 LINE",
"1717.023 43.324 LINE",
"1561.22 77.723 LINE",
"1561.22 1277.543 LINE",
"1717.023 1311.676 LINE",
"1717.023 1355 LINE",
"1337.723 1355 LINE",
"907.168 329.948 LINE",
"898.035 329.948 LINE",
"469.607 1355 LINE",
"77.803 1355 LINE",
"77.803 1311.676 LINE",
"236.272 1277.809 LINE",
"236.272 77.324 LINE",
"77.671 43.324 LINE",
"77.671 0 LINE",
"469.919 0 LINE",
"469.919 43.324 LINE",
"313.185 77.324 LINE",
"313.185 1152.827 LINE",
"320.185 1152.827 LINE",
"809.324 -18 LINE"
);
}
);
width = 1795.22543;
}
);
leftKerningGroup = N;
rightKerningGroup = I;
unicode = 004D;
},
{
glyphname = N;
layers = (
{
anchors = (
{
name = bottom;
position = "{773, 0}";
},
{
name = topcap;
position = "{803, 1461}";
}
);
layerId = "FA6D65B5-4623-4FAC-A199-3F662257AC29";
paths = (
{
closed = 1;
nodes = (
"1334 -18 LINE",
"1334 1257 LINE",
"1491 1290 LINE",
"1491 1355 LINE",
"1058 1355 LINE",
"1058 1290 LINE",
"1213 1257 LINE",
"1213 519 LINE",
"547 1355 LINE",
"70 1355 LINE",
"70 1290 LINE",
"225 1257 LINE",
"225 99 LINE",
"69 65 LINE",
"69 0 LINE",
"502 0 LINE",
"502 65 LINE",
"347 99 LINE",
"347 1074 LINE",
"1213 -18 LINE"
);
}
);
width = 1545;
},
{
anchors = (
{
name = bottom;
position = "{720.977, 0}";
},
{
name = topcap;
position = "{745.775, 1461}";
}
);
layerId = "E9E5A43B-81E4-4E67-9C96-907763DB0C14";
paths = (
{
closed = 1;
nodes = (
"1243.827 -32.74 LINE",
"1243.827 1277.809 LINE",
"1402.561 1311.676 LINE",
"1402.561 1355 LINE",
"1010.312 1355 LINE",
"1010.312 1311.676 LINE",
"1167.046 1277.809 LINE",
"1167.046 380.272 LINE",
"449.89 1355 LINE",
"77.803 1355 LINE",
"77.803 1311.676 LINE",
"236.272 1277.809 LINE",
"236.272 77.324 LINE",
"77.671 43.324 LINE",
"77.671 0 LINE",
"469.919 0 LINE",
"469.919 43.324 LINE",
"313.185 77.324 LINE",
"313.185 1160.705 LINE",
"1180.919 -32.74 LINE"
);
}
);
width = 1468.69942;
}
);
leftKerningGroup = N;
rightKerningGroup = N;
unicode = 004E;
},
{
glyphname = Eng;
layers = (
{
layerId = "FA6D65B5-4623-4FAC-A199-3F662257AC29";
paths = (
{
closed = 1;
nodes = (
"1262 458 LINE",
"547 1355 LINE",
"257 1355 LINE",
"248 1199 LINE",
"1213 -18 LINE"
);
},
{
closed = 1;
nodes = (
"1014 -458 OFFCURVE",
"1181 -378 OFFCURVE",
"1274 -231 CURVE",
"1325 -137 OFFCURVE",
"1334 -72 OFFCURVE",
"1334 273 CURVE",
"1031 273 LINE",
"1031 -76 LINE SMOOTH",
"1031 -266 OFFCURVE",
"975 -357 OFFCURVE",
"905 -357 CURVE SMOOTH",
"862 -357 OFFCURVE",
"832 -324 OFFCURVE",
"806 -245 CURVE SMOOTH",
"783 -181 OFFCURVE",
"750 -136 OFFCURVE",
"678 -136 CURVE SMOOTH",
"607 -136 OFFCURVE",
"551 -181 OFFCURVE",
"551 -269 CURVE SMOOTH",
"551 -384 OFFCURVE",
"658 -458 OFFCURVE",
"848 -458 CURVE SMOOTH"
);
},
{
closed = 1;
nodes = (
"502 0 LINE",
"502 65 LINE",
"347 99 LINE",
"347 1355 LINE",
"70 1355 LINE",
"70 1290 LINE",
"225 1257 LINE",
"225 99 LINE",
"69 65 LINE",
"69 0 LINE"
);
},
{
closed = 1;
nodes = (
"1334 246 LINE",
"1334 1257 LINE",
"1491 1290 LINE",
"1491 1355 LINE",
"1058 1355 LINE",
"1058 1290 LINE",
"1213 1257 LINE",
"1213 246 LINE"
);
}
);
width = 1544;
},
{
layerId = "E9E5A43B-81E4-4E67-9C96-907763DB0C14";
paths = (
{
closed = 1;
nodes = (
"1205.642 327.942 LINE",
"449.89 1355 LINE",
"266.538 1355 LINE",
"257.538 1237.15 LINE",
"1180.919 -32.74 LINE"
);
},
{
closed = 1;
nodes = (
"957.642 -458 OFFCURVE",
"1100.364 -378 OFFCURVE",
"1183.827 -231 CURVE SMOOTH",
"1234.827 -137 OFFCURVE",
"1243.827 -72 OFFCURVE",
"1243.827 273 CURVE",
"1043.139 273 LINE",
"1043.139 -82.936 LINE SMOOTH",
"1043.139 -273.803 OFFCURVE",
"981.069 -364.803 OFFCURVE",
"901.532 -364.803 CURVE SMOOTH",
"855.931 -364.803 OFFCURVE",
"819.861 -336.139 OFFCURVE",
"795.595 -267.543 CURVE SMOOTH",
"775.197 -213.081 OFFCURVE",
"746.532 -182.821 OFFCURVE",
"694.474 -182.821 CURVE SMOOTH",
"630.41 -182.821 OFFCURVE",
"587.416 -226.954 OFFCURVE",
"587.416 -299.347 CURVE SMOOTH",
"587.416 -397.873 OFFCURVE",
"671.873 -458 OFFCURVE",
"809.85 -458 CURVE SMOOTH"
);
},
{
closed = 1;
nodes = (
"469.919 0 LINE",
"469.919 43.324 LINE",
"313.185 77.324 LINE",
"313.185 1355 LINE",
"77.803 1355 LINE",
"77.803 1311.676 LINE",
"236.272 1277.809 LINE",
"236.272 77.324 LINE",
"77.671 43.324 LINE",
"77.671 0 LINE"
);
},
{
closed = 1;
nodes = (
"1243.827 215.653 LINE",
"1243.827 1277.809 LINE",
"1402.561 1311.676 LINE",
"1402.561 1355 LINE",
"1010.312 1355 LINE",
"1010.312 1311.676 LINE",
"1167.046 1277.809 LINE",
"1167.046 215.653 LINE"
);
}
);
width = 1467.69942;
}
);
leftKerningGroup = N;
rightKerningGroup = N;
unicode = 014A;
},
{
glyphname = O;
layers = (
{
anchors = (
{
name = bottom;
position = "{765, 0}";
},
{
name = topcap;
position = "{765, 1461}";
}
);
layerId = "FA6D65B5-4623-4FAC-A199-3F662257AC29";
paths = (
{
closed = 1;
nodes = (
"1206 -18 OFFCURVE",
"1450 296 OFFCURVE",
"1450 678 CURVE SMOOTH",
"1450 1060 OFFCURVE",
"1206 1373 OFFCURVE",
"764 1373 CURVE SMOOTH",
"324 1373 OFFCURVE",
"79 1060 OFFCURVE",
"79 678 CURVE SMOOTH",
"79 296 OFFCURVE",
"324 -18 OFFCURVE",
"764 -18 CURVE SMOOTH"
);
},
{
closed = 1;
nodes = (
"480 84 OFFCURVE",
"426 433 OFFCURVE",
"426 678 CURVE SMOOTH",
"426 920 OFFCURVE",
"480 1267 OFFCURVE",
"764 1267 CURVE SMOOTH",
"1052 1267 OFFCURVE",
"1104 920 OFFCURVE",
"1104 678 CURVE SMOOTH",
"1104 433 OFFCURVE",
"1049 84 OFFCURVE",
"764 84 CURVE SMOOTH"
);
}
);
width = 1529;
},
{
anchors = (
{
name = bottom;
position = "{740.723, 0}";
},
{
name = topcap;
position = "{740.723, 1461}";
}
);
layerId = "E9E5A43B-81E4-4E67-9C96-907763DB0C14";
paths = (
{
closed = 1;
nodes = (
"1114.092 -18 OFFCURVE",
"1384.971 283.861 OFFCURVE",
"1384.971 678 CURVE SMOOTH",
"1384.971 1072.139 OFFCURVE",
"1114.092 1373 OFFCURVE",
"739.723 1373 CURVE SMOOTH",
"364.751 1373 OFFCURVE",
"94.607 1072.139 OFFCURVE",
"94.607 678 CURVE SMOOTH",
"94.607 283.861 OFFCURVE",
"364.751 -18 OFFCURVE",
"739.723 -18 CURVE SMOOTH"
);
},
{
closed = 1;
nodes = (
"475.665 64.925 OFFCURVE",
"333.225 312.48 OFFCURVE",
"333.225 678.867 CURVE SMOOTH",
"333.225 1045.723 OFFCURVE",
"475.665 1290.41 OFFCURVE",
"740.59 1290.41 CURVE SMOOTH",
"1005.179 1290.41 OFFCURVE",
"1146.486 1047.457 OFFCURVE",
"1146.486 682.335 CURVE SMOOTH",
"1146.486 312.48 OFFCURVE",
"1003.046 64.925 OFFCURVE",
"739.723 64.925 CURVE SMOOTH"
);
}
);
width = 1478.71098;
}
);
leftKerningGroup = O;
rightKerningGroup = O;
unicode = 004F;
},
{
glyphname = Oslash;
layers = (
{
layerId = "FA6D65B5-4623-4FAC-A199-3F662257AC29";
paths = (
{
closed = 1;
nodes = (
"1204 -18 OFFCURVE",
"1448 296 OFFCURVE",
"1448 678 CURVE SMOOTH",
"1448 873 OFFCURVE",
"1383 1049 OFFCURVE",
"1262 1176 CURVE",
"1417 1355 LINE",
"1280 1355 LINE",
"1184 1244 LINE",
"1075 1324 OFFCURVE",
"933 1373 OFFCURVE",
"762 1373 CURVE SMOOTH",
"322 1373 OFFCURVE",
"77 1060 OFFCURVE",
"77 678 CURVE SMOOTH",
"77 480 OFFCURVE",
"143 301 OFFCURVE",
"266 174 CURVE",
"116 0 LINE",
"252 0 LINE",
"343 107 LINE",
"452 28 OFFCURVE",
"593 -18 OFFCURVE",
"762 -18 CURVE SMOOTH"
);
},
{
closed = 1;
nodes = (
"625 84 OFFCURVE",
"540 165 OFFCURVE",
"491 278 CURVE",
"1074 956 LINE",
"1095 864 OFFCURVE",
"1102 764 OFFCURVE",
"1102 678 CURVE SMOOTH",
"1102 433 OFFCURVE",
"1047 84 OFFCURVE",
"762 84 CURVE SMOOTH"
);
},
{
closed = 1;
nodes = (
"431 488 OFFCURVE",
"424 590 OFFCURVE",
"424 678 CURVE SMOOTH",
"424 920 OFFCURVE",
"479 1267 OFFCURVE",
"762 1267 CURVE SMOOTH",
"903 1267 OFFCURVE",
"987 1184 OFFCURVE",
"1037 1072 CURVE",
"454 392 LINE"
);
}
);
width = 1526;
},
{
layerId = "E9E5A43B-81E4-4E67-9C96-907763DB0C14";
paths = (
{
closed = 1;
nodes = (
"1115.561 -18 OFFCURVE",
"1385.572 283.861 OFFCURVE",
"1385.572 678 CURVE SMOOTH",
"1385.572 871.266 OFFCURVE",
"1318.838 1042.931 OFFCURVE",
"1207.376 1166.462 CURVE",
"1369.312 1355 LINE",
"1266.127 1355 LINE",
"1151.052 1221.457 LINE",
"1042.052 1316.197 OFFCURVE",
"900.919 1373 OFFCURVE",
"740.324 1373 CURVE SMOOTH",
"366.22 1373 OFFCURVE",
"96.075 1072.139 OFFCURVE",
"96.075 678 CURVE SMOOTH",
"96.075 486.936 OFFCURVE",
"159.474 316.607 OFFCURVE",
"267.734 192.208 CURVE",
"102.127 0 LINE",
"204.312 0 LINE",
"323.058 138.214 LINE",
"432.058 40.139 OFFCURVE",
"576.526 -18 OFFCURVE",
"740.324 -18 CURVE SMOOTH"
);
},
{
closed = 1;
nodes = (
"600.723 64.925 OFFCURVE",
"493.179 134.653 OFFCURVE",
"424.237 256.324 CURVE",
"1090.474 1030.566 LINE",
"1127.948 934.231 OFFCURVE",
"1147.954 816.89 OFFCURVE",
"1147.954 682.335 CURVE SMOOTH",
"1147.954 312.48 OFFCURVE",
"1004.514 64.925 OFFCURVE",
"740.324 64.925 CURVE SMOOTH"
);
},
{
closed = 1;
nodes = (
"352.098 429.908 OFFCURVE",
"333.827 546.647 OFFCURVE",
"333.827 678.867 CURVE SMOOTH",
"333.827 1045.723 OFFCURVE",
"477.266 1290.41 OFFCURVE",
"742.058 1290.41 CURVE SMOOTH",
"879.59 1290.41 OFFCURVE",
"984.399 1223.884 OFFCURVE",
"1053.474 1108.416 CURVE",
"388.104 334.775 LINE"
);
}
);
width = 1480.04624;
}
);
leftKerningGroup = O;
rightKerningGroup = O;
unicode = 00D8;
},
{
glyphname = Oslashacute;
layers = (
{
components = (
{
name = acute.cap;
transform = "{1, 0, 0, 1, 556, 0}";
}
);
layerId = "FA6D65B5-4623-4FAC-A199-3F662257AC29";
paths = (
{
closed = 1;
nodes = (
"1204 -18 OFFCURVE",
"1448 296 OFFCURVE",
"1448 678 CURVE SMOOTH",
"1448 873 OFFCURVE",
"1383 1049 OFFCURVE",
"1262 1176 CURVE",
"1417 1355 LINE",
"1280 1355 LINE",
"1184 1244 LINE",
"1075 1324 OFFCURVE",
"933 1373 OFFCURVE",
"762 1373 CURVE SMOOTH",
"322 1373 OFFCURVE",
"77 1060 OFFCURVE",
"77 678 CURVE SMOOTH",
"77 480 OFFCURVE",
"143 301 OFFCURVE",
"266 174 CURVE",
"116 0 LINE",
"252 0 LINE",
"343 107 LINE",
"452 28 OFFCURVE",
"593 -18 OFFCURVE",
"762 -18 CURVE SMOOTH"
);
},
{
closed = 1;
nodes = (
"625 84 OFFCURVE",
"540 165 OFFCURVE",
"491 278 CURVE",
"1074 956 LINE",
"1095 864 OFFCURVE",
"1102 764 OFFCURVE",
"1102 678 CURVE SMOOTH",
"1102 433 OFFCURVE",
"1047 84 OFFCURVE",
"762 84 CURVE SMOOTH"
);
},
{
closed = 1;
nodes = (
"431 488 OFFCURVE",
"424 590 OFFCURVE",
"424 678 CURVE SMOOTH",
"424 920 OFFCURVE",
"479 1267 OFFCURVE",
"762 1267 CURVE SMOOTH",
"903 1267 OFFCURVE",
"987 1184 OFFCURVE",
"1037 1072 CURVE",
"454 392 LINE"
);
}
);
width = 1526;
},
{
components = (
{
alignment = -1;
name = acute.cap;
transform = "{1, 0, 0, 1, 542.127, 0}";
}
);
layerId = "E9E5A43B-81E4-4E67-9C96-907763DB0C14";
paths = (
{
closed = 1;
nodes = (
"1115.561 -18 OFFCURVE",
"1385.572 283.861 OFFCURVE",
"1385.572 678 CURVE SMOOTH",
"1385.572 871.266 OFFCURVE",
"1318.838 1042.931 OFFCURVE",
"1207.376 1166.462 CURVE",
"1369.312 1355 LINE",
"1266.127 1355 LINE",
"1151.052 1221.457 LINE",
"1042.052 1316.197 OFFCURVE",
"900.919 1373 OFFCURVE",
"740.324 1373 CURVE SMOOTH",
"366.22 1373 OFFCURVE",
"96.075 1072.139 OFFCURVE",
"96.075 678 CURVE SMOOTH",
"96.075 486.936 OFFCURVE",
"159.474 316.607 OFFCURVE",
"267.734 192.208 CURVE",
"102.127 0 LINE",
"204.312 0 LINE",
"323.058 138.214 LINE",
"432.058 40.139 OFFCURVE",
"576.526 -18 OFFCURVE",
"740.324 -18 CURVE SMOOTH"
);
},
{
closed = 1;
nodes = (
"600.723 64.925 OFFCURVE",
"493.179 134.653 OFFCURVE",
"424.237 256.324 CURVE",
"1090.474 1030.566 LINE",
"1127.948 934.231 OFFCURVE",
"1147.954 816.89 OFFCURVE",
"1147.954 682.335 CURVE SMOOTH",
"1147.954 312.48 OFFCURVE",
"1004.514 64.925 OFFCURVE",
"740.324 64.925 CURVE SMOOTH"
);
},
{
closed = 1;
nodes = (
"352.098 429.908 OFFCURVE",
"333.827 546.647 OFFCURVE",
"333.827 678.867 CURVE SMOOTH",
"333.827 1045.723 OFFCURVE",
"477.266 1290.41 OFFCURVE",
"742.058 1290.41 CURVE SMOOTH",
"879.59 1290.41 OFFCURVE",
"984.399 1223.884 OFFCURVE",
"1053.474 1108.416 CURVE",
"388.104 334.775 LINE"
);
}
);
width = 1480.04624;
}
);
leftKerningGroup = O;
rightKerningGroup = O;
unicode = 01FE;
},
{
glyphname = OE;
layers = (
{
components = (
{
name = E;
transform = "{1, 0, 0, 1, 776, 0}";
}
);
layerId = "FA6D65B5-4623-4FAC-A199-3F662257AC29";
paths = (
{
closed = 1;
nodes = (
"926 -18 OFFCURVE",
"1060 25 OFFCURVE",
"1167 97 CURVE",
"1019 208 LINE",
"968 136 OFFCURVE",
"887 84 OFFCURVE",
"764 84 CURVE SMOOTH",
"480 84 OFFCURVE",
"426 433 OFFCURVE",
"426 678 CURVE SMOOTH",
"426 920 OFFCURVE",
"480 1267 OFFCURVE",
"764 1267 CURVE SMOOTH",
"899 1267 OFFCURVE",
"982 1206 OFFCURVE",
"1031 1121 CURVE",
"1179 1251 LINE",
"1070 1329 OFFCURVE",
"931 1373 OFFCURVE",
"764 1373 CURVE SMOOTH",
"324 1373 OFFCURVE",
"79 1060 OFFCURVE",
"79 678 CURVE SMOOTH",
"79 296 OFFCURVE",
"324 -18 OFFCURVE",
"764 -18 CURVE SMOOTH"
);
}
);
width = 2063;
},
{
components = (
{
alignment = -1;
name = E;
transform = "{1, 0, 0, 1, 795.942, 0}";
}
);
layerId = "E9E5A43B-81E4-4E67-9C96-907763DB0C14";
paths = (
{
closed = 1;
nodes = (
"882.647 -18 OFFCURVE",
"1022.717 12.861 OFFCURVE",
"1121.046 61.451 CURVE",
"1041.543 183.723 LINE",
"975.803 109.988 OFFCURVE",
"867.058 64.925 OFFCURVE",
"746.659 64.925 CURVE SMOOTH",
"475.665 64.925 OFFCURVE",
"333.225 306.41 OFFCURVE",
"333.225 678.867 CURVE SMOOTH",
"333.225 1050.058 OFFCURVE",
"473.931 1290.41 OFFCURVE",
"748.393 1290.41 CURVE SMOOTH",
"890.329 1290.41 OFFCURVE",
"1006.277 1228.543 OFFCURVE",
"1070.884 1125.335 CURVE",
"1133.046 1283.081 LINE",
"1030.116 1337.671 OFFCURVE",
"886.78 1373 OFFCURVE",
"753.595 1373 CURVE SMOOTH",
"364.751 1373 OFFCURVE",
"94.607 1079.075 OFFCURVE",
"94.607 678 CURVE SMOOTH",
"94.607 276.058 OFFCURVE",
"364.751 -18 OFFCURVE",
"753.595 -18 CURVE SMOOTH"
);
}
);
width = 2023.11561;
}
);
leftKerningGroup = O;
rightKerningGroup = E;
unicode = 0152;
},
{
glyphname = P;
layers = (
{
layerId = "FA6D65B5-4623-4FAC-A199-3F662257AC29";
paths = (
{
closed = 1;
nodes = (
"746 0 LINE",
"746 65 LINE",
"526 104 LINE",
"526 563 LINE",
"632 563 LINE SMOOTH",
"979 563 OFFCURVE",
"1177 706 OFFCURVE",
"1177 954 CURVE SMOOTH",
"1177 1200 OFFCURVE",
"977 1355 OFFCURVE",
"660 1355 CURVE SMOOTH",
"74 1355 LINE",
"74 1290 LINE",
"224 1253 LINE",
"224 104 LINE",
"74 65 LINE",
"74 0 LINE"
);
},
{
closed = 1;
nodes = (
"526 1260 LINE",
"570 1260 LINE SMOOTH",
"678 1260 OFFCURVE",
"744 1241 OFFCURVE",
"788 1197 CURVE SMOOTH",
"832 1153 OFFCURVE",
"855 1077 OFFCURVE",
"855 970 CURVE SMOOTH",
"855 855 OFFCURVE",
"831 781 OFFCURVE",
"776 730 CURVE SMOOTH",
"723 681 OFFCURVE",
"648 658 OFFCURVE",
"539 658 CURVE SMOOTH",
"526 658 LINE"
);
}
);
width = 1221;
},
{
layerId = "E9E5A43B-81E4-4E67-9C96-907763DB0C14";
paths = (
{
closed = 1;
nodes = (
"637.618 0 LINE",
"637.618 43.324 LINE",
"434.96 77.988 LINE",
"434.96 578.607 LINE",
"610.324 578.607 LINE SMOOTH",
"921.775 578.607 OFFCURVE",
"1113.705 710.335 OFFCURVE",
"1113.705 952.266 CURVE SMOOTH",
"1113.705 1211.272 OFFCURVE",
"918.908 1355 OFFCURVE",
"637.457 1355 CURVE SMOOTH",
"84.405 1355 LINE",
"84.405 1311.676 LINE",
"234.405 1277.277 LINE",
"234.405 77.988 LINE",
"84.405 43.324 LINE",
"84.405 0 LINE"
);
},
{
closed = 1;
nodes = (
"434.96 1281.676 LINE",
"581.272 1281.676 LINE SMOOTH",
"658.058 1281.676 OFFCURVE",
"705.85 1274.815 OFFCURVE",
"745.514 1255.092 CURVE SMOOTH",
"839.803 1213.694 OFFCURVE",
"894.884 1115.15 OFFCURVE",
"894.884 970 CURVE SMOOTH",
"894.884 882.746 OFFCURVE",
"876.954 802.676 OFFCURVE",
"823.688 742.139 CURVE SMOOTH",
"772.422 684.468 OFFCURVE",
"693.087 650.197 OFFCURVE",
"551.139 650.197 CURVE SMOOTH",
"434.96 650.197 LINE"
);
}
);
width = 1174.17919;
}
);
leftKerningGroup = I;
unicode = 0050;
},
{
glyphname = Thorn;
layers = (
{
layerId = "FA6D65B5-4623-4FAC-A199-3F662257AC29";
paths = (
{
closed = 1;
nodes = (
"746 0 LINE",
"746 65 LINE",
"526 104 LINE",
"526 287 LINE",
"632 287 LINE SMOOTH",
"979 287 OFFCURVE",
"1177 429 OFFCURVE",
"1177 678 CURVE SMOOTH",
"1177 924 OFFCURVE",
"977 1079 OFFCURVE",
"660 1079 CURVE SMOOTH",
"526 1079 LINE",
"526 1251 LINE",
"746 1290 LINE",
"746 1355 LINE",
"74 1355 LINE",
"74 1290 LINE",
"224 1251 LINE",
"224 104 LINE",
"74 65 LINE",
"74 0 LINE"
);
},
{
closed = 1;
nodes = (
"526 984 LINE",
"570 984 LINE SMOOTH",
"678 984 OFFCURVE",
"744 964 OFFCURVE",
"788 920 CURVE SMOOTH",
"832 876 OFFCURVE",
"855 801 OFFCURVE",
"855 693 CURVE SMOOTH",
"855 579 OFFCURVE",
"831 505 OFFCURVE",
"776 454 CURVE SMOOTH",
"723 405 OFFCURVE",
"648 382 OFFCURVE",
"539 382 CURVE SMOOTH",
"526 382 LINE"
);
}
);
width = 1225;
},
{
layerId = "E9E5A43B-81E4-4E67-9C96-907763DB0C14";
paths = (
{
closed = 1;
nodes = (
"637.618 0 LINE",
"637.618 43.324 LINE",
"434.96 77.988 LINE",
"434.96 293.069 LINE",
"610.324 293.069 LINE SMOOTH",
"921.775 293.069 OFFCURVE",
"1113.705 424.665 OFFCURVE",
"1113.705 666.728 CURVE SMOOTH",
"1113.705 925.734 OFFCURVE",
"918.908 1069.462 OFFCURVE",
"637.457 1069.462 CURVE SMOOTH",
"434.96 1069.462 LINE",
"434.96 1277.012 LINE",
"637.618 1311.676 LINE",
"637.618 1355 LINE",
"84.405 1355 LINE",
"84.405 1311.676 LINE",
"234.405 1277.012 LINE",
"234.405 77.988 LINE",
"84.405 43.324 LINE",
"84.405 0 LINE"
);
},
{
closed = 1;
nodes = (
"434.96 996.139 LINE",
"581.272 996.139 LINE SMOOTH",
"658.058 996.139 OFFCURVE",
"705.85 989.145 OFFCURVE",
"745.514 969.422 CURVE SMOOTH",
"839.803 928.023 OFFCURVE",
"894.884 829.613 OFFCURVE",
"894.884 684.329 CURVE SMOOTH",
"894.884 597.208 OFFCURVE",
"876.954 517.139 OFFCURVE",
"823.688 457.468 CURVE SMOOTH",
"772.422 398.931 OFFCURVE",
"693.087 365.526 OFFCURVE",
"551.139 365.526 CURVE SMOOTH",
"434.96 365.526 LINE"
);
}
);
width = 1177.31214;
}
);
leftKerningGroup = I;
unicode = 00DE;
},
{
glyphname = Q;
layers = (
{
layerId = "FA6D65B5-4623-4FAC-A199-3F662257AC29";
paths = (
{
closed = 1;
nodes = (
"524 -343 OFFCURVE",
"579 -290 OFFCURVE",
"579 -222 CURVE SMOOTH",
"579 -169 OFFCURVE",
"546 -153 OFFCURVE",
"546 -113 CURVE SMOOTH",
"546 -65 OFFCURVE",
"590 -39 OFFCURVE",
"649 -39 CURVE SMOOTH",
"873 -39 OFFCURVE",
"917 -341 OFFCURVE",
"1148 -341 CURVE SMOOTH",
"1276 -341 OFFCURVE",
"1410 -246 OFFCURVE",
"1487 -60 CURVE",
"1434 -25 LINE",
"1378 -81 OFFCURVE",
"1322 -100 OFFCURVE",
"1250 -100 CURVE SMOOTH",
"1119 -100 OFFCURVE",
"1017 -42 OFFCURVE",
"910 -9 CURVE",
"910 -2 LINE",
"1255 62 OFFCURVE",
"1450 341 OFFCURVE",
"1450 678 CURVE SMOOTH",
"1450 1060 OFFCURVE",
"1206 1373 OFFCURVE",
"764 1373 CURVE SMOOTH",
"324 1373 OFFCURVE",
"79 1060 OFFCURVE",
"79 678 CURVE SMOOTH",
"79 373 OFFCURVE",
"243 113 OFFCURVE",
"528 19 CURVE",
"528 12 LINE",
"405 -37 OFFCURVE",
"329 -113 OFFCURVE",
"329 -208 CURVE SMOOTH",
"329 -285 OFFCURVE",
"378 -343 OFFCURVE",
"452 -343 CURVE SMOOTH"
);
},
{
closed = 1;
nodes = (
"480 67 OFFCURVE",
"426 426 OFFCURVE",
"426 674 CURVE SMOOTH",
"426 919 OFFCURVE",
"479 1267 OFFCURVE",
"766 1267 CURVE SMOOTH",
"1052 1267 OFFCURVE",
"1104 919 OFFCURVE",
"1104 678 CURVE SMOOTH",
"1104 426 OFFCURVE",
"1049 67 OFFCURVE",
"764 67 CURVE SMOOTH"
);
}
);
width = 1529;
},
{
layerId = "E9E5A43B-81E4-4E67-9C96-907763DB0C14";
paths = (
{
closed = 1;
nodes = (
"504.925 -290.11 OFFCURVE",
"545.185 -250.983 OFFCURVE",
"545.185 -197.723 CURVE SMOOTH",
"545.185 -152.526 OFFCURVE",
"514.786 -142.595 OFFCURVE",
"514.786 -101.728 CURVE SMOOTH",
"514.786 -57.197 OFFCURVE",
"550.116 -23.393 OFFCURVE",
"623.855 -23.393 CURVE SMOOTH",
"833.116 -23.393 OFFCURVE",
"892.723 -295.913 OFFCURVE",
"1114.185 -295.913 CURVE SMOOTH",
"1236.116 -295.913 OFFCURVE",
"1357.977 -213.052 OFFCURVE",
"1430.642 -44.393 CURVE",
"1382.844 -25 LINE",
"1333.78 -87.069 OFFCURVE",
"1286.451 -115.607 OFFCURVE",
"1208.382 -115.607 CURVE SMOOTH",
"1064.376 -115.607 OFFCURVE",
"954.572 -25.526 OFFCURVE",
"836.301 3.139 CURVE",
"836.301 10.139 LINE",
"1166.561 42.058 OFFCURVE",
"1384.971 328.861 OFFCURVE",
"1384.971 678 CURVE SMOOTH",
"1384.971 1072.139 OFFCURVE",
"1114.092 1373 OFFCURVE",
"739.723 1373 CURVE SMOOTH",
"364.751 1373 OFFCURVE",
"94.607 1072.139 OFFCURVE",
"94.607 678 CURVE SMOOTH",
"94.607 359.127 OFFCURVE",
"276.815 93.058 OFFCURVE",
"552.277 28.538 CURVE",
"552.277 21.538 LINE",
"431.879 -24.861 OFFCURVE",
"358.48 -101.728 OFFCURVE",
"358.48 -188.058 CURVE SMOOTH",
"358.48 -248.584 OFFCURVE",
"395.341 -290.11 OFFCURVE",
"451.133 -290.11 CURVE SMOOTH"
);
},
{
closed = 1;
nodes = (
"475.665 62.665 OFFCURVE",
"333.225 311.549 OFFCURVE",
"333.225 678.335 CURVE SMOOTH",
"333.225 1045.59 OFFCURVE",
"475.532 1290.41 OFFCURVE",
"740.855 1290.41 CURVE SMOOTH",
"1005.179 1290.41 OFFCURVE",
"1146.486 1047.324 OFFCURVE",
"1146.486 680.601 CURVE SMOOTH",
"1146.486 311.549 OFFCURVE",
"1003.046 62.665 OFFCURVE",
"739.723 62.665 CURVE SMOOTH"
);
}
);
width = 1478.71098;
}
);
leftKerningGroup = O;
rightKerningGroup = O;
unicode = 0051;
},
{
glyphname = R;
layers = (
{
anchors = (
{
name = bottom;
position = "{767, 0}";
},
{
name = topcap;
position = "{638, 1461}";
}
);
layerId = "FA6D65B5-4623-4FAC-A199-3F662257AC29";
paths = (
{
closed = 1;
nodes = (
"727 0 LINE",
"727 65 LINE",
"526 104 LINE",
"526 590 LINE",
"598 590 LINE",
"952 0 LINE",
"1433 0 LINE",
"1433 65 LINE",
"1272 99 LINE",
"933 627 LINE",
"1089 683 OFFCURVE",
"1179 799 OFFCURVE",
"1179 970 CURVE SMOOTH",
"1179 1220 OFFCURVE",
"986 1355 OFFCURVE",
"709 1355 CURVE SMOOTH",
"74 1355 LINE",
"74 1290 LINE",
"224 1253 LINE",
"224 104 LINE",
"74 65 LINE",
"74 0 LINE"
);
},
{
closed = 1;
nodes = (
"526 1260 LINE",
"563 1260 LINE SMOOTH",
"635 1260 OFFCURVE",
"678 1253 OFFCURVE",
"718 1237 CURVE SMOOTH",
"808 1200 OFFCURVE",
"871 1114 OFFCURVE",
"871 987 CURVE SMOOTH",
"871 912 OFFCURVE",
"852 838 OFFCURVE",
"801 780 CURVE SMOOTH",
"752 722 OFFCURVE",
"679 685 OFFCURVE",
"551 685 CURVE SMOOTH",
"526 685 LINE"
);
}
);
width = 1369;
},
{
anchors = (
{
name = bottom;
position = "{706.306, 0}";
},
{
name = topcap;
position = "{646.671, 1461}";
}
);
layerId = "E9E5A43B-81E4-4E67-9C96-907763DB0C14";
paths = (
{
closed = 1;
nodes = (
"635.092 0 LINE",
"635.092 43.324 LINE",
"434.96 77.988 LINE",
"434.96 612.543 LINE",
"591.064 612.543 LINE",
"979.746 0 LINE",
"1374.908 0 LINE",
"1374.908 43.324 LINE",
"1179.225 77.324 LINE",
"809.012 635.671 LINE",
"991.89 681.266 OFFCURVE",
"1098.364 794.665 OFFCURVE",
"1098.364 970 CURVE SMOOTH",
"1098.364 1220 OFFCURVE",
"904.497 1355 OFFCURVE",
"628.364 1355 CURVE SMOOTH",
"84.405 1355 LINE",
"84.405 1311.676 LINE",
"234.405 1277.277 LINE",
"234.405 77.988 LINE",
"84.405 43.324 LINE",
"84.405 0 LINE"
);
},
{
closed = 1;
nodes = (
"434.96 1281.676 LINE",
"564.734 1281.676 LINE SMOOTH",
"636.734 1281.676 OFFCURVE",
"680.601 1276.41 OFFCURVE",
"721.468 1260.41 CURVE SMOOTH",
"821.873 1219.942 OFFCURVE",
"882.272 1127.873 OFFCURVE",
"882.272 987 CURVE SMOOTH",
"882.272 912 OFFCURVE",
"862.405 838 OFFCURVE",
"811.405 780 CURVE SMOOTH",
"758.936 722 OFFCURVE",
"682.468 685 OFFCURVE",
"537.127 685 CURVE SMOOTH",
"434.96 685 LINE"
);
}
);
width = 1300.50289;
}
);
leftKerningGroup = I;
rightKerningGroup = R;
unicode = 0052;
},
{
glyphname = S;
layers = (
{
anchors = (
{
name = bottom;
position = "{573, 0}";
},
{
name = topcap;
position = "{572, 1461}";
}
);
layerId = "FA6D65B5-4623-4FAC-A199-3F662257AC29";
paths = (
{
closed = 1;
nodes = (
"841 -16 OFFCURVE",
"1049 157 OFFCURVE",
"1049 384 CURVE SMOOTH",
"1049 869 OFFCURVE",
"391 836 OFFCURVE",
"391 1102 CURVE SMOOTH",
"391 1206 OFFCURVE",
"463 1269 OFFCURVE",
"584 1269 CURVE SMOOTH",
"755 1269 OFFCURVE",
"866 1167 OFFCURVE",
"924 968 CURVE",
"1001 968 LINE",
"984 1357 LINE",
"926 1357 LINE",
"884 1264 LINE",
"796 1338 OFFCURVE",
"695 1373 OFFCURVE",
"574 1373 CURVE SMOOTH",
"317 1373 OFFCURVE",
"123 1216 OFFCURVE",
"123 1001 CURVE SMOOTH",
"123 524 OFFCURVE",
"811 547 OFFCURVE",
"811 287 CURVE SMOOTH",
"811 162 OFFCURVE",
"716 86 OFFCURVE",
"567 86 CURVE SMOOTH",
"359 86 OFFCURVE",
"243 199 OFFCURVE",
"167 463 CURVE",
"93 451 LINE",
"128 0 LINE",
"183 0 LINE",
"245 72 LINE",
"363 11 OFFCURVE",
"461 -16 OFFCURVE",
"570 -16 CURVE SMOOTH"
);
}
);
width = 1139;
},
{
anchors = (
{
name = bottom;
position = "{538.318, 0}";
},
{
name = topcap;
position = "{545.988, 1461}";
}
);
layerId = "E9E5A43B-81E4-4E67-9C96-907763DB0C14";
paths = (
{
closed = 1;
nodes = (
"775.971 -16 OFFCURVE",
"962.295 157 OFFCURVE",
"962.295 382.266 CURVE SMOOTH",
"962.295 810.04 OFFCURVE",
"332.908 764.035 OFFCURVE",
"332.908 1096.798 CURVE SMOOTH",
"332.908 1219.006 OFFCURVE",
"414.445 1293.277 OFFCURVE",
"545.85 1293.277 CURVE SMOOTH",
"707.312 1293.277 OFFCURVE",
"811.376 1188.676 OFFCURVE",
"867.642 968 CURVE",
"917.763 968 LINE",
"901.63 1355.266 LINE",
"863.572 1355.266 LINE",
"808.566 1264 LINE",
"730.104 1338 OFFCURVE",
"644.711 1373 OFFCURVE",
"537.584 1373 CURVE SMOOTH",
"309.197 1373 OFFCURVE",
"136.873 1214.266 OFFCURVE",
"136.873 1001 CURVE SMOOTH",
"136.873 577.757 OFFCURVE",
"790.191 614.63 OFFCURVE",
"790.191 279.197 CURVE SMOOTH",
"790.191 145.526 OFFCURVE",
"689.988 63.457 OFFCURVE",
"529.717 63.457 CURVE SMOOTH",
"336.457 63.457 OFFCURVE",
"227.393 180.792 OFFCURVE",
"156.595 461.266 CURVE",
"108.607 451 LINE",
"141.006 0 LINE",
"178.665 0 LINE",
"247.601 72 LINE",
"349.994 11 OFFCURVE",
"438.457 -16 OFFCURVE",
"535.318 -16 CURVE SMOOTH"
);
}
);
width = 1065.30058;
}
);
leftKerningGroup = S;
rightKerningGroup = S;
unicode = 0053;
},
{
glyphname = Schwa;
layers = (
{
layerId = "FA6D65B5-4623-4FAC-A199-3F662257AC29";
paths = (
{
closed = 1;
nodes = (
"1033 -18 OFFCURVE",
"1313 269 OFFCURVE",
"1313 697 CURVE SMOOTH",
"1313 1102 OFFCURVE",
"1063 1375 OFFCURVE",
"695 1375 CURVE SMOOTH",
"435 1375 OFFCURVE",
"197 1239 OFFCURVE",
"120 1044 CURVE SMOOTH",
"106 1008 LINE",
"158 973 LINE",
"190 1012 LINE SMOOTH",
"278 1119 OFFCURVE",
"436 1190 OFFCURVE",
"593 1190 CURVE SMOOTH",
"845 1190 OFFCURVE",
"970 1005 OFFCURVE",
"970 634 CURVE SMOOTH",
"970 276 OFFCURVE",
"854 88 OFFCURVE",
"632 88 CURVE SMOOTH",
"475 88 OFFCURVE",
"389 185 OFFCURVE",
"389 361 CURVE SMOOTH",
"389 391 OFFCURVE",
"392 428 OFFCURVE",
"396 456 CURVE",
"1100 480 LINE",
"1100 570 LINE",
"77 570 LINE",
"58 554 LINE",
"63 187 OFFCURVE",
"260 -18 OFFCURVE",
"614 -18 CURVE SMOOTH"
);
}
);
width = 1394;
},
{
layerId = "E9E5A43B-81E4-4E67-9C96-907763DB0C14";
paths = (
{
closed = 1;
nodes = (
"999.185 -18 OFFCURVE",
"1267.046 272.468 OFFCURVE",
"1267.046 698.734 CURVE SMOOTH",
"1267.046 1102 OFFCURVE",
"1028.318 1375 OFFCURVE",
"675.058 1375 CURVE SMOOTH",
"425.462 1375 OFFCURVE",
"204.803 1242.468 OFFCURVE",
"124.335 1044 CURVE SMOOTH",
"110.335 1008 LINE",
"153.665 980.803 LINE",
"183.931 1019.803 LINE SMOOTH",
"284.069 1151.081 OFFCURVE",
"423.861 1220.347 OFFCURVE",
"593 1220.347 CURVE SMOOTH",
"877.081 1220.347 OFFCURVE",
"1028.96 1014.538 OFFCURVE",
"1028.96 634.867 CURVE SMOOTH",
"1028.96 267.329 OFFCURVE",
"886.081 65.457 OFFCURVE",
"622.462 65.457 CURVE SMOOTH",
"426.445 65.457 OFFCURVE",
"323.104 169.393 OFFCURVE",
"323.104 367.069 CURVE SMOOTH",
"323.104 415.277 OFFCURVE",
"329.572 450.543 OFFCURVE",
"330.104 474.208 CURVE",
"1063.584 499.075 LINE",
"1063.584 570 LINE",
"96.942 570 LINE",
"79.676 554 LINE",
"86.41 180.931 OFFCURVE",
"267.803 -18 OFFCURVE",
"603.595 -18 CURVE SMOOTH"
);
}
);
width = 1363.65318;
}
);
rightKerningGroup = O;
unicode = 018F;
},
{
glyphname = T;
layers = (
{
anchors = (
{
name = bottom;
position = "{685, -4}";
},
{
name = topcap;
position = "{685, 1461}";
}
);
layerId = "FA6D65B5-4623-4FAC-A199-3F662257AC29";
paths = (
{
closed = 1;
nodes = (
"1047 0 LINE",
"1047 65 LINE",
"838 104 LINE",
"838 1258 LINE",
"1125 1258 LINE",
"1200 1162 OFFCURVE",
"1246 1047 OFFCURVE",
"1281 950 CURVE",
"1350 950 LINE",
"1285 1355 LINE",
"84 1355 LINE",
"19 950 LINE",
"88 950 LINE",
"123 1047 OFFCURVE",
"174 1162 OFFCURVE",
"250 1258 CURVE",
"537 1258 LINE",
"537 104 LINE",
"326 65 LINE",
"326 0 LINE"
);
}
);
width = 1369;
},
{
anchors = (
{
name = bottom;
position = "{669.393, -4}";
},
{
name = topcap;
position = "{669.393, 1461}";
}
);
layerId = "E9E5A43B-81E4-4E67-9C96-907763DB0C14";
paths = (
{
closed = 1;
nodes = (
"962.896 0 LINE",
"962.896 43.324 LINE",
"769.503 77.988 LINE",
"769.503 1281.41 LINE",
"1109.393 1281.41 LINE",
"1185.26 1181.075 OFFCURVE",
"1235.595 1065.208 OFFCURVE",
"1270.595 965.607 CURVE",
"1316.185 965.607 LINE",
"1251.185 1355 LINE",
"81.399 1355 LINE",
"16.399 965.607 LINE",
"61.988 965.607 LINE",
"96.988 1065.208 OFFCURVE",
"147.988 1181.075 OFFCURVE",
"223.988 1281.41 CURVE",
"569.081 1281.41 LINE",
"569.081 77.988 LINE",
"372.821 43.324 LINE",
"372.821 0 LINE"
);
}
);
width = 1332.58382;
}
);
leftKerningGroup = T;
rightKerningGroup = T;
unicode = 0054;
},
{
glyphname = Tbar;
layers = (
{
components = (
{
name = T;
transform = "{1, 0, 0, 1, 2, 0}";
}
);
layerId = "FA6D65B5-4623-4FAC-A199-3F662257AC29";
paths = (
{
closed = 1;
nodes = (
"1121 646 LINE",
"1121 796 LINE",
"259 796 LINE",
"259 646 LINE"
);
}
);
width = 1373;
},
{
components = (
{
alignment = -1;
name = T;
transform = "{1, 0, 0, 1, 0.266, 0}";
}
);
layerId = "E9E5A43B-81E4-4E67-9C96-907763DB0C14";
paths = (
{
closed = 1;
nodes = (
"1050.769 661.607 LINE",
"1050.769 780.393 LINE",
"287.613 780.393 LINE",
"287.613 661.607 LINE"
);
}
);
width = 1333.11561;
}
);
leftKerningGroup = T;
rightKerningGroup = T;
unicode = 0166;
},
{
glyphname = U;
layers = (
{
anchors = (
{
name = bottom;
position = "{796, 0}";
},
{
name = topcap;
position = "{820, 1461}";
}
);
layerId = "FA6D65B5-4623-4FAC-A199-3F662257AC29";
paths = (
{
closed = 1;
nodes = (
"949 -18 OFFCURVE",
"1088 44 OFFCURVE",
"1169 169 CURVE SMOOTH",
"1221 252 OFFCURVE",
"1250 364 OFFCURVE",
"1250 498 CURVE SMOOTH",
"1250 1257 LINE",
"1406 1290 LINE",
"1406 1355 LINE",
"973 1355 LINE",
"973 1290 LINE",
"1128 1257 LINE",
"1128 598 LINE SMOOTH",
"1128 394 OFFCURVE",
"1105 278 OFFCURVE",
"1051 202 CURVE SMOOTH",
"998 130 OFFCURVE",
"915 92 OFFCURVE",
"808 92 CURVE SMOOTH",
"612 92 OFFCURVE",
"502 231 OFFCURVE",
"502 470 CURVE SMOOTH",
"502 1257 LINE",
"656 1290 LINE",
"656 1355 LINE",
"46 1355 LINE",
"46 1290 LINE",
"195 1257 LINE",
"195 470 LINE SMOOTH",
"195 324 OFFCURVE",
"216 239 OFFCURVE",
"271 171 CURVE SMOOTH",
"364 49 OFFCURVE",
"532 -18 OFFCURVE",
"744 -18 CURVE SMOOTH"
);
}
);
width = 1445;
},
{
anchors = (
{
name = bottom;
position = "{717.965, 0}";
},
{
name = topcap;
position = "{759.306, 1461}";
}
);
layerId = "E9E5A43B-81E4-4E67-9C96-907763DB0C14";
paths = (
{
closed = 1;
nodes = (
"879.636 -18 OFFCURVE",
"1018.636 40.532 OFFCURVE",
"1089.231 144.723 CURVE SMOOTH",
"1136.029 214.717 OFFCURVE",
"1158.092 313.711 OFFCURVE",
"1158.092 459.85 CURVE SMOOTH",
"1158.092 1277.809 LINE",
"1315.827 1311.676 LINE",
"1315.827 1355 LINE",
"924.445 1355 LINE",
"924.445 1311.676 LINE",
"1081.179 1277.809 LINE",
"1081.179 537.306 LINE SMOOTH",
"1081.179 348.046 OFFCURVE",
"1060.78 239.85 OFFCURVE",
"1012.85 175.121 CURVE SMOOTH",
"959.85 103.121 OFFCURVE",
"862.977 65.988 OFFCURVE",
"739.503 65.988 CURVE SMOOTH",
"540.902 65.988 OFFCURVE",
"414.428 183.312 OFFCURVE",
"414.428 409.306 CURVE SMOOTH",
"414.428 1277.809 LINE",
"571.029 1311.676 LINE",
"571.029 1355 LINE",
"56.405 1355 LINE",
"56.405 1311.676 LINE",
"213.208 1277.809 LINE",
"213.208 431.85 LINE SMOOTH",
"213.208 285.85 OFFCURVE",
"235.942 210.387 OFFCURVE",
"283.139 147.59 CURVE SMOOTH",
"363.133 42.931 OFFCURVE",
"512.925 -18 OFFCURVE",
"698.913 -18 CURVE SMOOTH"
);
}
);
width = 1373.03468;
}
);
leftKerningGroup = U;
rightKerningGroup = U;
unicode = 0055;
},
{
glyphname = V;
layers = (
{
layerId = "FA6D65B5-4623-4FAC-A199-3F662257AC29";
paths = (
{
closed = 1;
nodes = (
"736 -18 LINE",
"1170 1095 LINE SMOOTH",
"1227 1239 OFFCURVE",
"1258 1265 OFFCURVE",
"1417 1290 CURVE",
"1417 1355 LINE",
"873 1355 LINE",
"873 1290 LINE",
"1017 1271 OFFCURVE",
"1068 1241 OFFCURVE",
"1068 1177 CURVE SMOOTH",
"1068 1156 OFFCURVE",
"1063 1130 OFFCURVE",
"1051 1098 CURVE SMOOTH",
"801 447 LINE",
"790 447 LINE",
"528 1172 LINE SMOOTH",
"521 1192 OFFCURVE",
"517 1207 OFFCURVE",
"517 1221 CURVE SMOOTH",
"517 1265 OFFCURVE",
"560 1281 OFFCURVE",
"690 1290 CURVE",
"690 1355 LINE",
"-35 1355 LINE",
"-35 1290 LINE",
"90 1281 OFFCURVE",
"121 1262 OFFCURVE",
"155 1183 CURVE SMOOTH",
"651 -18 LINE"
);
}
);
width = 1375;
},
{
layerId = "E9E5A43B-81E4-4E67-9C96-907763DB0C14";
paths = (
{
closed = 1;
nodes = (
"665.769 -18 LINE",
"1072.89 1115.809 LINE SMOOTH",
"1118.618 1243.335 OFFCURVE",
"1143.549 1284.075 OFFCURVE",
"1326.827 1311.676 CURVE",
"1326.827 1355 LINE",
"825.312 1355 LINE",
"825.312 1311.676 LINE",
"960.642 1293.543 OFFCURVE",
"1007.306 1261.809 OFFCURVE",
"1007.306 1202.145 CURVE SMOOTH",
"1007.306 1179.41 OFFCURVE",
"1000.572 1151.676 OFFCURVE",
"989.439 1119.676 CURVE SMOOTH",
"715.162 338.618 LINE",
"705.896 338.618 LINE",
"413.549 1178.069 LINE SMOOTH",
"403.081 1208.474 OFFCURVE",
"392.145 1238.214 OFFCURVE",
"392.145 1254.815 CURVE SMOOTH",
"392.145 1294.48 OFFCURVE",
"421.272 1302.676 OFFCURVE",
"575.549 1311.676 CURVE",
"575.549 1355 LINE",
"-16.792 1355 LINE",
"-16.792 1311.676 LINE",
"106.474 1302.676 OFFCURVE",
"134.006 1284.543 OFFCURVE",
"163.671 1203.809 CURVE SMOOTH",
"628.457 -18 LINE"
);
}
);
width = 1283.09249;
}
);
unicode = 0056;
},
{
glyphname = W;
layers = (
{
anchors = (
{
name = topcap;
position = "{1117, 1461}";
}
);
layerId = "FA6D65B5-4623-4FAC-A199-3F662257AC29";
paths = (
{
closed = 1;
nodes = (
"716 -18 LINE",
"1065 875 LINE",
"1415 -18 LINE",
"1500 -18 LINE",
"1934 1095 LINE SMOOTH",
"1989 1237 OFFCURVE",
"2028 1267 OFFCURVE",
"2181 1290 CURVE",
"2181 1355 LINE",
"1637 1355 LINE",
"1637 1290 LINE",
"1783 1272 OFFCURVE",
"1834 1241 OFFCURVE",
"1834 1181 CURVE SMOOTH",
"1834 1158 OFFCURVE",
"1825 1126 OFFCURVE",
"1815 1098 CURVE SMOOTH",
"1565 447 LINE",
"1554 447 LINE",
"1318 1172 LINE SMOOTH",
"1311 1192 OFFCURVE",
"1308 1209 OFFCURVE",
"1308 1223 CURVE SMOOTH",
"1308 1269 OFFCURVE",
"1352 1283 OFFCURVE",
"1480 1290 CURVE",
"1480 1355 LINE",
"755 1355 LINE",
"755 1290 LINE",
"880 1281 OFFCURVE",
"913 1262 OFFCURVE",
"945 1183 CURVE SMOOTH",
"1005 1030 LINE",
"781 447 LINE",
"771 447 LINE",
"535 1172 LINE SMOOTH",
"528 1192 OFFCURVE",
"524 1209 OFFCURVE",
"524 1223 CURVE SMOOTH",
"524 1265 OFFCURVE",
"547 1281 OFFCURVE",
"697 1290 CURVE",
"697 1355 LINE",
"-28 1355 LINE",
"-28 1290 LINE",
"97 1281 OFFCURVE",
"130 1262 OFFCURVE",
"162 1183 CURVE SMOOTH",
"632 -18 LINE"
);
}
);
width = 2133;
},
{
anchors = (
{
name = topcap;
position = "{977.405, 1461}";
}
);
layerId = "E9E5A43B-81E4-4E67-9C96-907763DB0C14";
paths = (
{
closed = 1;
nodes = (
"663.977 -18 LINE",
"965.289 899.277 LINE",
"1310.954 -18 LINE",
"1357.803 -18 LINE",
"1729.376 1115.809 LINE SMOOTH",
"1772.237 1244.803 OFFCURVE",
"1801.699 1284.341 OFFCURVE",
"1984.179 1311.676 CURVE",
"1984.179 1355 LINE",
"1482.665 1355 LINE",
"1482.665 1311.676 LINE",
"1619.994 1291.942 OFFCURVE",
"1663.191 1263.543 OFFCURVE",
"1663.191 1203.543 CURVE SMOOTH",
"1663.191 1177.942 OFFCURVE",
"1657.659 1152.012 OFFCURVE",
"1646.792 1119.676 CURVE SMOOTH",
"1398.526 338.618 LINE",
"1389.26 338.618 LINE",
"1100.37 1178.069 LINE SMOOTH",
"1088.168 1210.208 OFFCURVE",
"1081.699 1233.277 OFFCURVE",
"1081.699 1252.48 CURVE SMOOTH",
"1081.699 1288.942 OFFCURVE",
"1098.821 1301.208 OFFCURVE",
"1261.503 1311.676 CURVE",
"1261.503 1355 LINE",
"669.162 1355 LINE",
"669.162 1311.676 LINE",
"793.295 1302.676 OFFCURVE",
"820.225 1284.543 OFFCURVE",
"850.491 1203.809 CURVE SMOOTH",
"920.896 1016.127 LINE",
"704.699 338.618 LINE",
"696.434 338.618 LINE",
"406.676 1178.069 LINE SMOOTH",
"391.006 1223.214 OFFCURVE",
"385.272 1239.347 OFFCURVE",
"385.272 1256.815 CURVE SMOOTH",
"385.272 1290.145 OFFCURVE",
"405.671 1299.208 OFFCURVE",
"568.676 1311.676 CURVE",
"568.676 1355 LINE",
"-23.665 1355 LINE",
"-23.665 1311.676 LINE",
"99.601 1302.676 OFFCURVE",
"127.399 1284.543 OFFCURVE",
"157.665 1203.809 CURVE SMOOTH",
"618.127 -18 LINE"
);
}
);
width = 1946.58382;
}
);
leftKerningGroup = W;
rightKerningGroup = W;
unicode = 0057;
},
{
glyphname = X;
layers = (
{
layerId = "FA6D65B5-4623-4FAC-A199-3F662257AC29";
paths = (
{
closed = 1;
nodes = (
"505 0 LINE",
"505 65 LINE",
"403 76 OFFCURVE",
"357 93 OFFCURVE",
"357 123 CURVE SMOOTH",
"357 139 OFFCURVE",
"366 164 OFFCURVE",
"387 192 CURVE SMOOTH",
"658 558 LINE",
"926 160 LINE SMOOTH",
"947 128 OFFCURVE",
"954 111 OFFCURVE",
"954 100 CURVE SMOOTH",
"954 81 OFFCURVE",
"920 74 OFFCURVE",
"781 65 CURVE",
"781 0 LINE",
"1512 0 LINE",
"1512 65 LINE",
"1403 74 OFFCURVE",
"1357 88 OFFCURVE",
"1322 141 CURVE SMOOTH",
"894 780 LINE",
"1186 1169 LINE SMOOTH",
"1241 1241 OFFCURVE",
"1276 1264 OFFCURVE",
"1427 1290 CURVE",
"1427 1355 LINE",
"933 1355 LINE",
"933 1290 LINE",
"1037 1280 OFFCURVE",
"1081 1258 OFFCURVE",
"1081 1227 CURVE SMOOTH",
"1081 1207 OFFCURVE",
"1070 1188 OFFCURVE",
"1052 1163 CURVE SMOOTH",
"834 869 LINE",
"618 1195 LINE SMOOTH",
"600 1223 OFFCURVE",
"595 1237 OFFCURVE",
"595 1253 CURVE SMOOTH",
"595 1276 OFFCURVE",
"625 1285 OFFCURVE",
"752 1290 CURVE",
"752 1355 LINE",
"18 1355 LINE",
"18 1290 LINE",
"162 1272 OFFCURVE",
"188 1260 OFFCURVE",
"220 1214 CURVE SMOOTH",
"597 651 LINE",
"253 190 LINE SMOOTH",
"199 116 OFFCURVE",
"139 84 OFFCURVE",
"-12 65 CURVE",
"-12 0 LINE"
);
}
);
width = 1478;
},
{
layerId = "E9E5A43B-81E4-4E67-9C96-907763DB0C14";
paths = (
{
closed = 1;
nodes = (
"465.116 0 LINE",
"465.116 38.988 LINE",
"363.116 49.988 OFFCURVE",
"317.983 66.988 OFFCURVE",
"317.983 96.988 CURVE SMOOTH",
"317.983 112.988 OFFCURVE",
"326.116 137.988 OFFCURVE",
"347.116 165.988 CURVE SMOOTH",
"664.069 591.815 LINE",
"964.15 137.457 LINE SMOOTH",
"985.15 105.457 OFFCURVE",
"992.15 89.324 OFFCURVE",
"992.15 77.457 CURVE SMOOTH",
"992.15 58.457 OFFCURVE",
"965.087 51.457 OFFCURVE",
"850.364 42.457 CURVE",
"850.364 0 LINE",
"1405.353 0 LINE",
"1405.353 42.457 LINE",
"1296.353 51.457 OFFCURVE",
"1250.353 65.457 OFFCURVE",
"1215.353 117.59 CURVE SMOOTH",
"802.092 746.185 LINE",
"1133.11 1189.809 LINE",
"1198.514 1267.879 OFFCURVE",
"1243.919 1288.277 OFFCURVE",
"1374.11 1311.676 CURVE",
"1374.11 1355 LINE",
"929.532 1355 LINE",
"929.532 1311.676 LINE",
"1023.127 1300.809 OFFCURVE",
"1062.792 1279.676 OFFCURVE",
"1062.792 1247.809 CURVE SMOOTH",
"1062.792 1228.676 OFFCURVE",
"1051.792 1209.676 OFFCURVE",
"1033.792 1184.676 CURVE SMOOTH",
"759.434 811.775 LINE",
"494.012 1216.676 LINE SMOOTH",
"476.879 1244.676 OFFCURVE",
"471.012 1260.41 OFFCURVE",
"471.012 1276.41 CURVE SMOOTH",
"471.012 1295.942 OFFCURVE",
"490.607 1305.809 OFFCURVE",
"597.665 1311.676 CURVE",
"597.665 1355 LINE",
"38.809 1355 LINE",
"38.809 1311.676 LINE",
"178.474 1295.41 OFFCURVE",
"211.41 1281.676 OFFCURVE",
"241.676 1235.676 CURVE SMOOTH",
"617.809 662.272 LINE",
"248.665 163.988 LINE SMOOTH",
"189.462 83.919 OFFCURVE",
"120.792 57.121 OFFCURVE",
"-17.202 38.988 CURVE",
"-17.202 0 LINE"
);
}
);
width = 1397.36416;
}
);
unicode = 0058;
},
{
glyphname = Y;
layers = (
{
anchors = (
{
name = topcap;
position = "{752, 1461}";
}
);
layerId = "FA6D65B5-4623-4FAC-A199-3F662257AC29";
paths = (
{
closed = 1;
nodes = (
"957 0 LINE",
"957 65 LINE",
"810 102 LINE",
"810 588 LINE",
"1082 1095 LINE SMOOTH",
"1174 1264 OFFCURVE",
"1192 1278 OFFCURVE",
"1338 1290 CURVE",
"1338 1355 LINE",
"806 1355 LINE",
"806 1290 LINE",
"950 1287 OFFCURVE",
"1001 1260 OFFCURVE",
"1001 1204 CURVE SMOOTH",
"1001 1179 OFFCURVE",
"991 1142 OFFCURVE",
"968 1098 CURVE SMOOTH",
"766 713 LINE",
"759 713 LINE",
"533 1155 LINE SMOOTH",
"523 1174 OFFCURVE",
"517 1190 OFFCURVE",
"517 1206 CURVE SMOOTH",
"517 1248 OFFCURVE",
"553 1280 OFFCURVE",
"695 1290 CURVE",
"695 1355 LINE",
"-32 1355 LINE",
"-32 1290 LINE",
"92 1281 OFFCURVE",
"121 1271 OFFCURVE",
"171 1183 CURVE SMOOTH",
"507 590 LINE",
"507 102 LINE",
"357 65 LINE",
"357 0 LINE"
);
}
);
width = 1311;
},
{
anchors = (
{
name = topcap;
position = "{708.647, 1461}";
}
);
layerId = "E9E5A43B-81E4-4E67-9C96-907763DB0C14";
paths = (
{
closed = 1;
nodes = (
"880.699 0 LINE",
"880.699 43.324 LINE",
"725.896 77.723 LINE",
"725.896 549.85 LINE",
"1030.844 1115.809 LINE SMOOTH",
"1097.699 1239.723 OFFCURVE",
"1104.428 1285.803 OFFCURVE",
"1285.977 1311.676 CURVE",
"1285.977 1355 LINE",
"784.324 1355 LINE",
"784.324 1311.676 LINE",
"909.249 1303.474 OFFCURVE",
"968.919 1263.468 OFFCURVE",
"968.919 1199.665 CURVE SMOOTH",
"968.919 1176.399 OFFCURVE",
"961.52 1149.803 OFFCURVE",
"946.324 1119.676 CURVE SMOOTH",
"707.908 667.046 LINE",
"700.908 667.046 LINE",
"418.549 1175.809 LINE SMOOTH",
"405.081 1201.746 OFFCURVE",
"396.48 1224.682 OFFCURVE",
"396.48 1244.15 CURVE SMOOTH",
"396.48 1280.081 OFFCURVE",
"429.012 1302.543 OFFCURVE",
"580.549 1311.676 CURVE",
"580.549 1355 LINE",
"-16.393 1355 LINE",
"-16.393 1311.676 LINE",
"106.74 1302.676 OFFCURVE",
"127.069 1279.671 OFFCURVE",
"171 1203.809 CURVE SMOOTH",
"525.208 577.861 LINE",
"525.208 77.723 LINE",
"368.272 43.324 LINE",
"368.272 0 LINE"
);
}
);
width = 1256.37572;
}
);
leftKerningGroup = Y;
rightKerningGroup = Y;
unicode = 0059;
},
{
glyphname = Z;
layers = (
{
anchors = (
{
name = bottom;
position = "{560, 0}";
},
{
name = topcap;
position = "{683, 1461}";
}
);
layerId = "FA6D65B5-4623-4FAC-A199-3F662257AC29";
paths = (
{
closed = 1;
nodes = (
"1119 0 LINE",
"1230 461 LINE",
"1156 461 LINE",
"1125 382 OFFCURVE",
"1068 253 OFFCURVE",
"986 128 CURVE SMOOTH",
"964 97 LINE",
"456 97 LINE",
"1195 1290 LINE",
"1195 1355 LINE",
"174 1355 LINE",
"84 952 LINE",
"157 952 LINE",
"174 1005 OFFCURVE",
"213 1095 OFFCURVE",
"282 1220 CURVE SMOOTH",
"303 1258 LINE",
"783 1258 LINE",
"48 67 LINE",
"48 0 LINE"
);
}
);
width = 1285;
},
{
anchors = (
{
name = bottom;
position = "{560, 0}";
},
{
name = topcap;
position = "{635.312, 1461}";
}
);
layerId = "E9E5A43B-81E4-4E67-9C96-907763DB0C14";
paths = (
{
closed = 1;
nodes = (
"1034.029 0 LINE",
"1127.688 433.254 LINE",
"1078.832 438.457 LINE",
"1046.965 359.457 OFFCURVE",
"990.832 230.457 OFFCURVE",
"907.965 105.457 CURVE SMOOTH",
"886.832 73.59 LINE",
"309.468 73.59 LINE",
"1109.162 1305.607 LINE",
"1109.162 1355 LINE",
"180.069 1355 LINE",
"103.942 969.341 LINE",
"153.532 967.607 LINE",
"171.399 1020.607 OFFCURVE",
"211.266 1117.543 OFFCURVE",
"280.266 1242.543 CURVE SMOOTH",
"301.266 1281.41 LINE",
"850.63 1281.41 LINE",
"54.069 51.393 LINE",
"54.069 0 LINE"
);
}
);
width = 1202.63006;
}
);
leftKerningGroup = Z;
rightKerningGroup = Z;
unicode = 005A;
},
{
glyphname = a;
layers = (
{
anchors = (
{
name = bottom;
position = "{711, 0}";
},
{
name = top;
position = "{454, 1146}";
}
);
layerId = "FA6D65B5-4623-4FAC-A199-3F662257AC29";
paths = (
{
closed = 1;
nodes = (
"407 -18 OFFCURVE",
"500 26 OFFCURVE",
"588 121 CURVE",
"595 121 LINE",
"612 28 OFFCURVE",
"669 -18 OFFCURVE",
"783 -18 CURVE SMOOTH",
"884 -18 OFFCURVE",
"964 19 OFFCURVE",
"1040 100 CURVE",
"1000 158 LINE",
"975 130 OFFCURVE",
"949 116 OFFCURVE",
"922 116 CURVE SMOOTH",
"875 116 OFFCURVE",
"855 160 OFFCURVE",
"855 264 CURVE SMOOTH",
"855 627 LINE SMOOTH",
"855 757 OFFCURVE",
"843 818 OFFCURVE",
"815 862 CURVE SMOOTH",
"776 920 OFFCURVE",
"700 950 OFFCURVE",
"574 950 CURVE SMOOTH",
"447 950 OFFCURVE",
"331 920 OFFCURVE",
"241 862 CURVE SMOOTH",
"153 804 OFFCURVE",
"102 727 OFFCURVE",
"102 653 CURVE SMOOTH",
"102 583 OFFCURVE",
"150 533 OFFCURVE",
"218 533 CURVE SMOOTH",
"287 533 OFFCURVE",
"340 584 OFFCURVE",
"340 651 CURVE SMOOTH",
"340 676 OFFCURVE",
"333 702 OFFCURVE",
"333 729 CURVE SMOOTH",
"333 803 OFFCURVE",
"387 848 OFFCURVE",
"475 848 CURVE SMOOTH",
"560 848 OFFCURVE",
"583 806 OFFCURVE",
"583 646 CURVE SMOOTH",
"583 517 LINE",
"227 468 OFFCURVE",
"67 366 OFFCURVE",
"67 190 CURVE SMOOTH",
"67 60 OFFCURVE",
"155 -18 OFFCURVE",
"299 -18 CURVE SMOOTH"
);
},
{
closed = 1;
nodes = (
"392 148 OFFCURVE",
"361 185 OFFCURVE",
"361 262 CURVE SMOOTH",
"361 361 OFFCURVE",
"412 401 OFFCURVE",
"583 435 CURVE",
"583 199 LINE",
"551 165 OFFCURVE",
"509 148 OFFCURVE",
"461 148 CURVE SMOOTH"
);
}
);
width = 1030;
},
{
anchors = (
{
name = bottom;
position = "{720.538, 0}";
},
{
name = top;
position = "{463.538, 1146}";
}
);
layerId = "E9E5A43B-81E4-4E67-9C96-907763DB0C14";
paths = (
{
closed = 1;
nodes = (
"400.931 -18 OFFCURVE",
"502.601 41.607 OFFCURVE",
"574.127 140.942 CURVE",
"579.393 138.341 LINE",
"592.925 32.335 OFFCURVE",
"644.723 -18 OFFCURVE",
"740.514 -18 CURVE SMOOTH",
"819.838 -18 OFFCURVE",
"875.561 16.399 OFFCURVE",
"933.353 100 CURVE",
"902.023 131.121 LINE",
"872.688 95.318 OFFCURVE",
"849.289 81.318 OFFCURVE",
"817.087 81.318 CURVE SMOOTH",
"766.618 81.318 OFFCURVE",
"751.821 114.046 OFFCURVE",
"751.821 229.318 CURVE SMOOTH",
"751.821 627 LINE SMOOTH",
"751.821 771.74 OFFCURVE",
"746.757 817.133 OFFCURVE",
"726.561 857.665 CURVE SMOOTH",
"695.364 917.399 OFFCURVE",
"621.098 950 OFFCURVE",
"517.642 950 CURVE SMOOTH",
"434.861 950 OFFCURVE",
"350.942 929.538 OFFCURVE",
"279.15 891.48 CURVE SMOOTH",
"168.607 833.48 OFFCURVE",
"95.931 745.208 OFFCURVE",
"95.931 668.607 CURVE SMOOTH",
"95.931 615.081 OFFCURVE",
"130.925 578.954 OFFCURVE",
"181.584 578.954 CURVE SMOOTH",
"236.711 578.954 OFFCURVE",
"277.572 622.15 OFFCURVE",
"277.572 683.081 CURVE SMOOTH",
"277.572 703.746 OFFCURVE",
"273.173 726.277 OFFCURVE",
"273.173 747.208 CURVE SMOOTH",
"273.173 828.145 OFFCURVE",
"334.977 879.214 OFFCURVE",
"434.249 879.214 CURVE SMOOTH",
"533.988 879.214 OFFCURVE",
"569.994 825.942 OFFCURVE",
"569.994 676.347 CURVE SMOOTH",
"569.994 510.064 LINE",
"216.595 437.653 OFFCURVE",
"83.474 352.127 OFFCURVE",
"83.474 196.069 CURVE SMOOTH",
"83.474 68.671 OFFCURVE",
"169.74 -18 OFFCURVE",
"297.266 -18 CURVE SMOOTH"
);
},
{
closed = 1;
nodes = (
"303.561 94.243 OFFCURVE",
"258.688 145.116 OFFCURVE",
"258.688 237.723 CURVE SMOOTH",
"258.688 356.665 OFFCURVE",
"332.231 407.069 OFFCURVE",
"569.994 454.942 CURVE",
"569.994 203.335 LINE",
"526.723 134.653 OFFCURVE",
"458.711 94.243 OFFCURVE",
"386.434 94.243 CURVE SMOOTH"
);
}
);
width = 938.09249;
}
);
leftKerningGroup = a;
rightKerningGroup = a;
unicode = 0061;
userData = {
com.typemytype.robofont.guides = (
{
angle = 359.5;
isGlobal = 0;
magnetic = 5;
x = 0;
y = 84;
}
);
};
},
{
glyphname = ae;
layers = (
{
layerId = "FA6D65B5-4623-4FAC-A199-3F662257AC29";
paths = (
{
closed = 1;
nodes = (
"433 -18 OFFCURVE",
"537 35 OFFCURVE",
"664 162 CURVE",
"671 162 LINE",
"755 46 OFFCURVE",
"894 -18 OFFCURVE",
"1061 -18 CURVE SMOOTH",
"1262 -18 OFFCURVE",
"1424 76 OFFCURVE",
"1489 231 CURVE SMOOTH",
"1498 252 LINE",
"1448 294 LINE",
"1436 280 LINE SMOOTH",
"1373 208 OFFCURVE",
"1264 164 OFFCURVE",
"1149 164 CURVE SMOOTH",
"966 164 OFFCURVE",
"875 278 OFFCURVE",
"873 510 CURVE",
"1514 510 LINE",
"1528 521 LINE",
"1519 804 OFFCURVE",
"1375 950 OFFCURVE",
"1109 950 CURVE SMOOTH",
"993 950 OFFCURVE",
"891 924 OFFCURVE",
"806 871 CURVE",
"755 928 OFFCURVE",
"688 950 OFFCURVE",
"576 950 CURVE SMOOTH",
"444 950 OFFCURVE",
"327 919 OFFCURVE",
"241 862 CURVE SMOOTH",
"155 804 OFFCURVE",
"102 723 OFFCURVE",
"102 651 CURVE SMOOTH",
"102 583 OFFCURVE",
"150 533 OFFCURVE",
"218 533 CURVE SMOOTH",
"287 533 OFFCURVE",
"340 584 OFFCURVE",
"340 651 CURVE SMOOTH",
"340 676 OFFCURVE",
"333 702 OFFCURVE",
"333 729 CURVE SMOOTH",
"333 803 OFFCURVE",
"387 848 OFFCURVE",
"475 848 CURVE SMOOTH",
"560 848 OFFCURVE",
"583 806 OFFCURVE",
"583 646 CURVE SMOOTH",
"583 517 LINE",
"225 468 OFFCURVE",
"67 366 OFFCURVE",
"67 188 CURVE SMOOTH",
"67 58 OFFCURVE",
"153 -18 OFFCURVE",
"306 -18 CURVE SMOOTH"
);
},
{
closed = 1;
nodes = (
"401 148 OFFCURVE",
"361 188 OFFCURVE",
"361 257 CURVE SMOOTH",
"361 348 OFFCURVE",
"429 405 OFFCURVE",
"581 435 CURVE",
"583 363 OFFCURVE",
"598 290 OFFCURVE",
"628 229 CURVE",
"572 174 OFFCURVE",
"519 148 OFFCURVE",
"466 148 CURVE SMOOTH"
);
},
{
closed = 1;
nodes = (
"891 766 OFFCURVE",
"966 861 OFFCURVE",
"1088 861 CURVE SMOOTH",
"1188 861 OFFCURVE",
"1243 796 OFFCURVE",
"1243 678 CURVE SMOOTH",
"1243 651 OFFCURVE",
"1239 625 OFFCURVE",
"1236 607 CURVE",
"876 593 LINE"
);
}
);
width = 1580;
},
{
layerId = "E9E5A43B-81E4-4E67-9C96-907763DB0C14";
paths = (
{
closed = 1;
nodes = (
"411.324 -18 OFFCURVE",
"538.734 56.676 OFFCURVE",
"628.451 186.277 CURVE",
"635.451 186.277 LINE",
"707.312 58.139 OFFCURVE",
"837.642 -18 OFFCURVE",
"1000.306 -18 CURVE SMOOTH",
"1176.162 -18 OFFCURVE",
"1323.422 70.798 OFFCURVE",
"1384.954 215.393 CURVE SMOOTH",
"1395.688 239.861 LINE",
"1363.029 260.185 LINE",
"1343.225 235.78 LINE SMOOTH",
"1282.827 162.046 OFFCURVE",
"1175.561 118.046 OFFCURVE",
"1060.561 118.046 CURVE SMOOTH",
"855.017 118.046 OFFCURVE",
"761.416 249.387 OFFCURVE",
"761.15 537.746 CURVE",
"1403.884 537.746 LINE",
"1416.15 548.746 LINE",
"1410.618 811.803 OFFCURVE",
"1283.092 950 OFFCURVE",
"1047.439 950 CURVE SMOOTH",
"921.035 950 OFFCURVE",
"814.699 910.127 OFFCURVE",
"733.168 838.919 CURVE",
"700.376 918.462 OFFCURVE",
"619.503 950 OFFCURVE",
"517.908 950 CURVE SMOOTH",
"434.462 950 OFFCURVE",
"350.41 929.405 OFFCURVE",
"279.15 891.48 CURVE SMOOTH",
"168.873 833.48 OFFCURVE",
"95.931 744.676 OFFCURVE",
"95.931 668.341 CURVE SMOOTH",
"95.931 615.081 OFFCURVE",
"130.925 578.954 OFFCURVE",
"181.584 578.954 CURVE SMOOTH",
"236.711 578.954 OFFCURVE",
"277.572 622.15 OFFCURVE",
"277.572 683.081 CURVE SMOOTH",
"277.572 703.746 OFFCURVE",
"273.173 726.277 OFFCURVE",
"273.173 747.208 CURVE SMOOTH",
"273.173 828.145 OFFCURVE",
"334.977 879.214 OFFCURVE",
"434.249 879.214 CURVE SMOOTH",
"533.988 879.214 OFFCURVE",
"569.994 825.942 OFFCURVE",
"569.994 676.347 CURVE SMOOTH",
"569.994 510.064 LINE",
"214.595 437.653 OFFCURVE",
"83.474 352.127 OFFCURVE",
"83.474 194.069 CURVE SMOOTH",
"83.474 68.405 OFFCURVE",
"171.208 -18 OFFCURVE",
"299.931 -18 CURVE SMOOTH"
);
},
{
closed = 1;
nodes = (
"304.757 94.243 OFFCURVE",
"258.688 147.249 OFFCURVE",
"258.688 237.058 CURVE SMOOTH",
"258.688 354.936 OFFCURVE",
"334.491 407.601 OFFCURVE",
"569.728 454.942 CURVE",
"569.994 373.405 OFFCURVE",
"583.26 302.139 OFFCURVE",
"608.058 241.139 CURVE",
"550.324 153.191 OFFCURVE",
"462.642 94.243 OFFCURVE",
"385.364 94.243 CURVE SMOOTH"
);
},
{
closed = 1;
nodes = (
"786.954 784.208 OFFCURVE",
"881.029 891.347 OFFCURVE",
"1031.642 891.347 CURVE SMOOTH",
"1154.185 891.347 OFFCURVE",
"1217.855 818.543 OFFCURVE",
"1217.855 678 CURVE SMOOTH",
"1217.855 649.266 OFFCURVE",
"1216.457 620.665 OFFCURVE",
"1212.59 607 CURVE",
"765.017 591.266 LINE"
);
}
);
width = 1485.49133;
}
);
leftKerningGroup = a;
rightKerningGroup = e;
unicode = 00E6;
userData = {
com.typemytype.robofont.guides = (
{
angle = 90;
isGlobal = 0;
magnetic = 5;
x = -118;
y = 0;
}
);
};
},
{
glyphname = b;
layers = (
{
layerId = "FA6D65B5-4623-4FAC-A199-3F662257AC29";
paths = (
{
closed = 1;
nodes = (
"885 -18 OFFCURVE",
"1093 208 OFFCURVE",
"1093 505 CURVE SMOOTH",
"1093 769 OFFCURVE",
"935 950 OFFCURVE",
"704 950 CURVE SMOOTH",
"591 950 OFFCURVE",
"491 903 OFFCURVE",
"412 825 CURVE",
"412 1461 LINE",
"373 1461 LINE",
"-9 1375 LINE",
"-9 1334 LINE",
"139 1287 LINE",
"139 0 LINE",
"190 0 LINE",
"341 63 LINE",
"352 63 LINE",
"428 11 OFFCURVE",
"521 -18 OFFCURVE",
"616 -18 CURVE SMOOTH"
);
},
{
closed = 1;
nodes = (
"479 77 OFFCURVE",
"412 165 OFFCURVE",
"412 299 CURVE SMOOTH",
"412 711 LINE",
"454 774 OFFCURVE",
"512 813 OFFCURVE",
"583 813 CURVE SMOOTH",
"718 813 OFFCURVE",
"796 679 OFFCURVE",
"796 456 CURVE SMOOTH",
"796 229 OFFCURVE",
"711 77 OFFCURVE",
"581 77 CURVE SMOOTH"
);
}
);
width = 1158;
},
{
layerId = "E9E5A43B-81E4-4E67-9C96-907763DB0C14";
paths = (
{
closed = 1;
nodes = (
"792.225 -18 OFFCURVE",
"994.156 208 OFFCURVE",
"994.156 505 CURVE SMOOTH",
"994.156 769 OFFCURVE",
"835.289 950 OFFCURVE",
"605.156 950 CURVE SMOOTH",
"499.96 950 OFFCURVE",
"408.63 909.069 OFFCURVE",
"333.965 830.202 CURVE",
"333.965 1461 LINE",
"313.173 1461 LINE",
"20.48 1375 LINE",
"20.48 1349.607 LINE",
"151.139 1301.74 LINE",
"151.139 0 LINE",
"182.197 0 LINE",
"272.503 63 LINE",
"281.769 63 LINE",
"352.566 11 OFFCURVE",
"438.63 -18 OFFCURVE",
"527.561 -18 CURVE SMOOTH"
);
},
{
closed = 1;
nodes = (
"408.769 46.653 OFFCURVE",
"333.965 134.653 OFFCURVE",
"333.965 268.653 CURVE SMOOTH",
"333.965 756.954 LINE",
"379.434 813.884 OFFCURVE",
"446.104 849.416 OFFCURVE",
"524.908 849.416 CURVE SMOOTH",
"690.254 849.416 OFFCURVE",
"790.798 700.676 OFFCURVE",
"790.798 456 CURVE SMOOTH",
"790.798 210.792 OFFCURVE",
"684.988 46.653 OFFCURVE",
"522.908 46.653 CURVE SMOOTH"
);
}
);
width = 1073.0289;
}
);
leftKerningGroup = b;
rightKerningGroup = b;
unicode = 0062;
},
{
glyphname = c;
layers = (
{
anchors = (
{
name = bottom;
position = "{552, 0}";
},
{
name = top;
position = "{572, 1146}";
}
);
layerId = "FA6D65B5-4623-4FAC-A199-3F662257AC29";
paths = (
{
closed = 1;
nodes = (
"727 -18 OFFCURVE",
"864 65 OFFCURVE",
"935 234 CURVE SMOOTH",
"943 255 LINE",
"894 294 LINE",
"882 280 LINE SMOOTH",
"817 204 OFFCURVE",
"727 164 OFFCURVE",
"621 164 CURVE SMOOTH",
"447 164 OFFCURVE",
"359 283 OFFCURVE",
"359 509 CURVE SMOOTH",
"359 732 OFFCURVE",
"445 859 OFFCURVE",
"593 859 CURVE SMOOTH",
"688 859 OFFCURVE",
"711 796 OFFCURVE",
"722 713 CURVE SMOOTH",
"729 660 OFFCURVE",
"750 598 OFFCURVE",
"838 598 CURVE SMOOTH",
"910 598 OFFCURVE",
"956 644 OFFCURVE",
"956 716 CURVE SMOOTH",
"956 850 OFFCURVE",
"797 950 OFFCURVE",
"584 950 CURVE SMOOTH",
"280 950 OFFCURVE",
"63 743 OFFCURVE",
"63 454 CURVE SMOOTH",
"63 180 OFFCURVE",
"260 -18 OFFCURVE",
"537 -18 CURVE SMOOTH"
);
}
);
width = 1005;
},
{
anchors = (
{
name = bottom;
position = "{517.318, 0}";
},
{
name = top;
position = "{545.988, 1146}";
}
);
layerId = "E9E5A43B-81E4-4E67-9C96-907763DB0C14";
paths = (
{
closed = 1;
nodes = (
"687.116 -18 OFFCURVE",
"819.78 69.335 OFFCURVE",
"881.243 226.197 CURVE SMOOTH",
"890.11 248.931 LINE",
"854.116 269.723 LINE",
"836.046 244.451 LINE SMOOTH",
"772.78 159.78 OFFCURVE",
"676.711 118.046 OFFCURVE",
"570.711 118.046 CURVE SMOOTH",
"381.104 118.046 OFFCURVE",
"273.162 254.387 OFFCURVE",
"273.162 491.659 CURVE SMOOTH",
"273.162 735.468 OFFCURVE",
"378.237 889.347 OFFCURVE",
"559.185 889.347 CURVE SMOOTH",
"641.179 889.347 OFFCURVE",
"672.85 859.295 OFFCURVE",
"686.451 747.682 CURVE SMOOTH",
"695.185 675.607 OFFCURVE",
"726.59 636.15 OFFCURVE",
"792.046 636.15 CURVE SMOOTH",
"845.838 636.15 OFFCURVE",
"877.965 677.815 OFFCURVE",
"877.965 739.41 CURVE SMOOTH",
"877.965 854.335 OFFCURVE",
"738.04 950 OFFCURVE",
"553.653 950 CURVE SMOOTH",
"275.665 950 OFFCURVE",
"78.607 743.867 OFFCURVE",
"78.607 454 CURVE SMOOTH",
"78.607 176.532 OFFCURVE",
"259.133 -18 OFFCURVE",
"513.59 -18 CURVE SMOOTH"
);
}
);
width = 950.37572;
}
);
leftKerningGroup = e;
rightKerningGroup = c;
unicode = 0063;
},
{
glyphname = d;
layers = (
{
anchors = (
{
name = bottom;
position = "{447, 0}";
}
);
layerId = "FA6D65B5-4623-4FAC-A199-3F662257AC29";
paths = (
{
closed = 1;
nodes = (
"581 -18 OFFCURVE",
"683 23 OFFCURVE",
"755 93 CURVE",
"764 90 LINE",
"764 -18 LINE",
"796 -18 LINE",
"1162 92 LINE",
"1162 128 LINE",
"1023 172 LINE",
"1023 1461 LINE",
"984 1461 LINE",
"600 1375 LINE",
"600 1334 LINE",
"750 1285 LINE",
"750 906 LINE",
"683 936 OFFCURVE",
"612 950 OFFCURVE",
"546 950 CURVE SMOOTH",
"262 950 OFFCURVE",
"65 746 OFFCURVE",
"65 451 CURVE SMOOTH",
"65 181 OFFCURVE",
"241 -18 OFFCURVE",
"466 -18 CURVE SMOOTH"
);
},
{
closed = 1;
nodes = (
"444 109 OFFCURVE",
"366 253 OFFCURVE",
"366 480 CURVE SMOOTH",
"366 704 OFFCURVE",
"451 855 OFFCURVE",
"581 855 CURVE SMOOTH",
"683 855 OFFCURVE",
"750 767 OFFCURVE",
"750 637 CURVE SMOOTH",
"750 201 LINE",
"708 144 OFFCURVE",
"649 109 OFFCURVE",
"579 109 CURVE SMOOTH"
);
}
);
width = 1186;
},
{
anchors = (
{
name = bottom;
position = "{447, 0}";
}
);
layerId = "E9E5A43B-81E4-4E67-9C96-907763DB0C14";
paths = (
{
closed = 1;
nodes = (
"565.393 -18 OFFCURVE",
"669.127 31.671 OFFCURVE",
"742.861 131.15 CURVE",
"750.127 128.15 LINE",
"750.127 -18 LINE",
"764.786 -18 LINE",
"1039.746 92 LINE",
"1039.746 113.26 LINE",
"917.22 141.653 LINE",
"917.22 1461 LINE",
"897.295 1461 LINE",
"606.069 1375 LINE",
"606.069 1349.607 LINE",
"737.861 1299.74 LINE",
"737.861 921.607 LINE",
"675.197 941.202 OFFCURVE",
"607.665 950 OFFCURVE",
"546 950 CURVE SMOOTH",
"269.803 950 OFFCURVE",
"80.607 746 OFFCURVE",
"80.607 451 CURVE SMOOTH",
"80.607 181 OFFCURVE",
"239.266 -18 OFFCURVE",
"449.526 -18 CURVE SMOOTH"
);
},
{
closed = 1;
nodes = (
"373.769 98.595 OFFCURVE",
"281.029 244.329 OFFCURVE",
"281.029 479.133 CURVE SMOOTH",
"281.029 728.277 OFFCURVE",
"387.705 892.283 OFFCURVE",
"547.185 892.283 CURVE SMOOTH",
"670.861 892.283 OFFCURVE",
"737.861 822.491 OFFCURVE",
"737.861 695.092 CURVE SMOOTH",
"737.861 201 LINE",
"696.728 137.931 OFFCURVE",
"616.919 98.595 OFFCURVE",
"528.711 98.595 CURVE SMOOTH"
);
}
);
width = 1083.68786;
}
);
leftKerningGroup = d;
rightKerningGroup = d;
unicode = 0064;
},
{
glyphname = eth;
layers = (
{
layerId = "FA6D65B5-4623-4FAC-A199-3F662257AC29";
paths = (
{
closed = 1;
nodes = (
"766 -18 OFFCURVE",
"984 174 OFFCURVE",
"984 516 CURVE SMOOTH",
"984 912 OFFCURVE",
"737 1221 OFFCURVE",
"285 1373 CURVE",
"227 1285 LINE",
"489 1149 OFFCURVE",
"635 961 OFFCURVE",
"671 739 CURVE",
"628 797 OFFCURVE",
"549 831 OFFCURVE",
"452 831 CURVE SMOOTH",
"227 831 OFFCURVE",
"63 655 OFFCURVE",
"63 415 CURVE SMOOTH",
"63 158 OFFCURVE",
"252 -18 OFFCURVE",
"505 -18 CURVE SMOOTH {name = hr00;}"
);
},
{
closed = 1;
nodes = (
"415 88 OFFCURVE",
"352 202 OFFCURVE",
"352 385 CURVE SMOOTH",
"352 577 OFFCURVE",
"421 699 OFFCURVE",
"530 699 CURVE SMOOTH",
"590 699 OFFCURVE",
"644 664 OFFCURVE",
"674 604 CURVE",
"688 551 OFFCURVE",
"695 484 OFFCURVE",
"695 419 CURVE SMOOTH",
"695 215 OFFCURVE",
"627 88 OFFCURVE",
"517 88 CURVE SMOOTH"
);
},
{
closed = 1;
nodes = (
"850 1255 LINE",
"773 1362 LINE",
"275 1012 LINE",
"350 903 LINE"
);
}
);
width = 1068;
},
{
layerId = "E9E5A43B-81E4-4E67-9C96-907763DB0C14";
paths = (
{
closed = 1;
nodes = (
"766.867 -18 OFFCURVE",
"956.254 187.873 OFFCURVE",
"956.254 494.324 CURVE SMOOTH",
"956.254 873.85 OFFCURVE",
"684.11 1228.803 OFFCURVE",
"280.665 1373 CURVE",
"245.208 1307.543 LINE",
"474.26 1196.688 OFFCURVE",
"690.491 933.254 OFFCURVE",
"722.156 726.861 CURVE",
"677.422 778.792 OFFCURVE",
"568.942 818.861 OFFCURVE",
"471.942 818.861 CURVE SMOOTH",
"254.746 818.861 OFFCURVE",
"81.208 633.324 OFFCURVE",
"81.208 401.994 CURVE SMOOTH",
"81.208 158 OFFCURVE",
"258.069 -18 OFFCURVE",
"500.665 -18 CURVE SMOOTH {name = hr00;}"
);
},
{
closed = 1;
nodes = (
"380.318 65.457 OFFCURVE",
"301.711 183.792 OFFCURVE",
"301.711 372.861 CURVE SMOOTH",
"301.711 577 OFFCURVE",
"397.59 713.74 OFFCURVE",
"538.671 713.74 CURVE SMOOTH",
"610.809 713.74 OFFCURVE",
"685.618 677.006 OFFCURVE",
"726.023 618.74 CURVE",
"738.289 565.74 OFFCURVE",
"747.023 487.468 OFFCURVE",
"747.023 426.803 CURVE SMOOTH",
"747.023 215.867 OFFCURVE",
"645.208 65.457 OFFCURVE",
"503.994 65.457 CURVE SMOOTH"
);
},
{
closed = 1;
nodes = (
"787.572 1269.74 LINE",
"731.382 1354.197 LINE",
"273.266 1053.618 LINE",
"327.457 968.896 LINE"
);
}
);
width = 1041.98844;
}
);
leftKerningGroup = o;
unicode = 00F0;
},
{
glyphname = dcroat;
layers = (
{
components = (
{
name = d;
}
);
layerId = "FA6D65B5-4623-4FAC-A199-3F662257AC29";
paths = (
{
closed = 1;
nodes = (
"1162 1054 LINE",
"1162 1204 LINE",
"551 1204 LINE",
"551 1054 LINE"
);
}
);
width = 1186;
},
{
components = (
{
alignment = -1;
name = d;
}
);
layerId = "E9E5A43B-81E4-4E67-9C96-907763DB0C14";
paths = (
{
closed = 1;
nodes = (
"1041.48 1069.607 LINE",
"1041.48 1188.393 LINE",
"491.173 1188.393 LINE",
"491.173 1069.607 LINE"
);
}
);
width = 1083.68786;
}
);
leftKerningGroup = d;
rightKerningGroup = d;
unicode = 0111;
},
{
glyphname = e;
layers = (
{
anchors = (
{
name = bottom;
position = "{524, 0}";
},
{
name = top;
position = "{565, 1146}";
}
);
layerId = "FA6D65B5-4623-4FAC-A199-3F662257AC29";
paths = (
{
closed = 1;
nodes = (
"739 -18 OFFCURVE",
"906 72 OFFCURVE",
"972 231 CURVE SMOOTH",
"980 252 LINE",
"931 294 LINE",
"919 280 LINE SMOOTH",
"850 202 OFFCURVE",
"734 164 OFFCURVE",
"632 164 CURVE SMOOTH",
"447 164 OFFCURVE",
"356 280 OFFCURVE",
"356 519 CURVE SMOOTH",
"356 737 OFFCURVE",
"431 861 OFFCURVE",
"568 861 CURVE SMOOTH",
"671 861 OFFCURVE",
"725 796 OFFCURVE",
"725 674 CURVE SMOOTH",
"725 644 OFFCURVE",
"722 618 OFFCURVE",
"718 607 CURVE",
"227 590 LINE",
"227 510 LINE",
"996 510 LINE",
"1010 521 LINE",
"1001 803 OFFCURVE",
"859 950 OFFCURVE",
"591 950 CURVE SMOOTH",
"278 950 OFFCURVE",
"63 748 OFFCURVE",
"63 452 CURVE SMOOTH",
"63 172 OFFCURVE",
"255 -18 OFFCURVE",
"547 -18 CURVE SMOOTH"
);
}
);
width = 1063;
},
{
anchors = (
{
name = bottom;
position = "{509.26, 0}";
},
{
name = top;
position = "{549.393, 1146}";
}
);
layerId = "E9E5A43B-81E4-4E67-9C96-907763DB0C14";
paths = (
{
closed = 1;
nodes = (
"686.11 -18 OFFCURVE",
"833.168 70.266 OFFCURVE",
"895.699 215.393 CURVE SMOOTH",
"905.434 239.861 LINE",
"872.908 260.185 LINE",
"853.104 235.78 LINE SMOOTH",
"790.173 161.249 OFFCURVE",
"685.445 118.046 OFFCURVE",
"572.173 118.046 CURVE SMOOTH",
"374.168 118.046 OFFCURVE",
"271.896 249.653 OFFCURVE",
"271.896 504.26 CURVE SMOOTH",
"271.896 750.873 OFFCURVE",
"368.572 891.347 OFFCURVE",
"541.121 891.347 CURVE SMOOTH",
"664.931 891.347 OFFCURVE",
"728.468 820.277 OFFCURVE",
"728.468 678.335 CURVE SMOOTH",
"728.468 650.069 OFFCURVE",
"726.335 620.601 OFFCURVE",
"722.335 607 CURVE",
"224.399 590 LINE",
"224.399 537.746 LINE",
"913.63 537.746 LINE",
"925.896 548.746 LINE",
"920.364 811.671 OFFCURVE",
"793.104 950 OFFCURVE",
"558.052 950 CURVE SMOOTH",
"273.665 950 OFFCURVE",
"80.341 748 OFFCURVE",
"80.341 452 CURVE SMOOTH",
"80.341 172 OFFCURVE",
"253.266 -18 OFFCURVE",
"510.584 -18 CURVE SMOOTH"
);
}
);
width = 996.23699;
}
);
leftKerningGroup = e;
rightKerningGroup = e;
unicode = 0065;
},
{
glyphname = schwa;
layers = (
{
layerId = "FA6D65B5-4623-4FAC-A199-3F662257AC29";
paths = (
{
closed = 1;
nodes = (
"783 -18 OFFCURVE",
"998 185 OFFCURVE",
"998 480 CURVE SMOOTH",
"998 760 OFFCURVE",
"806 950 OFFCURVE",
"514 950 CURVE SMOOTH",
"322 950 OFFCURVE",
"155 861 OFFCURVE",
"90 702 CURVE SMOOTH",
"81 681 LINE",
"130 639 LINE",
"143 653 LINE SMOOTH",
"211 730 OFFCURVE",
"327 769 OFFCURVE",
"429 769 CURVE SMOOTH",
"614 769 OFFCURVE",
"706 653 OFFCURVE",
"706 414 CURVE SMOOTH",
"706 195 OFFCURVE",
"630 72 OFFCURVE",
"493 72 CURVE SMOOTH",
"391 72 OFFCURVE",
"336 137 OFFCURVE",
"336 259 CURVE SMOOTH",
"336 289 OFFCURVE",
"340 315 OFFCURVE",
"343 326 CURVE",
"834 343 LINE",
"834 422 LINE",
"65 422 LINE",
"51 412 LINE",
"60 130 OFFCURVE",
"202 -18 OFFCURVE",
"470 -18 CURVE SMOOTH"
);
}
);
width = 1061;
},
{
layerId = "E9E5A43B-81E4-4E67-9C96-907763DB0C14";
paths = (
{
closed = 1;
nodes = (
"722.306 -18 OFFCURVE",
"915.63 185 OFFCURVE",
"915.63 480 CURVE SMOOTH",
"915.63 760 OFFCURVE",
"741.838 950 OFFCURVE",
"484.52 950 CURVE SMOOTH",
"309.861 950 OFFCURVE",
"162.803 861.867 OFFCURVE",
"100.405 717.607 CURVE SMOOTH",
"90.538 693.139 LINE",
"122.197 672.815 LINE",
"143 697.22 LINE SMOOTH",
"204.931 771.618 OFFCURVE",
"310.526 814.954 OFFCURVE",
"422.931 814.954 CURVE SMOOTH",
"621.803 814.954 OFFCURVE",
"724.208 683.347 OFFCURVE",
"724.208 428.74 CURVE SMOOTH",
"724.208 181.994 OFFCURVE",
"627.399 41.653 OFFCURVE",
"454.85 41.653 CURVE SMOOTH",
"331.173 41.653 OFFCURVE",
"267.503 112.723 OFFCURVE",
"267.503 253.798 CURVE SMOOTH",
"267.503 282.931 OFFCURVE",
"269.769 312.399 OFFCURVE",
"272.769 326 CURVE",
"771.572 343 LINE",
"771.572 395.121 LINE",
"81.474 395.121 LINE",
"69.208 384.254 LINE",
"74.74 121.329 OFFCURVE",
"202 -18 OFFCURVE",
"437.919 -18 CURVE SMOOTH"
);
}
);
width = 995.9711;
}
);
rightKerningGroup = o;
unicode = 0259;
},
{
glyphname = f;
layers = (
{
layerId = "FA6D65B5-4623-4FAC-A199-3F662257AC29";
paths = (
{
closed = 1;
nodes = (
"693 0 LINE",
"693 62 LINE",
"477 97 LINE",
"477 1030 LINE SMOOTH",
"477 1149 OFFCURVE",
"479 1236 OFFCURVE",
"498 1290 CURVE SMOOTH",
"517 1346 OFFCURVE",
"563 1371 OFFCURVE",
"614 1371 CURVE SMOOTH",
"669 1371 OFFCURVE",
"693 1346 OFFCURVE",
"711 1280 CURVE SMOOTH",
"729 1211 OFFCURVE",
"773 1172 OFFCURVE",
"834 1172 CURVE SMOOTH",
"906 1172 OFFCURVE",
"956 1220 OFFCURVE",
"956 1288 CURVE SMOOTH",
"956 1392 OFFCURVE",
"832 1461 OFFCURVE",
"648 1461 CURVE SMOOTH",
"454 1461 OFFCURVE",
"290 1373 OFFCURVE",
"234 1237 CURVE SMOOTH",
"209 1181 OFFCURVE",
"204 1119 OFFCURVE",
"204 908 CURVE SMOOTH",
"204 97 LINE",
"55 62 LINE",
"55 0 LINE"
);
},
{
closed = 1;
nodes = (
"690 850 LINE",
"715 933 LINE",
"49 933 LINE",
"25 850 LINE"
);
}
);
width = 743;
},
{
layerId = "E9E5A43B-81E4-4E67-9C96-907763DB0C14";
paths = (
{
closed = 1;
nodes = (
"568.145 0 LINE",
"568.145 36.855 LINE",
"378.156 64.919 LINE",
"378.156 1030 LINE SMOOTH",
"378.156 1176.746 OFFCURVE",
"388.827 1262.879 OFFCURVE",
"413.029 1316.012 CURVE SMOOTH",
"439.832 1377.214 OFFCURVE",
"488.434 1401.347 OFFCURVE",
"541.168 1401.347 CURVE SMOOTH",
"597.035 1401.347 OFFCURVE",
"616.699 1373.746 OFFCURVE",
"630.364 1310.347 CURVE SMOOTH",
"640.561 1263.023 OFFCURVE",
"662.884 1217.954 OFFCURVE",
"721.283 1217.954 CURVE SMOOTH",
"775.075 1217.954 OFFCURVE",
"812.069 1254.682 OFFCURVE",
"812.069 1307.942 CURVE SMOOTH",
"812.069 1396.335 OFFCURVE",
"708.879 1461 OFFCURVE",
"574.301 1461 CURVE SMOOTH",
"420.185 1461 OFFCURVE",
"271.792 1374.734 OFFCURVE",
"223.595 1243.069 CURVE SMOOTH",
"200.329 1181 OFFCURVE",
"196.197 1099.058 OFFCURVE",
"196.197 908 CURVE SMOOTH",
"196.197 64.919 LINE",
"61.936 36.855 LINE",
"61.936 0 LINE"
);
},
{
closed = 1;
nodes = (
"584.22 872.543 LINE",
"606.618 933 LINE",
"60.272 933 LINE",
"38.006 872.543 LINE"
);
}
);
width = 634.6185;
}
);
leftKerningGroup = f;
rightKerningGroup = f;
unicode = 0066;
},
{
glyphname = g;
layers = (
{
anchors = (
{
name = top;
position = "{509, 1146}";
}
);
layerId = "FA6D65B5-4623-4FAC-A199-3F662257AC29";
paths = (
{
closed = 1;
nodes = (
"567 -456 OFFCURVE",
"746 -426 OFFCURVE",
"859 -347 CURVE SMOOTH",
"931 -296 OFFCURVE",
"970 -231 OFFCURVE",
"970 -136 CURVE SMOOTH",
"970 -48 OFFCURVE",
"936 65 OFFCURVE",
"704 118 CURVE SMOOTH",
"561 150 OFFCURVE",
"306 169 OFFCURVE",
"306 250 CURVE SMOOTH",
"306 289 OFFCURVE",
"364 329 OFFCURVE",
"502 343 CURVE SMOOTH",
"741 368 OFFCURVE",
"899 500 OFFCURVE",
"899 651 CURVE SMOOTH",
"899 730 OFFCURVE",
"855 808 OFFCURVE",
"780 862 CURVE",
"794 896 OFFCURVE",
"818 924 OFFCURVE",
"855 924 CURVE SMOOTH",
"901 924 OFFCURVE",
"910 878 OFFCURVE",
"970 878 CURVE SMOOTH",
"1033 878 OFFCURVE",
"1068 929 OFFCURVE",
"1068 980 CURVE SMOOTH",
"1068 1044 OFFCURVE",
"1014 1084 OFFCURVE",
"942 1084 CURVE SMOOTH",
"831 1084 OFFCURVE",
"760 987 OFFCURVE",
"720 899 CURVE",
"656 931 OFFCURVE",
"579 950 OFFCURVE",
"493 950 CURVE SMOOTH",
"266 950 OFFCURVE",
"95 822 OFFCURVE",
"95 648 CURVE SMOOTH",
"95 502 OFFCURVE",
"216 396 OFFCURVE",
"371 361 CURVE",
"169 292 OFFCURVE",
"100 246 OFFCURVE",
"100 148 CURVE SMOOTH",
"100 69 OFFCURVE",
"146 26 OFFCURVE",
"213 -4 CURVE",
"56 -70 OFFCURVE",
"-5 -139 OFFCURVE",
"-5 -227 CURVE SMOOTH",
"-5 -310 OFFCURVE",
"48 -361 OFFCURVE",
"111 -394 CURVE SMOOTH",
"208 -445 OFFCURVE",
"333 -456 OFFCURVE",
"421 -456 CURVE SMOOTH"
);
},
{
closed = 1;
nodes = (
"398 -366 OFFCURVE",
"334 -352 OFFCURVE",
"287 -327 CURVE SMOOTH",
"232 -299 OFFCURVE",
"204 -260 OFFCURVE",
"204 -202 CURVE SMOOTH",
"204 -139 OFFCURVE",
"238 -76 OFFCURVE",
"296 -35 CURVE",
"375 -55 OFFCURVE",
"445 -70 OFFCURVE",
"532 -90 CURVE SMOOTH",
"693 -127 OFFCURVE",
"769 -153 OFFCURVE",
"769 -222 CURVE SMOOTH",
"769 -273 OFFCURVE",
"729 -306 OFFCURVE",
"676 -329 CURVE SMOOTH",
"612 -356 OFFCURVE",
"532 -366 OFFCURVE",
"470 -366 CURVE SMOOTH"
);
},
{
closed = 1;
nodes = (
"396 421 OFFCURVE",
"375 549 OFFCURVE",
"375 634 CURVE SMOOTH",
"375 725 OFFCURVE",
"400 875 OFFCURVE",
"503 875 CURVE SMOOTH",
"602 875 OFFCURVE",
"621 739 OFFCURVE",
"621 655 CURVE SMOOTH",
"621 553 OFFCURVE",
"593 421 OFFCURVE",
"495 421 CURVE SMOOTH"
);
}
);
width = 1028;
},
{
anchors = (
{
name = top;
position = "{463.046, 1146}";
}
);
layerId = "E9E5A43B-81E4-4E67-9C96-907763DB0C14";
paths = (
{
closed = 1;
nodes = (
"519.312 -457.734 OFFCURVE",
"675.769 -424.266 OFFCURVE",
"776.63 -345.266 CURVE SMOOTH",
"836.491 -296.867 OFFCURVE",
"875.491 -233.601 OFFCURVE",
"875.491 -142.936 CURVE SMOOTH",
"875.491 -62.74 OFFCURVE",
"844.96 40.723 OFFCURVE",
"645.908 85.919 CURVE SMOOTH",
"521.983 114.451 OFFCURVE",
"265.249 135.185 OFFCURVE",
"265.249 230.058 CURVE SMOOTH",
"265.249 287.266 OFFCURVE",
"359.665 330.734 OFFCURVE",
"456.046 338.665 CURVE SMOOTH",
"667.301 355.861 OFFCURVE",
"812.295 495.665 OFFCURVE",
"812.295 649.266 CURVE SMOOTH",
"812.295 731.734 OFFCURVE",
"771.763 812.335 OFFCURVE",
"701.965 868.069 CURVE",
"714.231 914.208 OFFCURVE",
"740.832 954.347 OFFCURVE",
"770.029 954.347 CURVE SMOOTH",
"814.295 954.347 OFFCURVE",
"811.156 908.347 OFFCURVE",
"863.353 908.347 CURVE SMOOTH",
"910.746 908.347 OFFCURVE",
"947.48 946.341 OFFCURVE",
"947.48 993.873 CURVE SMOOTH",
"947.48 1050.069 OFFCURVE",
"897.815 1084 OFFCURVE",
"842.289 1084 CURVE SMOOTH",
"748.63 1084 OFFCURVE",
"691.503 980.064 OFFCURVE",
"661.908 894.665 CURVE",
"604.844 929.266 OFFCURVE",
"533.046 950 OFFCURVE",
"453.116 950 CURVE SMOOTH",
"254.728 950 OFFCURVE",
"104.538 823.734 OFFCURVE",
"104.538 648.867 CURVE SMOOTH",
"104.538 502.867 OFFCURVE",
"209.064 397.734 OFFCURVE",
"346.723 361 CURVE",
"152.526 298.069 OFFCURVE",
"109.538 213.052 OFFCURVE",
"109.538 150.601 CURVE SMOOTH",
"109.538 89.809 OFFCURVE",
"150.335 39.873 OFFCURVE",
"228.607 5.538 CURVE",
"68.139 -63.064 OFFCURVE",
"9.74 -134.665 OFFCURVE",
"9.74 -227 CURVE SMOOTH",
"9.74 -304.798 OFFCURVE",
"52.335 -359.266 OFFCURVE",
"113.601 -395.734 CURVE SMOOTH",
"194.127 -442.399 OFFCURVE",
"306.988 -457.734 OFFCURVE",
"391.52 -457.734 CURVE SMOOTH"
);
},
{
closed = 1;
nodes = (
"353.78 -396.347 OFFCURVE",
"289.78 -380.613 OFFCURVE",
"242.78 -350.41 CURVE SMOOTH",
"191.249 -317.208 OFFCURVE",
"161.514 -267.803 OFFCURVE",
"161.514 -205.468 CURVE SMOOTH",
"161.514 -126.861 OFFCURVE",
"210.254 -51.723 OFFCURVE",
"289.931 -14.191 CURVE",
"341.185 -28.988 OFFCURVE",
"404.249 -43.121 OFFCURVE",
"468.705 -56.185 CURVE SMOOTH",
"668.723 -96.653 OFFCURVE",
"730.85 -131.324 OFFCURVE",
"730.85 -212.462 CURVE SMOOTH",
"730.85 -279.069 OFFCURVE",
"690.85 -325.942 OFFCURVE",
"630.046 -355.012 CURVE SMOOTH",
"572.983 -382.879 OFFCURVE",
"496.451 -396.347 OFFCURVE",
"427.514 -396.347 CURVE SMOOTH"
);
},
{
closed = 1;
nodes = (
"325.769 397.59 OFFCURVE",
"298.699 541.197 OFFCURVE",
"298.699 634.867 CURVE SMOOTH",
"298.699 732.803 OFFCURVE",
"328.035 897.543 OFFCURVE",
"463.983 897.543 CURVE SMOOTH",
"594.197 897.543 OFFCURVE",
"620.133 746.803 OFFCURVE",
"620.133 653.266 CURVE SMOOTH",
"620.133 540.861 OFFCURVE",
"584.329 397.59 OFFCURVE",
"455.116 397.59 CURVE SMOOTH"
);
}
);
width = 921.3526;
}
);
leftKerningGroup = g;
rightKerningGroup = g;
unicode = 0067;
},
{
glyphname = gcommaaccent;
layers = (
{
components = (
{
name = g;
}
);
layerId = "FA6D65B5-4623-4FAC-A199-3F662257AC29";
paths = (
{
closed = 1;
nodes = (
"588 1146 OFFCURVE",
"637 1186 OFFCURVE",
"637 1239 CURVE SMOOTH",
"637 1315 OFFCURVE",
"554 1316 OFFCURVE",
"554 1368 CURVE SMOOTH",
"554 1394 OFFCURVE",
"579 1436 OFFCURVE",
"614 1470 CURVE",
"574 1514 LINE",
"463 1464 OFFCURVE",
"400 1382 OFFCURVE",
"400 1283 CURVE SMOOTH",
"400 1199 OFFCURVE",
"445 1146 OFFCURVE",
"519 1146 CURVE SMOOTH"
);
}
);
width = 1028;
},
{
components = (
{
alignment = -1;
name = g;
}
);
layerId = "E9E5A43B-81E4-4E67-9C96-907763DB0C14";
paths = (
{
closed = 1;
nodes = (
"534.243 1146 OFFCURVE",
"577.173 1184.266 OFFCURVE",
"577.173 1236.399 CURVE SMOOTH",
"577.173 1317.601 OFFCURVE",
"491.572 1305.595 OFFCURVE",
"491.572 1368 CURVE SMOOTH",
"491.572 1390.532 OFFCURVE",
"522.642 1429.931 OFFCURVE",
"565.445 1460.462 CURVE",
"535.85 1502.728 LINE",
"432.653 1444.058 OFFCURVE",
"378.324 1364.659 OFFCURVE",
"378.324 1264.792 CURVE SMOOTH",
"378.324 1199 OFFCURVE",
"418.121 1146 OFFCURVE",
"476.514 1146 CURVE SMOOTH"
);
}
);
width = 921.3526;
}
);
leftKerningGroup = g;
rightKerningGroup = g;
unicode = 0123;
},
{
glyphname = h;
layers = (
{
anchors = (
{
name = bottom;
position = "{600, 0}";
},
{
name = top;
position = "{795, 1146}";
}
);
layerId = "FA6D65B5-4623-4FAC-A199-3F662257AC29";
paths = (
{
closed = 1;
nodes = (
"561 0 LINE",
"561 62 LINE",
"438 97 LINE",
"438 1461 LINE",
"400 1461 LINE",
"32 1375 LINE",
"32 1334 LINE",
"165 1285 LINE",
"165 97 LINE",
"33 62 LINE",
"33 0 LINE"
);
},
{
closed = 1;
nodes = (
"1167 0 LINE",
"1167 62 LINE",
"1035 97 LINE",
"1035 560 LINE SMOOTH",
"1035 722 OFFCURVE",
"1030 766 OFFCURVE",
"1008 810 CURVE SMOOTH",
"963 903 OFFCURVE",
"876 950 OFFCURVE",
"759 950 CURVE SMOOTH",
"637 950 OFFCURVE",
"498 899 OFFCURVE",
"417 825 CURVE",
"417 715 LINE",
"465 773 OFFCURVE",
"517 799 OFFCURVE",
"588 799 CURVE SMOOTH",
"669 799 OFFCURVE",
"716 764 OFFCURVE",
"744 702 CURVE SMOOTH",
"760 667 OFFCURVE",
"762 616 OFFCURVE",
"762 491 CURVE SMOOTH",
"762 97 LINE",
"639 62 LINE",
"639 0 LINE"
);
}
);
width = 1199;
},
{
anchors = (
{
name = bottom;
position = "{557.514, 0}";
},
{
name = top;
position = "{699.624, 1146}";
}
);
layerId = "E9E5A43B-81E4-4E67-9C96-907763DB0C14";
paths = (
{
closed = 1;
nodes = (
"484.699 0 LINE",
"484.699 38.59 LINE",
"353.896 66.653 LINE",
"353.896 1461 LINE",
"334.104 1461 LINE",
"42.405 1375.867 LINE",
"42.405 1349.607 LINE",
"172.803 1301.474 LINE",
"172.803 66.653 LINE",
"39.069 38.59 LINE",
"39.069 0 LINE"
);
},
{
closed = 1;
nodes = (
"1067.289 0 LINE",
"1067.289 38.59 LINE",
"935.289 64.919 LINE",
"935.289 590.347 LINE SMOOTH",
"935.289 758.416 OFFCURVE",
"932.023 802.416 OFFCURVE",
"912.624 840.347 CURVE SMOOTH",
"877.162 909.069 OFFCURVE",
"798.832 950 OFFCURVE",
"701.775 950 CURVE SMOOTH",
"578.908 950 OFFCURVE",
"444.243 892.931 OFFCURVE",
"338.098 794.653 CURVE",
"338.098 721.069 LINE",
"405.173 801.613 OFFCURVE",
"494.457 846.688 OFFCURVE",
"594.069 846.688 CURVE SMOOTH",
"665.532 846.688 OFFCURVE",
"709.931 818.624 OFFCURVE",
"733.595 763.561 CURVE SMOOTH",
"749.595 725.092 OFFCURVE",
"754.197 669.757 OFFCURVE",
"754.197 565.566 CURVE SMOOTH",
"754.197 64.919 LINE",
"623.393 38.59 LINE",
"623.393 0 LINE"
);
}
);
width = 1103.62428;
}
);
leftKerningGroup = h;
rightKerningGroup = n;
unicode = 0068;
},
{
glyphname = hbar;
layers = (
{
components = (
{
name = h;
}
);
layerId = "FA6D65B5-4623-4FAC-A199-3F662257AC29";
paths = (
{
closed = 1;
nodes = (
"672 1054 LINE",
"672 1204 LINE",
"62 1204 LINE",
"62 1054 LINE"
);
}
);
width = 1199;
},
{
components = (
{
alignment = -1;
name = h;
}
);
layerId = "E9E5A43B-81E4-4E67-9C96-907763DB0C14";
paths = (
{
closed = 1;
nodes = (
"595.699 1069.607 LINE",
"595.699 1188.393 LINE",
"46.393 1188.393 LINE",
"46.393 1069.607 LINE"
);
}
);
width = 1103.62428;
}
);
leftKerningGroup = h;
rightKerningGroup = n;
unicode = 0127;
},
{
glyphname = i;
layers = (
{
anchors = (
{
name = bottom;
position = "{333, 0}";
}
);
layerId = "FA6D65B5-4623-4FAC-A199-3F662257AC29";
paths = (
{
closed = 1;
nodes = (
"605 0 LINE",
"605 62 LINE",
"465 97 LINE",
"465 950 LINE",
"428 950 LINE",
"42 866 LINE",
"42 824 LINE",
"192 776 LINE",
"192 97 LINE",
"42 62 LINE",
"42 0 LINE"
);
},
{
closed = 1;
nodes = (
"429 1082 OFFCURVE",
"482 1155 OFFCURVE",
"482 1227 CURVE SMOOTH",
"482 1304 OFFCURVE",
"422 1373 OFFCURVE",
"326 1373 CURVE SMOOTH",
"231 1373 OFFCURVE",
"174 1304 OFFCURVE",
"174 1227 CURVE SMOOTH",
"174 1155 OFFCURVE",
"227 1082 OFFCURVE",
"326 1082 CURVE SMOOTH"
);
}
);
width = 634;
},
{
anchors = (
{
name = bottom;
position = "{279.243, 0}";
}
);
layerId = "E9E5A43B-81E4-4E67-9C96-907763DB0C14";
paths = (
{
closed = 1;
nodes = (
"503.555 0 LINE",
"503.555 38.59 LINE",
"370.491 66.653 LINE",
"370.491 950 LINE",
"351.699 950 LINE",
"55.873 866 LINE",
"55.873 838.74 LINE",
"188.532 791.607 LINE",
"188.532 66.653 LINE",
"53.272 38.59 LINE",
"53.272 0 LINE"
);
},
{
closed = 1;
nodes = (
"352.699 1137.491 OFFCURVE",
"397.896 1191.416 OFFCURVE",
"397.896 1253.879 CURVE SMOOTH",
"397.896 1321.341 OFFCURVE",
"351.769 1373 OFFCURVE",
"278.312 1373 CURVE SMOOTH",
"205.855 1373 OFFCURVE",
"160.127 1321.341 OFFCURVE",
"160.127 1253.879 CURVE SMOOTH",
"160.127 1191.416 OFFCURVE",
"205.324 1137.491 OFFCURVE",
"278.312 1137.491 CURVE SMOOTH"
);
}
);
width = 542.09249;
}
);
leftKerningGroup = i;
rightKerningGroup = i;
unicode = 0069;
},
{
glyphname = dotlessi;
layers = (
{
anchors = (
{
name = top;
position = "{316, 1146}";
}
);
layerId = "FA6D65B5-4623-4FAC-A199-3F662257AC29";
paths = (
{
closed = 1;
nodes = (
"605 0 LINE",
"605 62 LINE",
"465 97 LINE",
"465 950 LINE",
"428 950 LINE",
"42 866 LINE",
"42 824 LINE",
"192 776 LINE",
"192 97 LINE",
"42 62 LINE",
"42 0 LINE"
);
}
);
width = 634;
},
{
anchors = (
{
name = top;
position = "{276.983, 1146}";
}
);
layerId = "E9E5A43B-81E4-4E67-9C96-907763DB0C14";
paths = (
{
closed = 1;
nodes = (
"503.555 0 LINE",
"503.555 38.59 LINE",
"370.491 66.653 LINE",
"370.491 950 LINE",
"351.699 950 LINE",
"55.873 866 LINE",
"55.873 838.74 LINE",
"188.532 791.607 LINE",
"188.532 66.653 LINE",
"53.272 38.59 LINE",
"53.272 0 LINE"
);
}
);
width = 542.09249;
}
);
leftKerningGroup = i;
rightKerningGroup = i;
unicode = 0131;
},
{
glyphname = j;
layers = (
{
layerId = "FA6D65B5-4623-4FAC-A199-3F662257AC29";
paths = (
{
closed = 1;
nodes = (
"174 -458 OFFCURVE",
"287 -396 OFFCURVE",
"368 -257 CURVE SMOOTH",
"424 -160 OFFCURVE",
"442 -70 OFFCURVE",
"442 121 CURVE SMOOTH",
"442 950 LINE",
"405 950 LINE",
"19 866 LINE",
"19 824 LINE",
"169 776 LINE",
"169 -84 LINE",
"169 -275 OFFCURVE",
"127 -366 OFFCURVE",
"42 -366 CURVE SMOOTH",
"-7 -366 OFFCURVE",
"-35 -338 OFFCURVE",
"-76 -253 CURVE SMOOTH",
"-107 -190 OFFCURVE",
"-137 -169 OFFCURVE",
"-192 -169 CURVE SMOOTH",
"-264 -169 OFFCURVE",
"-310 -211 OFFCURVE",
"-310 -278 CURVE SMOOTH",
"-310 -385 OFFCURVE",
"-185 -458 OFFCURVE",
"2 -458 CURVE SMOOTH"
);
},
{
closed = 1;
nodes = (
"407 1082 OFFCURVE",
"459 1155 OFFCURVE",
"459 1227 CURVE SMOOTH",
"459 1304 OFFCURVE",
"400 1373 OFFCURVE",
"303 1373 CURVE SMOOTH",
"208 1373 OFFCURVE",
"151 1304 OFFCURVE",
"151 1227 CURVE SMOOTH",
"151 1155 OFFCURVE",
"204 1082 OFFCURVE",
"303 1082 CURVE SMOOTH"
);
}
);
width = 581;
},
{
layerId = "E9E5A43B-81E4-4E67-9C96-907763DB0C14";
paths = (
{
closed = 1;
nodes = (
"95.098 -458 OFFCURVE",
"213.301 -380.393 OFFCURVE",
"294.301 -234.457 CURVE SMOOTH",
"345.965 -140.058 OFFCURVE",
"354.428 -71.734 OFFCURVE",
"354.428 252.792 CURVE SMOOTH",
"354.428 950 LINE",
"336.503 950 LINE",
"40.676 866 LINE",
"40.676 838.74 LINE",
"173.335 791.607 LINE",
"173.335 -84 LINE SMOOTH",
"173.335 -279.335 OFFCURVE",
"127 -373.803 OFFCURVE",
"29.861 -373.803 CURVE SMOOTH",
"-14.803 -373.803 OFFCURVE",
"-35 -353.607 OFFCURVE",
"-62.127 -284.214 CURVE SMOOTH",
"-82.723 -229.884 OFFCURVE",
"-110.988 -202.815 OFFCURVE",
"-161.653 -202.815 CURVE SMOOTH",
"-221.514 -202.815 OFFCURVE",
"-259.711 -243.081 OFFCURVE",
"-259.711 -308.347 CURVE SMOOTH",
"-259.711 -400.607 OFFCURVE",
"-178.931 -458 OFFCURVE",
"-50.023 -458 CURVE SMOOTH"
);
},
{
closed = 1;
nodes = (
"335.035 1137.491 OFFCURVE",
"382.699 1187.948 OFFCURVE",
"382.699 1255.613 CURVE SMOOTH",
"382.699 1322.208 OFFCURVE",
"334.104 1373 OFFCURVE",
"263.116 1373 CURVE SMOOTH",
"192.393 1373 OFFCURVE",
"144.931 1322.208 OFFCURVE",
"144.931 1255.613 CURVE SMOOTH",
"144.931 1187.948 OFFCURVE",
"191.861 1137.491 OFFCURVE",
"263.116 1137.491 CURVE SMOOTH"
);
}
);
width = 504.69942;
}
);
leftKerningGroup = j;
rightKerningGroup = j;
unicode = 006A;
},
{
glyphname = dotlessj;
layers = (
{
anchors = (
{
name = top;
position = "{299, 1146}";
}
);
layerId = "FA6D65B5-4623-4FAC-A199-3F662257AC29";
paths = (
{
closed = 1;
nodes = (
"174 -458 OFFCURVE",
"287 -396 OFFCURVE",
"368 -257 CURVE SMOOTH",
"424 -160 OFFCURVE",
"442 -70 OFFCURVE",
"442 121 CURVE SMOOTH",
"442 950 LINE",
"405 950 LINE",
"19 866 LINE",
"19 824 LINE",
"169 776 LINE",
"169 -84 LINE SMOOTH",
"169 -275 OFFCURVE",
"127 -366 OFFCURVE",
"42 -366 CURVE SMOOTH",
"-7 -366 OFFCURVE",
"-35 -338 OFFCURVE",
"-76 -253 CURVE SMOOTH",
"-107 -190 OFFCURVE",
"-137 -169 OFFCURVE",
"-192 -169 CURVE SMOOTH",
"-264 -169 OFFCURVE",
"-310 -211 OFFCURVE",
"-310 -278 CURVE SMOOTH",
"-310 -385 OFFCURVE",
"-185 -458 OFFCURVE",
"2 -458 CURVE SMOOTH"
);
}
);
width = 581;
},
{
anchors = (
{
name = top;
position = "{265.185, 1146}";
}
);
layerId = "E9E5A43B-81E4-4E67-9C96-907763DB0C14";
paths = (
{
closed = 1;
nodes = (
"95.098 -458 OFFCURVE",
"213.301 -380.393 OFFCURVE",
"294.301 -234.457 CURVE SMOOTH",
"345.965 -140.058 OFFCURVE",
"354.428 -71.734 OFFCURVE",
"354.428 252.792 CURVE SMOOTH",
"354.428 950 LINE",
"336.503 950 LINE",
"40.676 866 LINE",
"40.676 838.74 LINE",
"173.335 791.607 LINE",
"173.335 -84 LINE SMOOTH",
"173.335 -279.335 OFFCURVE",
"127 -373.803 OFFCURVE",
"29.861 -373.803 CURVE SMOOTH",
"-14.803 -373.803 OFFCURVE",
"-35 -353.607 OFFCURVE",
"-62.127 -284.214 CURVE SMOOTH",
"-82.723 -229.884 OFFCURVE",
"-110.988 -202.815 OFFCURVE",
"-161.653 -202.815 CURVE SMOOTH",
"-221.514 -202.815 OFFCURVE",
"-259.711 -243.081 OFFCURVE",
"-259.711 -308.347 CURVE SMOOTH",
"-259.711 -400.607 OFFCURVE",
"-178.931 -458 OFFCURVE",
"-50.023 -458 CURVE SMOOTH"
);
}
);
width = 504.69942;
}
);
leftKerningGroup = j;
rightKerningGroup = j;
unicode = 0237;
},
{
glyphname = k;
layers = (
{
anchors = (
{
name = bottom;
position = "{674, 0}";
}
);
layerId = "FA6D65B5-4623-4FAC-A199-3F662257AC29";
paths = (
{
closed = 1;
nodes = (
"602 0 LINE",
"602 62 LINE",
"449 97 LINE",
"449 1461 LINE",
"410 1461 LINE",
"26 1375 LINE",
"26 1334 LINE",
"176 1287 LINE",
"176 97 LINE",
"26 62 LINE",
"26 0 LINE"
);
},
{
closed = 1;
nodes = (
"1200 0 LINE",
"1200 62 LINE",
"1056 97 LINE",
"697 658 LINE",
"537 440 LINE",
"792 0 LINE"
);
},
{
closed = 1;
nodes = (
"873 771 LINE SMOOTH",
"931 829 OFFCURVE",
"956 848 OFFCURVE",
"1112 871 CURVE",
"1112 933 LINE",
"628 933 LINE",
"628 871 LINE",
"748 859 OFFCURVE",
"780 850 OFFCURVE",
"780 829 CURVE SMOOTH",
"780 815 OFFCURVE",
"764 796 OFFCURVE",
"736 766 CURVE SMOOTH",
"357 368 LINE",
"396 283 LINE"
);
}
);
width = 1170;
},
{
anchors = (
{
name = bottom;
position = "{587.295, 0}";
}
);
layerId = "E9E5A43B-81E4-4E67-9C96-907763DB0C14";
paths = (
{
closed = 1;
nodes = (
"485.815 0 LINE",
"485.815 38.59 LINE",
"351.023 66.653 LINE",
"351.023 1461 LINE",
"331.098 1461 LINE",
"43.341 1375 LINE",
"43.341 1349.607 LINE",
"174.266 1301.74 LINE",
"174.266 66.653 LINE",
"38.139 38.59 LINE",
"38.139 0 LINE"
);
},
{
closed = 1;
nodes = (
"1093.353 0 LINE",
"1093.353 38.59 LINE",
"945.884 66.653 LINE",
"521.855 593.838 LINE",
"408.676 459.942 LINE",
"772.058 0 LINE"
);
},
{
closed = 1;
nodes = (
"730.803 793.543 LINE SMOOTH",
"784.468 855.012 OFFCURVE",
"810.335 867.942 OFFCURVE",
"955.064 894.41 CURVE",
"955.064 933 LINE",
"549.098 933 LINE",
"549.098 894.41 LINE",
"655.225 881.543 OFFCURVE",
"682.023 872.543 OFFCURVE",
"682.023 851.543 CURVE SMOOTH",
"682.023 837.543 OFFCURVE",
"669.491 816.809 OFFCURVE",
"644.092 788.543 CURVE SMOOTH",
"296.306 398.347 LINE",
"310.162 314.214 LINE"
);
}
);
width = 1027.80347;
}
);
leftKerningGroup = h;
rightKerningGroup = k;
unicode = 006B;
},
{
glyphname = kgreenlandic;
layers = (
{
layerId = "FA6D65B5-4623-4FAC-A199-3F662257AC29";
paths = (
{
closed = 1;
nodes = (
"622 0 LINE",
"622 62 LINE",
"469 97 LINE",
"469 950 LINE",
"430 950 LINE",
"46 864 LINE",
"46 824 LINE",
"196 776 LINE",
"196 97 LINE",
"46 62 LINE",
"46 0 LINE"
);
},
{
closed = 1;
nodes = (
"1220 0 LINE",
"1220 62 LINE",
"1076 97 LINE",
"717 658 LINE",
"557 440 LINE",
"812 0 LINE"
);
},
{
closed = 1;
nodes = (
"893 771 LINE SMOOTH",
"951 829 OFFCURVE",
"976 848 OFFCURVE",
"1132 871 CURVE",
"1132 933 LINE",
"648 933 LINE",
"648 871 LINE",
"768 859 OFFCURVE",
"800 850 OFFCURVE",
"800 829 CURVE SMOOTH",
"800 815 OFFCURVE",
"784 796 OFFCURVE",
"756 766 CURVE SMOOTH",
"377 368 LINE",
"416 283 LINE"
);
}
);
width = 1190;
},
{
layerId = "E9E5A43B-81E4-4E67-9C96-907763DB0C14";
paths = (
{
closed = 1;
nodes = (
"500.613 0 LINE",
"500.613 38.59 LINE",
"365.821 66.653 LINE",
"365.821 950 LINE",
"345.896 950 LINE",
"58.139 864 LINE",
"58.139 838.74 LINE",
"189.064 791.607 LINE",
"189.064 66.653 LINE",
"53.803 38.59 LINE",
"53.803 0 LINE"
);
},
{
closed = 1;
nodes = (
"1108.15 0 LINE",
"1108.15 38.59 LINE",
"960.682 66.653 LINE",
"536.653 593.838 LINE",
"423.474 459.942 LINE",
"786.855 0 LINE"
);
},
{
closed = 1;
nodes = (
"745.601 793.543 LINE SMOOTH",
"799.266 855.012 OFFCURVE",
"826 867.942 OFFCURVE",
"969.861 894.41 CURVE",
"969.861 933 LINE",
"563.896 933 LINE",
"563.896 894.41 LINE",
"670.023 881.543 OFFCURVE",
"696.821 872.543 OFFCURVE",
"696.821 851.543 CURVE SMOOTH",
"696.821 837.543 OFFCURVE",
"684.289 816.809 OFFCURVE",
"658.89 788.543 CURVE SMOOTH",
"311.104 398.347 LINE",
"325.827 314.214 LINE"
);
}
);
width = 1042.60116;
}
);
leftMetricsKey = n;
rightMetricsKey = k;
unicode = 0138;
},
{
glyphname = l;
layers = (
{
anchors = (
{
name = bottom;
position = "{319, 0}";
},
{
name = topcap;
position = "{314, 1508}";
}
);
layerId = "FA6D65B5-4623-4FAC-A199-3F662257AC29";
paths = (
{
closed = 1;
nodes = (
"593 0 LINE",
"593 62 LINE",
"452 97 LINE",
"452 1461 LINE",
"415 1461 LINE",
"30 1376 LINE",
"30 1334 LINE",
"180 1287 LINE",
"180 97 LINE",
"30 62 LINE",
"30 0 LINE"
);
}
);
width = 627;
},
{
anchors = (
{
name = bottom;
position = "{262.642, 0}";
},
{
name = topcap;
position = "{261.977, 1508}";
}
);
layerId = "E9E5A43B-81E4-4E67-9C96-907763DB0C14";
paths = (
{
closed = 1;
nodes = (
"488.954 0 LINE",
"488.954 38.59 LINE",
"355.757 66.653 LINE",
"355.757 1461 LINE",
"336.965 1461 LINE",
"41.272 1376.867 LINE",
"41.272 1349.607 LINE",
"173.931 1302.607 LINE",
"173.931 66.653 LINE",
"38.671 38.59 LINE",
"38.671 0 LINE"
);
}
);
width = 528.15607;
}
);
leftKerningGroup = l;
rightKerningGroup = l;
unicode = 006C;
},
{
glyphname = lacute;
layers = (
{
layerId = "FA6D65B5-4623-4FAC-A199-3F662257AC29";
paths = (
{
closed = 1;
nodes = (
"593 0 LINE",
"593 62 LINE",
"452 97 LINE",
"452 1461 LINE",
"415 1461 LINE",
"30 1376 LINE",
"30 1334 LINE",
"180 1287 LINE",
"180 97 LINE",
"30 62 LINE",
"30 0 LINE"
);
},
{
closed = 1;
nodes = (
"348 1514 LINE SMOOTH",
"440 1540 OFFCURVE",
"468 1573 OFFCURVE",
"468 1614 CURVE SMOOTH",
"468 1658 OFFCURVE",
"431 1690 OFFCURVE",
"392 1690 CURVE SMOOTH",
"364 1690 OFFCURVE",
"341 1681 OFFCURVE",
"315 1661 CURVE SMOOTH",
"62 1473 LINE",
"81 1436 LINE"
);
}
);
width = 627;
},
{
layerId = "E9E5A43B-81E4-4E67-9C96-907763DB0C14";
paths = (
{
closed = 1;
nodes = (
"475.948 0 LINE",
"475.948 36.855 LINE",
"351.422 64.919 LINE",
"351.422 1461 LINE",
"332.63 1461 LINE",
"48.208 1375.133 LINE",
"48.208 1349.607 LINE",
"174.798 1303.474 LINE",
"174.798 64.919 LINE",
"48.208 36.855 LINE",
"48.208 0 LINE"
);
},
{
closed = 1;
nodes = (
"335.861 1514 LINE SMOOTH",
"427.861 1540 OFFCURVE",
"455.861 1573 OFFCURVE",
"455.861 1614 CURVE SMOOTH",
"455.861 1658 OFFCURVE",
"418.861 1690 OFFCURVE",
"379.861 1690 CURVE SMOOTH",
"351.861 1690 OFFCURVE",
"328.861 1681 OFFCURVE",
"302.861 1661 CURVE SMOOTH",
"49.861 1473 LINE",
"68.861 1436 LINE"
);
}
);
width = 524.68786;
}
);
leftKerningGroup = l;
rightKerningGroup = l;
unicode = 013A;
},
{
glyphname = lslash;
layers = (
{
components = (
{
name = l;
transform = "{1, 0, 0, 1, 4, 0}";
}
);
layerId = "FA6D65B5-4623-4FAC-A199-3F662257AC29";
paths = (
{
closed = 1;
nodes = (
"600 796 LINE",
"600 963 LINE",
"51 671 LINE",
"51 503 LINE"
);
}
);
width = 634;
},
{
components = (
{
alignment = -1;
name = l;
transform = "{1, 0, 0, 1, 4.867, 0}";
}
);
layerId = "E9E5A43B-81E4-4E67-9C96-907763DB0C14";
paths = (
{
closed = 1;
nodes = (
"509.827 788.197 LINE",
"509.827 909.243 LINE",
"35.393 655.393 LINE",
"35.393 534.214 LINE"
);
}
);
width = 538.62428;
}
);
leftKerningGroup = l;
rightKerningGroup = l;
unicode = 0142;
},
{
glyphname = m;
layers = (
{
layerId = "FA6D65B5-4623-4FAC-A199-3F662257AC29";
paths = (
{
closed = 1;
nodes = (
"574 0 LINE",
"574 62 LINE",
"451 97 LINE",
"451 818 LINE",
"444 827 LINE",
"444 950 LINE",
"373 950 LINE",
"49 864 LINE",
"49 824 LINE",
"178 774 LINE",
"178 97 LINE",
"46 62 LINE",
"46 0 LINE"
);
},
{
closed = 1;
nodes = (
"1155 0 LINE",
"1155 62 LINE",
"1031 97 LINE",
"1031 560 LINE SMOOTH",
"1031 722 OFFCURVE",
"1026 766 OFFCURVE",
"1005 810 CURVE SMOOTH",
"959 903 OFFCURVE",
"873 950 OFFCURVE",
"755 950 CURVE SMOOTH",
"630 950 OFFCURVE",
"488 889 OFFCURVE",
"405 799 CURVE",
"405 685 LINE",
"454 759 OFFCURVE",
"510 796 OFFCURVE",
"584 796 CURVE SMOOTH",
"665 796 OFFCURVE",
"718 762 OFFCURVE",
"741 702 CURVE SMOOTH",
"755 667 OFFCURVE",
"759 616 OFFCURVE",
"759 491 CURVE SMOOTH",
"759 97 LINE",
"635 62 LINE",
"635 0 LINE"
);
},
{
closed = 1;
nodes = (
"1735 0 LINE",
"1735 62 LINE",
"1612 97 LINE",
"1612 560 LINE SMOOTH",
"1612 722 OFFCURVE",
"1607 766 OFFCURVE",
"1586 810 CURVE SMOOTH",
"1540 903 OFFCURVE",
"1454 950 OFFCURVE",
"1336 950 CURVE SMOOTH",
"1211 950 OFFCURVE",
"1068 889 OFFCURVE",
"986 799 CURVE",
"986 683 LINE",
"1035 757 OFFCURVE",
"1091 794 OFFCURVE",
"1165 794 CURVE SMOOTH",
"1246 794 OFFCURVE",
"1299 760 OFFCURVE",
"1322 702 CURVE SMOOTH",
"1336 667 OFFCURVE",
"1339 616 OFFCURVE",
"1339 491 CURVE SMOOTH",
"1339 97 LINE",
"1216 62 LINE",
"1216 0 LINE"
);
}
);
width = 1774;
},
{
layerId = "E9E5A43B-81E4-4E67-9C96-907763DB0C14";
paths = (
{
closed = 1;
nodes = (
"499.434 0 LINE",
"499.434 38.59 LINE",
"368.63 66.653 LINE",
"368.63 787.653 LINE",
"360.763 796.653 LINE",
"360.763 950 LINE",
"336.584 950 LINE",
"56.803 864 LINE",
"56.803 838.74 LINE",
"186.671 789.607 LINE",
"186.671 66.653 LINE",
"53.803 38.59 LINE",
"53.803 0 LINE"
);
},
{
closed = 1;
nodes = (
"1038.815 0 LINE",
"1038.815 38.59 LINE",
"907.879 64.919 LINE",
"907.879 590.347 LINE SMOOTH",
"907.879 770.555 OFFCURVE",
"899.41 810.22 OFFCURVE",
"884.48 840.347 CURVE SMOOTH",
"852.353 909.069 OFFCURVE",
"778.491 950 OFFCURVE",
"689.104 950 CURVE SMOOTH",
"571.908 950 OFFCURVE",
"446.382 891.601 OFFCURVE",
"346.908 791.197 CURVE",
"346.908 717.081 LINE",
"407.179 799.751 OFFCURVE",
"490.925 846.289 OFFCURVE",
"581.399 846.289 CURVE SMOOTH",
"645.058 846.289 OFFCURVE",
"685.919 818.358 OFFCURVE",
"705.451 763.561 CURVE SMOOTH",
"716.85 725.092 OFFCURVE",
"726.919 669.757 OFFCURVE",
"726.919 565.566 CURVE SMOOTH",
"726.919 64.919 LINE",
"595.983 38.59 LINE",
"595.983 0 LINE"
);
},
{
closed = 1;
nodes = (
"1578.064 0 LINE",
"1578.064 38.59 LINE",
"1447.26 64.919 LINE",
"1447.26 590.347 LINE SMOOTH",
"1447.26 758.416 OFFCURVE",
"1442.26 802.416 OFFCURVE",
"1423.861 840.347 CURVE SMOOTH",
"1390.867 909.069 OFFCURVE",
"1317.873 950 OFFCURVE",
"1229.353 950 CURVE SMOOTH",
"1111.289 950 OFFCURVE",
"985.63 891.601 OFFCURVE",
"886.289 791.197 CURVE",
"886.289 716.815 LINE",
"946.561 799.486 OFFCURVE",
"1030.306 846.023 OFFCURVE",
"1120.78 846.023 CURVE SMOOTH",
"1185.306 846.023 OFFCURVE",
"1227.035 818.092 OFFCURVE",
"1245.699 763.561 CURVE SMOOTH",
"1257.965 725.092 OFFCURVE",
"1266.168 669.757 OFFCURVE",
"1266.168 565.566 CURVE SMOOTH",
"1266.168 64.919 LINE",
"1135.364 38.59 LINE",
"1135.364 0 LINE"
);
}
);
width = 1619.66474;
}
);
leftKerningGroup = n;
unicode = 006D;
},
{
glyphname = n;
layers = (
{
anchors = (
{
name = bottom;
position = "{614, 0}";
},
{
name = top;
position = "{618, 1146}";
}
);
layerId = "FA6D65B5-4623-4FAC-A199-3F662257AC29";
paths = (
{
closed = 1;
nodes = (
"1172 0 LINE",
"1172 62 LINE",
"1040 97 LINE",
"1040 560 LINE SMOOTH",
"1040 716 OFFCURVE",
"1035 764 OFFCURVE",
"1014 810 CURVE SMOOTH",
"970 899 OFFCURVE",
"882 950 OFFCURVE",
"767 950 CURVE SMOOTH",
"644 950 OFFCURVE",
"510 894 OFFCURVE",
"431 808 CURVE",
"431 697 LINE",
"475 764 OFFCURVE",
"524 792 OFFCURVE",
"595 792 CURVE SMOOTH",
"669 792 OFFCURVE",
"725 760 OFFCURVE",
"750 702 CURVE SMOOTH",
"764 671 OFFCURVE",
"767 628 OFFCURVE",
"767 491 CURVE SMOOTH",
"767 97 LINE",
"644 62 LINE",
"644 0 LINE"
);
},
{
closed = 1;
nodes = (
"576 0 LINE",
"576 62 LINE",
"452 97 LINE",
"452 792 LINE",
"444 801 LINE",
"444 950 LINE",
"405 950 LINE",
"46 864 LINE",
"46 824 LINE",
"180 774 LINE",
"180 97 LINE",
"48 62 LINE",
"48 0 LINE"
);
}
);
width = 1204;
},
{
anchors = (
{
name = bottom;
position = "{555.908, 0}";
},
{
name = top;
position = "{559.908, 1146}";
}
);
layerId = "E9E5A43B-81E4-4E67-9C96-907763DB0C14";
paths = (
{
closed = 1;
nodes = (
"1055.815 0 LINE",
"1055.815 38.59 LINE",
"923.815 64.919 LINE",
"923.815 590.347 LINE SMOOTH",
"923.815 757.618 OFFCURVE",
"920.549 802.15 OFFCURVE",
"901.283 840.347 CURVE SMOOTH",
"865.954 908.538 OFFCURVE",
"787.491 950 OFFCURVE",
"690.699 950 CURVE SMOOTH",
"573.769 950 OFFCURVE",
"449.306 892.266 OFFCURVE",
"350.364 792.393 CURVE",
"350.364 718.676 LINE",
"409.971 800.416 OFFCURVE",
"492.786 845.757 OFFCURVE",
"582.861 845.757 CURVE SMOOTH",
"653.393 845.757 OFFCURVE",
"698.988 818.092 OFFCURVE",
"722.254 763.561 CURVE SMOOTH",
"737.988 725.624 OFFCURVE",
"742.723 671.353 OFFCURVE",
"742.723 565.566 CURVE SMOOTH",
"742.723 64.919 LINE",
"611.919 38.59 LINE",
"611.919 0 LINE"
);
},
{
closed = 1;
nodes = (
"499.699 0 LINE",
"499.699 38.59 LINE",
"368.763 66.653 LINE",
"368.763 784.197 LINE",
"360.763 793.197 LINE",
"360.763 950 LINE",
"340.838 950 LINE",
"56.405 864 LINE",
"56.405 838.74 LINE",
"186.936 789.607 LINE",
"186.936 66.653 LINE",
"54.069 38.59 LINE",
"54.069 0 LINE"
);
}
);
width = 1092.15029;
}
);
leftKerningGroup = n;
rightKerningGroup = n;
unicode = 006E;
},
{
glyphname = eng;
layers = (
{
layerId = "FA6D65B5-4623-4FAC-A199-3F662257AC29";
paths = (
{
closed = 1;
nodes = (
"576 0 LINE",
"576 62 LINE",
"452 97 LINE",
"452 792 LINE",
"444 801 LINE",
"444 950 LINE",
"405 950 LINE",
"46 864 LINE",
"46 824 LINE",
"180 774 LINE",
"180 97 LINE",
"48 62 LINE",
"48 0 LINE"
);
},
{
closed = 1;
nodes = (
"1040 97 LINE",
"1040 560 LINE SMOOTH",
"1040 716 OFFCURVE",
"1035 764 OFFCURVE",
"1014 810 CURVE SMOOTH",
"970 899 OFFCURVE",
"882 950 OFFCURVE",
"767 950 CURVE SMOOTH",
"644 950 OFFCURVE",
"510 894 OFFCURVE",
"431 808 CURVE",
"431 697 LINE",
"475 764 OFFCURVE",
"524 792 OFFCURVE",
"595 792 CURVE SMOOTH",
"669 792 OFFCURVE",
"725 760 OFFCURVE",
"750 702 CURVE SMOOTH",
"764 671 OFFCURVE",
"767 628 OFFCURVE",
"767 491 CURVE SMOOTH",
"767 97 LINE"
);
},
{
closed = 1;
nodes = (
"773 -458 OFFCURVE",
"885 -396 OFFCURVE",
"966 -257 CURVE SMOOTH",
"1023 -160 OFFCURVE",
"1040 -70 OFFCURVE",
"1040 121 CURVE",
"767 201 LINE",
"767 -84 LINE SMOOTH",
"767 -275 OFFCURVE",
"725 -366 OFFCURVE",
"641 -366 CURVE SMOOTH",
"591 -366 OFFCURVE",
"563 -338 OFFCURVE",
"523 -253 CURVE SMOOTH",
"491 -190 OFFCURVE",
"461 -169 OFFCURVE",
"407 -169 CURVE SMOOTH",
"334 -169 OFFCURVE",
"289 -211 OFFCURVE",
"289 -278 CURVE SMOOTH",
"289 -385 OFFCURVE",
"414 -458 OFFCURVE",
"600 -458 CURVE SMOOTH"
);
}
);
width = 1163;
},
{
layerId = "E9E5A43B-81E4-4E67-9C96-907763DB0C14";
paths = (
{
closed = 1;
nodes = (
"499.699 0 LINE",
"499.699 38.59 LINE",
"368.763 66.653 LINE",
"368.763 784.197 LINE",
"360.763 793.197 LINE",
"360.763 950 LINE",
"340.838 950 LINE",
"56.405 864 LINE",
"56.405 838.74 LINE",
"186.936 789.607 LINE",
"186.936 66.653 LINE",
"54.069 38.59 LINE",
"54.069 0 LINE"
);
},
{
closed = 1;
nodes = (
"923.815 219.254 LINE",
"923.815 590.347 LINE SMOOTH",
"923.815 757.618 OFFCURVE",
"920.549 802.15 OFFCURVE",
"901.283 840.347 CURVE SMOOTH",
"865.954 908.538 OFFCURVE",
"787.491 950 OFFCURVE",
"690.699 950 CURVE SMOOTH",
"573.769 950 OFFCURVE",
"449.306 892.266 OFFCURVE",
"350.364 792.393 CURVE",
"350.364 718.676 LINE",
"409.971 800.416 OFFCURVE",
"492.786 845.757 OFFCURVE",
"582.861 845.757 CURVE SMOOTH",
"653.393 845.757 OFFCURVE",
"698.988 818.092 OFFCURVE",
"722.254 763.561 CURVE SMOOTH",
"737.988 725.624 OFFCURVE",
"742.723 671.353 OFFCURVE",
"742.723 565.566 CURVE SMOOTH",
"742.723 219.254 LINE"
);
},
{
closed = 1;
nodes = (
"664.618 -458 OFFCURVE",
"782.688 -380.393 OFFCURVE",
"863.688 -234.457 CURVE SMOOTH",
"915.486 -140.058 OFFCURVE",
"923.815 -71.734 OFFCURVE",
"923.815 252.792 CURVE",
"742.723 315.451 LINE",
"742.723 -84 LINE SMOOTH",
"742.723 -279.335 OFFCURVE",
"696.387 -373.803 OFFCURVE",
"599.382 -373.803 CURVE SMOOTH",
"554.584 -373.803 OFFCURVE",
"534.387 -353.607 OFFCURVE",
"507.393 -284.214 CURVE SMOOTH",
"486.665 -229.884 OFFCURVE",
"458.399 -202.815 OFFCURVE",
"407.867 -202.815 CURVE SMOOTH",
"347.873 -202.815 OFFCURVE",
"309.809 -243.081 OFFCURVE",
"309.809 -308.347 CURVE SMOOTH",
"309.809 -400.607 OFFCURVE",
"390.59 -458 OFFCURVE",
"519.364 -458 CURVE SMOOTH"
);
}
);
width = 1064.15607;
}
);
leftKerningGroup = n;
unicode = 014B;
},
{
glyphname = o;
layers = (
{
anchors = (
{
name = bottom;
position = "{565, -4}";
},
{
name = top;
position = "{565, 1146}";
}
);
layerId = "FA6D65B5-4623-4FAC-A199-3F662257AC29";
paths = (
{
closed = 1;
nodes = (
"887 -18 OFFCURVE",
"1067 201 OFFCURVE",
"1067 466 CURVE SMOOTH",
"1067 732 OFFCURVE",
"887 950 OFFCURVE",
"565 950 CURVE SMOOTH",
"243 950 OFFCURVE",
"63 732 OFFCURVE",
"63 466 CURVE SMOOTH",
"63 201 OFFCURVE",
"243 -18 OFFCURVE",
"565 -18 CURVE SMOOTH"
);
},
{
closed = 1;
nodes = (
"391 72 OFFCURVE",
"359 303 OFFCURVE",
"359 466 CURVE SMOOTH",
"359 628 OFFCURVE",
"391 859 OFFCURVE",
"565 859 CURVE SMOOTH",
"739 859 OFFCURVE",
"771 628 OFFCURVE",
"771 466 CURVE SMOOTH",
"771 303 OFFCURVE",
"736 72 OFFCURVE",
"565 72 CURVE SMOOTH"
);
}
);
width = 1130;
},
{
anchors = (
{
name = bottom;
position = "{546.792, -4}";
},
{
name = top;
position = "{546.792, 1146}";
}
);
layerId = "E9E5A43B-81E4-4E67-9C96-907763DB0C14";
paths = (
{
closed = 1;
nodes = (
"818.503 -18 OFFCURVE",
"1013.243 189.728 OFFCURVE",
"1013.243 466 CURVE SMOOTH",
"1013.243 742.405 OFFCURVE",
"818.503 950 OFFCURVE",
"545.058 950 CURVE SMOOTH",
"271.613 950 OFFCURVE",
"76.873 742.405 OFFCURVE",
"76.873 466 CURVE SMOOTH",
"76.873 189.728 OFFCURVE",
"271.613 -18 OFFCURVE",
"545.058 -18 CURVE SMOOTH"
);
},
{
closed = 1;
nodes = (
"372.792 63.329 OFFCURVE",
"278.364 224.965 OFFCURVE",
"278.364 466 CURVE SMOOTH",
"278.364 707.769 OFFCURVE",
"372.792 869.405 OFFCURVE",
"545.058 869.405 CURVE SMOOTH",
"718.191 869.405 OFFCURVE",
"811.751 707.769 OFFCURVE",
"811.751 467.734 CURVE SMOOTH",
"811.751 226.699 OFFCURVE",
"716.058 63.329 OFFCURVE",
"543.324 63.329 CURVE SMOOTH"
);
}
);
width = 1090.11561;
}
);
leftKerningGroup = o;
rightKerningGroup = o;
unicode = 006F;
},
{
glyphname = oslash;
layers = (
{
layerId = "FA6D65B5-4623-4FAC-A199-3F662257AC29";
paths = (
{
closed = 1;
nodes = (
"896 -18 OFFCURVE",
"1075 201 OFFCURVE",
"1075 466 CURVE SMOOTH",
"1075 591 OFFCURVE",
"1035 706 OFFCURVE",
"959 792 CURVE",
"1096 933 LINE",
"963 933 LINE",
"889 857 LINE",
"808 915 OFFCURVE",
"702 950 OFFCURVE",
"574 950 CURVE SMOOTH",
"252 950 OFFCURVE",
"72 732 OFFCURVE",
"72 466 CURVE SMOOTH",
"72 340 OFFCURVE",
"113 225 OFFCURVE",
"188 139 CURVE",
"55 0 LINE",
"187 0 LINE",
"259 74 LINE",
"340 16 OFFCURVE",
"445 -18 OFFCURVE",
"574 -18 CURVE SMOOTH"
);
},
{
closed = 1;
nodes = (
"482 72 OFFCURVE",
"429 136 OFFCURVE",
"401 220 CURVE",
"771 598 LINE",
"776 553 OFFCURVE",
"780 507 OFFCURVE",
"780 466 CURVE SMOOTH",
"780 303 OFFCURVE",
"744 72 OFFCURVE",
"574 72 CURVE SMOOTH"
);
},
{
closed = 1;
nodes = (
"370 377 OFFCURVE",
"368 424 OFFCURVE",
"368 466 CURVE SMOOTH",
"368 628 OFFCURVE",
"400 859 OFFCURVE",
"574 859 CURVE SMOOTH",
"665 859 OFFCURVE",
"716 796 OFFCURVE",
"746 711 CURVE",
"377 331 LINE"
);
}
);
width = 1148;
},
{
layerId = "E9E5A43B-81E4-4E67-9C96-907763DB0C14";
paths = (
{
closed = 1;
nodes = (
"827.503 -18 OFFCURVE",
"1022.11 189.728 OFFCURVE",
"1022.11 466 CURVE SMOOTH",
"1022.11 586.665 OFFCURVE",
"984.711 693.861 OFFCURVE",
"920.85 776.393 CURVE",
"1071.723 933 LINE",
"961.266 933 LINE",
"865.59 834.457 LINE",
"784.59 907.197 OFFCURVE",
"677.723 950 OFFCURVE",
"554.058 950 CURVE SMOOTH",
"280.613 950 OFFCURVE",
"85.873 742.405 OFFCURVE",
"85.873 466 CURVE SMOOTH",
"85.873 338.266 OFFCURVE",
"126.006 226.734 OFFCURVE",
"197.538 142.468 CURVE",
"61.069 0 LINE",
"169.659 0 LINE",
"252.931 86.139 LINE",
"332.197 20.335 OFFCURVE",
"436.329 -18 OFFCURVE",
"554.058 -18 CURVE SMOOTH"
);
},
{
closed = 1;
nodes = (
"462.058 63.329 OFFCURVE",
"392.584 106.52 OFFCURVE",
"348.11 185.318 CURVE",
"798.746 648.289 LINE",
"812.416 595.486 OFFCURVE",
"820.751 534.746 OFFCURVE",
"820.751 467.734 CURVE SMOOTH",
"820.751 226.699 OFFCURVE",
"724.925 63.329 OFFCURVE",
"552.324 63.329 CURVE SMOOTH"
);
},
{
closed = 1;
nodes = (
"296.301 320.642 OFFCURVE",
"287.364 389.318 OFFCURVE",
"287.364 466 CURVE SMOOTH",
"287.364 707.769 OFFCURVE",
"380.925 869.405 OFFCURVE",
"554.058 869.405 CURVE SMOOTH",
"650.26 869.405 OFFCURVE",
"722.069 818.543 OFFCURVE",
"767.676 732.676 CURVE",
"315.439 263.37 LINE"
);
}
);
width = 1114.18497;
}
);
leftKerningGroup = o;
rightKerningGroup = o;
unicode = 00F8;
},
{
glyphname = oslashacute;
layers = (
{
components = (
{
name = acute;
transform = "{1, 0, 0, 1, 505, 0}";
}
);
layerId = "FA6D65B5-4623-4FAC-A199-3F662257AC29";
paths = (
{
closed = 1;
nodes = (
"896 -18 OFFCURVE",
"1075 201 OFFCURVE",
"1075 466 CURVE SMOOTH",
"1075 591 OFFCURVE",
"1035 706 OFFCURVE",
"959 792 CURVE",
"1096 933 LINE",
"963 933 LINE",
"889 857 LINE",
"808 915 OFFCURVE",
"702 950 OFFCURVE",
"574 950 CURVE SMOOTH",
"252 950 OFFCURVE",
"72 732 OFFCURVE",
"72 466 CURVE SMOOTH",
"72 340 OFFCURVE",
"113 225 OFFCURVE",
"188 139 CURVE",
"55 0 LINE",
"187 0 LINE",
"259 74 LINE",
"340 16 OFFCURVE",
"445 -18 OFFCURVE",
"574 -18 CURVE SMOOTH"
);
},
{
closed = 1;
nodes = (
"482 72 OFFCURVE",
"429 136 OFFCURVE",
"401 220 CURVE",
"771 598 LINE",
"776 553 OFFCURVE",
"780 507 OFFCURVE",
"780 466 CURVE SMOOTH",
"780 303 OFFCURVE",
"744 72 OFFCURVE",
"574 72 CURVE SMOOTH"
);
},
{
closed = 1;
nodes = (
"370 377 OFFCURVE",
"368 424 OFFCURVE",
"368 466 CURVE SMOOTH",
"368 628 OFFCURVE",
"400 859 OFFCURVE",
"574 859 CURVE SMOOTH",
"665 859 OFFCURVE",
"716 796 OFFCURVE",
"746 711 CURVE",
"377 331 LINE"
);
}
);
width = 1148;
},
{
components = (
{
alignment = -1;
name = acute;
transform = "{1, 0, 0, 1, 476.387, 0}";
}
);
layerId = "E9E5A43B-81E4-4E67-9C96-907763DB0C14";
paths = (
{
closed = 1;
nodes = (
"827.503 -18 OFFCURVE",
"1022.11 189.728 OFFCURVE",
"1022.11 466 CURVE SMOOTH",
"1022.11 586.665 OFFCURVE",
"984.711 693.861 OFFCURVE",
"920.85 776.393 CURVE",
"1071.723 933 LINE",
"961.266 933 LINE",
"865.59 834.457 LINE",
"784.59 907.197 OFFCURVE",
"677.723 950 OFFCURVE",
"554.058 950 CURVE SMOOTH",
"280.613 950 OFFCURVE",
"85.873 742.405 OFFCURVE",
"85.873 466 CURVE SMOOTH",
"85.873 338.266 OFFCURVE",
"126.006 226.734 OFFCURVE",
"197.538 142.468 CURVE",
"61.069 0 LINE",
"169.659 0 LINE",
"252.931 86.139 LINE",
"332.197 20.335 OFFCURVE",
"436.329 -18 OFFCURVE",
"554.058 -18 CURVE SMOOTH"
);
},
{
closed = 1;
nodes = (
"462.058 63.329 OFFCURVE",
"392.584 106.52 OFFCURVE",
"348.11 185.318 CURVE",
"798.746 648.289 LINE",
"812.416 595.486 OFFCURVE",
"820.751 534.746 OFFCURVE",
"820.751 467.734 CURVE SMOOTH",
"820.751 226.699 OFFCURVE",
"724.925 63.329 OFFCURVE",
"552.324 63.329 CURVE SMOOTH"
);
},
{
closed = 1;
nodes = (
"296.301 320.642 OFFCURVE",
"287.364 389.318 OFFCURVE",
"287.364 466 CURVE SMOOTH",
"287.364 707.769 OFFCURVE",
"380.925 869.405 OFFCURVE",
"554.058 869.405 CURVE SMOOTH",
"650.26 869.405 OFFCURVE",
"722.069 818.543 OFFCURVE",
"767.676 732.676 CURVE",
"315.439 263.37 LINE"
);
}
);
width = 1114.18497;
}
);
leftKerningGroup = o;
rightKerningGroup = o;
unicode = 01FF;
},
{
glyphname = p;
layers = (
{
layerId = "FA6D65B5-4623-4FAC-A199-3F662257AC29";
paths = (
{
closed = 1;
nodes = (
"679 -440 LINE",
"679 -398 LINE",
"444 -352 LINE",
"444 9 LINE",
"496 -9 OFFCURVE",
"547 -18 OFFCURVE",
"611 -18 CURVE SMOOTH",
"922 -18 OFFCURVE",
"1125 181 OFFCURVE",
"1125 488 CURVE SMOOTH",
"1125 759 OFFCURVE",
"961 950 OFFCURVE",
"730 950 CURVE SMOOTH",
"614 950 OFFCURVE",
"502 901 OFFCURVE",
"436 820 CURVE",
"428 820 LINE",
"428 950 LINE",
"387 950 LINE",
"23 866 LINE",
"23 824 LINE",
"171 776 LINE",
"171 -352 LINE",
"18 -398 LINE",
"18 -440 LINE"
);
},
{
closed = 1;
nodes = (
"521 77 OFFCURVE",
"444 164 OFFCURVE",
"444 271 CURVE SMOOTH",
"444 709 LINE",
"472 769 OFFCURVE",
"547 813 OFFCURVE",
"620 813 CURVE SMOOTH",
"746 813 OFFCURVE",
"827 676 OFFCURVE",
"827 458 CURVE SMOOTH",
"827 232 OFFCURVE",
"741 77 OFFCURVE",
"614 77 CURVE SMOOTH"
);
}
);
width = 1192;
},
{
layerId = "E9E5A43B-81E4-4E67-9C96-907763DB0C14";
paths = (
{
closed = 1;
nodes = (
"535.936 -440 LINE",
"535.936 -405.803 LINE",
"353.827 -376.277 LINE",
"353.827 9 LINE",
"411.029 -10.734 OFFCURVE",
"466.364 -18 OFFCURVE",
"523.428 -18 CURVE SMOOTH",
"817.087 -18 OFFCURVE",
"1016.618 186.202 OFFCURVE",
"1016.618 481.064 CURVE SMOOTH",
"1016.618 752.931 OFFCURVE",
"863.023 950 OFFCURVE",
"641.561 950 CURVE SMOOTH",
"535.965 950 OFFCURVE",
"423.965 902.734 OFFCURVE",
"353.63 799.191 CURVE",
"346.497 799.191 LINE",
"346.497 950 LINE",
"324.572 950 LINE",
"41.208 866 LINE",
"41.208 838.74 LINE",
"171.867 791.607 LINE",
"171.867 -376.277 LINE",
"37.075 -405.803 LINE",
"37.075 -440 LINE"
);
},
{
closed = 1;
nodes = (
"435.162 40.584 OFFCURVE",
"360.763 113.711 OFFCURVE",
"360.763 216.376 CURVE SMOOTH",
"360.763 730.676 LINE",
"390.497 788.942 OFFCURVE",
"478.503 832.942 OFFCURVE",
"550.636 832.942 CURVE SMOOTH",
"715.653 832.942 OFFCURVE",
"818.329 688.139 OFFCURVE",
"818.329 452.798 CURVE SMOOTH",
"818.329 209.457 OFFCURVE",
"702.85 40.584 OFFCURVE",
"529.896 40.584 CURVE SMOOTH"
);
}
);
width = 1096.62428;
}
);
rightKerningGroup = b;
unicode = 0070;
},
{
glyphname = thorn;
layers = (
{
layerId = "FA6D65B5-4623-4FAC-A199-3F662257AC29";
paths = (
{
closed = 1;
nodes = (
"648 -440 LINE",
"648 -398 LINE",
"412 -352 LINE",
"412 9 LINE",
"466 -9 OFFCURVE",
"517 -18 OFFCURVE",
"579 -18 CURVE SMOOTH",
"891 -18 OFFCURVE",
"1093 185 OFFCURVE",
"1093 496 CURVE SMOOTH",
"1093 767 OFFCURVE",
"938 950 OFFCURVE",
"708 950 CURVE SMOOTH",
"597 950 OFFCURVE",
"496 908 OFFCURVE",
"412 825 CURVE",
"412 1461 LINE",
"373 1461 LINE",
"-9 1375 LINE",
"-9 1334 LINE",
"139 1287 LINE",
"139 -352 LINE",
"-14 -398 LINE",
"-14 -440 LINE"
);
},
{
closed = 1;
nodes = (
"488 77 OFFCURVE",
"412 162 OFFCURVE",
"412 271 CURVE SMOOTH",
"412 711 LINE",
"456 778 OFFCURVE",
"516 813 OFFCURVE",
"583 813 CURVE SMOOTH",
"716 813 OFFCURVE",
"796 681 OFFCURVE",
"796 458 CURVE SMOOTH",
"796 229 OFFCURVE",
"711 77 OFFCURVE",
"583 77 CURVE SMOOTH"
);
}
);
width = 1160;
},
{
layerId = "E9E5A43B-81E4-4E67-9C96-907763DB0C14";
paths = (
{
closed = 1;
nodes = (
"509.272 -440 LINE",
"509.272 -405.803 LINE",
"326.162 -376.277 LINE",
"326.162 9 LINE",
"379.295 -9 OFFCURVE",
"434.63 -18 OFFCURVE",
"494.896 -18 CURVE SMOOTH",
"794.757 -18 OFFCURVE",
"994.156 187.601 OFFCURVE",
"994.156 496 CURVE SMOOTH",
"994.156 767 OFFCURVE",
"839.156 950 OFFCURVE",
"608.289 950 CURVE SMOOTH",
"500.757 950 OFFCURVE",
"409.295 911.468 OFFCURVE",
"333.965 830.202 CURVE",
"333.965 1461 LINE",
"313.173 1461 LINE",
"20.48 1375 LINE",
"20.48 1349.607 LINE",
"151.139 1301.74 LINE",
"151.139 -376.277 LINE",
"16.347 -405.803 LINE",
"16.347 -440 LINE"
);
},
{
closed = 1;
nodes = (
"404.763 40.584 OFFCURVE",
"333.965 113.445 OFFCURVE",
"333.965 216.376 CURVE SMOOTH",
"333.965 756.954 LINE",
"381.434 816.15 OFFCURVE",
"450.104 849.416 OFFCURVE",
"525.775 849.416 CURVE SMOOTH",
"689.121 849.416 OFFCURVE",
"790.798 700.942 OFFCURVE",
"790.798 462.335 CURVE SMOOTH",
"790.798 213.393 OFFCURVE",
"676.318 40.584 OFFCURVE",
"509.301 40.584 CURVE SMOOTH"
);
}
);
width = 1074.16185;
}
);
leftKerningGroup = b;
rightKerningGroup = b;
unicode = 00FE;
},
{
glyphname = q;
layers = (
{
layerId = "FA6D65B5-4623-4FAC-A199-3F662257AC29";
paths = (
{
closed = 1;
nodes = (
"1181 -440 LINE",
"1181 -398 LINE",
"1028 -352 LINE",
"1028 929 LINE",
"979 929 LINE",
"834 869 LINE",
"824 869 LINE",
"746 922 OFFCURVE",
"648 950 OFFCURVE",
"553 950 CURVE SMOOTH",
"262 950 OFFCURVE",
"67 750 OFFCURVE",
"67 428 CURVE SMOOTH",
"67 164 OFFCURVE",
"229 -18 OFFCURVE",
"465 -18 CURVE SMOOTH",
"577 -18 OFFCURVE",
"678 23 OFFCURVE",
"757 102 CURVE",
"757 -352 LINE",
"519 -398 LINE",
"519 -440 LINE"
);
},
{
closed = 1;
nodes = (
"445 109 OFFCURVE",
"371 246 OFFCURVE",
"371 477 CURVE SMOOTH",
"371 729 OFFCURVE",
"456 855 OFFCURVE",
"588 855 CURVE SMOOTH",
"686 855 OFFCURVE",
"757 767 OFFCURVE",
"757 634 CURVE SMOOTH",
"757 201 LINE",
"713 144 OFFCURVE",
"651 109 OFFCURVE",
"577 109 CURVE SMOOTH"
);
}
);
width = 1167;
},
{
layerId = "E9E5A43B-81E4-4E67-9C96-907763DB0C14";
paths = (
{
closed = 1;
nodes = (
"1057.012 -440 LINE",
"1057.012 -405.803 LINE",
"922.22 -376.277 LINE",
"922.22 929 LINE",
"891.428 929 LINE",
"803.653 869 LINE",
"794.52 869 LINE",
"723.457 922 OFFCURVE",
"636.728 950 OFFCURVE",
"547.798 950 CURVE SMOOTH",
"268.069 950 OFFCURVE",
"80.873 750 OFFCURVE",
"80.873 428 CURVE SMOOTH",
"80.873 164 OFFCURVE",
"239.405 -18 OFFCURVE",
"471.069 -18 CURVE SMOOTH",
"576.133 -18 OFFCURVE",
"666.728 23 OFFCURVE",
"741.393 102 CURVE",
"741.393 -376.277 LINE",
"558.884 -405.803 LINE",
"558.884 -440 LINE"
);
},
{
closed = 1;
nodes = (
"384.306 81.254 OFFCURVE",
"284.295 231.26 OFFCURVE",
"284.295 477 CURVE SMOOTH",
"284.295 751.543 OFFCURVE",
"393.572 888.815 OFFCURVE",
"552.451 888.815 CURVE SMOOTH",
"666.925 888.815 OFFCURVE",
"741.393 800.815 OFFCURVE",
"741.393 666.948 CURVE SMOOTH",
"741.393 173.254 LINE",
"695.659 117.121 OFFCURVE",
"628.457 81.254 OFFCURVE",
"550.121 81.254 CURVE SMOOTH"
);
}
);
width = 1074.22543;
}
);
leftKerningGroup = d;
unicode = 0071;
},
{
glyphname = r;
layers = (
{
anchors = (
{
name = bottom;
position = "{308, -4}";
},
{
name = top;
position = "{449, 1146}";
}
);
layerId = "FA6D65B5-4623-4FAC-A199-3F662257AC29";
paths = (
{
closed = 1;
nodes = (
"683 0 LINE",
"683 62 LINE",
"452 97 LINE",
"452 781 LINE",
"444 790 LINE",
"444 950 LINE",
"407 950 LINE",
"46 866 LINE",
"46 824 LINE",
"180 774 LINE",
"180 97 LINE",
"48 62 LINE",
"48 0 LINE"
);
},
{
closed = 1;
nodes = (
"456 671 OFFCURVE",
"452 674 OFFCURVE",
"495 729 CURVE SMOOTH",
"517 759 OFFCURVE",
"547 773 OFFCURVE",
"577 773 CURVE SMOOTH",
"605 773 OFFCURVE",
"630 760 OFFCURVE",
"665 730 CURVE SMOOTH",
"692 708 OFFCURVE",
"720 697 OFFCURVE",
"752 697 CURVE SMOOTH",
"813 697 OFFCURVE",
"861 752 OFFCURVE",
"861 822 CURVE SMOOTH",
"861 896 OFFCURVE",
"796 952 OFFCURVE",
"708 952 CURVE SMOOTH",
"621 952 OFFCURVE",
"528 892 OFFCURVE",
"435 781 CURVE",
"452 651 LINE"
);
}
);
width = 869;
},
{
anchors = (
{
name = bottom;
position = "{277.653, -4}";
},
{
name = top;
position = "{418.653, 1146}";
}
);
layerId = "E9E5A43B-81E4-4E67-9C96-907763DB0C14";
paths = (
{
closed = 1;
nodes = (
"552.942 0 LINE",
"552.942 38.59 LINE",
"369.63 66.653 LINE",
"369.63 750.653 LINE",
"362.497 759.653 LINE",
"362.497 951.734 LINE",
"342.838 951.734 LINE",
"58.139 866 LINE",
"58.139 840.474 LINE",
"188.671 791.341 LINE",
"188.671 66.653 LINE",
"54.936 38.59 LINE",
"54.936 0 LINE"
);
},
{
closed = 1;
nodes = (
"375.364 696.145 OFFCURVE",
"379.168 704.347 OFFCURVE",
"419.566 759.347 CURVE SMOOTH",
"442.434 791.081 OFFCURVE",
"463.763 803.347 OFFCURVE",
"492.029 803.347 CURVE SMOOTH",
"513.96 803.347 OFFCURVE",
"527.688 795.549 OFFCURVE",
"550.549 768.15 CURVE SMOOTH",
"568.012 747.017 OFFCURVE",
"593.41 735.15 OFFCURVE",
"620.208 735.15 CURVE SMOOTH",
"678.607 735.15 OFFCURVE",
"723.139 780.613 OFFCURVE",
"723.139 838.474 CURVE SMOOTH",
"723.139 902.069 OFFCURVE",
"672.012 952 OFFCURVE",
"606.555 952 CURVE SMOOTH",
"529.96 952 OFFCURVE",
"441.295 879.861 OFFCURVE",
"353.497 750.653 CURVE",
"369.63 674.41 LINE"
);
}
);
width = 748.47977;
}
);
leftKerningGroup = n;
rightKerningGroup = r;
unicode = 0072;
},
{
glyphname = s;
layers = (
{
anchors = (
{
name = bottom;
position = "{409, 0}";
},
{
name = top;
position = "{433, 1146}";
}
);
layerId = "FA6D65B5-4623-4FAC-A199-3F662257AC29";
paths = (
{
closed = 1;
nodes = (
"614 -18 OFFCURVE",
"755 93 OFFCURVE",
"755 283 CURVE SMOOTH",
"755 614 OFFCURVE",
"331 577 OFFCURVE",
"331 757 CURVE SMOOTH",
"331 820 OFFCURVE",
"384 862 OFFCURVE",
"465 862 CURVE SMOOTH",
"565 862 OFFCURVE",
"625 799 OFFCURVE",
"641 676 CURVE",
"709 676 LINE",
"709 920 LINE",
"658 938 OFFCURVE",
"567 950 OFFCURVE",
"477 950 CURVE SMOOTH",
"222 950 OFFCURVE",
"90 857 OFFCURVE",
"90 679 CURVE SMOOTH",
"90 359 OFFCURVE",
"517 389 OFFCURVE",
"517 197 CURVE SMOOTH",
"517 121 OFFCURVE",
"458 70 OFFCURVE",
"368 70 CURVE SMOOTH",
"246 70 OFFCURVE",
"174 153 OFFCURVE",
"164 306 CURVE",
"88 306 LINE",
"99 19 LINE",
"172 -4 OFFCURVE",
"283 -18 OFFCURVE",
"373 -18 CURVE SMOOTH"
);
}
);
width = 825;
},
{
anchors = (
{
name = bottom;
position = "{365.647, 0}";
},
{
name = top;
position = "{406.988, 1146}";
}
);
layerId = "E9E5A43B-81E4-4E67-9C96-907763DB0C14";
paths = (
{
closed = 1;
nodes = (
"561.977 -18 OFFCURVE",
"689.104 93 OFFCURVE",
"689.104 269.994 CURVE SMOOTH",
"689.104 599.26 OFFCURVE",
"252.965 530.179 OFFCURVE",
"252.965 755.266 CURVE SMOOTH",
"252.965 839.942 OFFCURVE",
"312.035 893.214 OFFCURVE",
"403.439 893.214 CURVE SMOOTH",
"520.78 893.214 OFFCURVE",
"588.584 818.942 OFFCURVE",
"605.451 676 CURVE",
"646.572 676 LINE",
"646.572 920 LINE",
"601.642 938 OFFCURVE",
"516.711 950 OFFCURVE",
"435.382 950 CURVE SMOOTH",
"220.266 950 OFFCURVE",
"100.405 857 OFFCURVE",
"100.405 691.139 CURVE SMOOTH",
"100.405 375.474 OFFCURVE",
"540.41 436.688 OFFCURVE",
"540.41 197 CURVE SMOOTH",
"540.41 101.925 OFFCURVE",
"472.74 39.653 OFFCURVE",
"369.734 39.653 CURVE SMOOTH",
"237.329 39.653 OFFCURVE",
"161.861 131.324 OFFCURVE",
"146.659 306 CURVE",
"100.139 306 LINE",
"111.139 20.734 LINE",
"179.803 -2.266 OFFCURVE",
"282.133 -18 OFFCURVE",
"358.26 -18 CURVE SMOOTH"
);
}
);
width = 773.84393;
}
);
leftKerningGroup = s;
rightKerningGroup = s;
unicode = 0073;
},
{
glyphname = germandbls;
layers = (
{
layerId = "FA6D65B5-4623-4FAC-A199-3F662257AC29";
paths = (
{
closed = 1;
nodes = (
"1155 -18 OFFCURVE",
"1285 100 OFFCURVE",
"1285 306 CURVE SMOOTH",
"1285 649 OFFCURVE",
"861 616 OFFCURVE",
"861 780 CURVE SMOOTH",
"861 896 OFFCURVE",
"1065 1003 OFFCURVE",
"1065 1197 CURVE SMOOTH",
"1065 1359 OFFCURVE",
"919 1461 OFFCURVE",
"686 1461 CURVE SMOOTH",
"475 1461 OFFCURVE",
"297 1373 OFFCURVE",
"236 1237 CURVE SMOOTH",
"208 1177 OFFCURVE",
"199 1095 OFFCURVE",
"199 908 CURVE SMOOTH",
"199 97 LINE",
"49 62 LINE",
"49 0 LINE",
"600 0 LINE",
"600 62 LINE",
"472 97 LINE",
"472 1030 LINE SMOOTH",
"472 1290 OFFCURVE",
"514 1371 OFFCURVE",
"649 1371 CURVE SMOOTH",
"766 1371 OFFCURVE",
"824 1313 OFFCURVE",
"824 1199 CURVE SMOOTH",
"824 1001 OFFCURVE",
"655 852 OFFCURVE",
"655 664 CURVE SMOOTH",
"655 385 OFFCURVE",
"1047 396 OFFCURVE",
"1047 211 CURVE SMOOTH",
"1047 128 OFFCURVE",
"993 70 OFFCURVE",
"915 70 CURVE SMOOTH",
"815 70 OFFCURVE",
"755 155 OFFCURVE",
"746 306 CURVE",
"671 306 LINE",
"681 19 LINE",
"743 -4 OFFCURVE",
"838 -18 OFFCURVE",
"922 -18 CURVE SMOOTH"
);
},
{
closed = 1;
nodes = (
"412 815 LINE",
"436 898 LINE",
"65 898 LINE",
"40 815 LINE"
);
}
);
width = 1331;
},
{
layerId = "E9E5A43B-81E4-4E67-9C96-907763DB0C14";
paths = (
{
closed = 1;
nodes = (
"1064.827 -18 OFFCURVE",
"1190.491 93.931 OFFCURVE",
"1190.491 273.052 CURVE SMOOTH",
"1190.491 602.179 OFFCURVE",
"753.486 537.965 OFFCURVE",
"753.486 756.59 CURVE SMOOTH",
"753.486 909.873 OFFCURVE",
"967.023 1022.942 OFFCURVE",
"967.023 1217.809 CURVE SMOOTH",
"967.023 1367.671 OFFCURVE",
"842.699 1461 OFFCURVE",
"640.913 1461 CURVE SMOOTH",
"448.121 1461 OFFCURVE",
"290.064 1374.734 OFFCURVE",
"232.532 1237 CURVE SMOOTH",
"208 1176.133 OFFCURVE",
"200.734 1101.069 OFFCURVE",
"200.734 908 CURVE SMOOTH",
"200.734 64.919 LINE",
"66.341 36.855 LINE",
"66.341 0 LINE",
"529.769 0 LINE",
"529.769 36.855 LINE",
"381.827 64.919 LINE",
"381.827 1030 LINE SMOOTH",
"381.827 1271.792 OFFCURVE",
"457.642 1393.543 OFFCURVE",
"606.514 1393.543 CURVE SMOOTH",
"726.116 1393.543 OFFCURVE",
"804.058 1315.601 OFFCURVE",
"804.058 1193.798 CURVE SMOOTH",
"804.058 1000.133 OFFCURVE",
"605.578 876.277 OFFCURVE",
"605.578 680.474 CURVE SMOOTH",
"605.578 390.202 OFFCURVE",
"1040.931 434.15 OFFCURVE",
"1040.931 197.127 CURVE SMOOTH",
"1040.931 102.855 OFFCURVE",
"974.792 39.653 OFFCURVE",
"870.78 39.653 CURVE SMOOTH",
"743.035 39.653 OFFCURVE",
"668.295 131.59 OFFCURVE",
"654.96 306 CURVE",
"607.705 306 LINE",
"618.572 20.734 LINE",
"686.642 -2.266 OFFCURVE",
"785.977 -18 OFFCURVE",
"861.306 -18 CURVE SMOOTH"
);
},
{
closed = 1;
nodes = (
"309.688 837.543 LINE",
"331.087 898 LINE",
"66.734 898 LINE",
"45.202 837.543 LINE"
);
}
);
width = 1235.62428;
}
);
leftKerningGroup = f;
unicode = 00DF;
},
{
glyphname = t;
layers = (
{
anchors = (
{
name = bottom;
position = "{422, 0}";
}
);
layerId = "FA6D65B5-4623-4FAC-A199-3F662257AC29";
paths = (
{
closed = 1;
nodes = (
"535 -18 OFFCURVE",
"637 23 OFFCURVE",
"699 100 CURVE",
"658 158 LINE",
"627 121 OFFCURVE",
"590 109 OFFCURVE",
"549 109 CURVE SMOOTH",
"507 109 OFFCURVE",
"475 127 OFFCURVE",
"456 158 CURVE SMOOTH",
"442 180 OFFCURVE",
"438 206 OFFCURVE",
"438 292 CURVE SMOOTH",
"438 845 LINE",
"685 845 LINE",
"711 933 LINE",
"438 933 LINE",
"438 1160 LINE",
"384 1169 LINE",
"30 899 LINE",
"40 845 LINE",
"165 845 LINE",
"165 232 LINE SMOOTH",
"165 137 OFFCURVE",
"180 70 OFFCURVE",
"232 32 CURVE SMOOTH",
"276 0 OFFCURVE",
"347 -18 OFFCURVE",
"417 -18 CURVE SMOOTH"
);
}
);
width = 715;
},
{
anchors = (
{
name = bottom;
position = "{376.913, 0}";
}
);
layerId = "E9E5A43B-81E4-4E67-9C96-907763DB0C14";
paths = (
{
closed = 1;
nodes = (
"469.104 -18 OFFCURVE",
"562.434 31.671 OFFCURVE",
"616.63 112.139 CURVE",
"585.168 139.792 LINE",
"550.699 96.723 OFFCURVE",
"501.561 70.85 OFFCURVE",
"454.491 70.85 CURVE SMOOTH",
"415.092 70.85 OFFCURVE",
"383.96 88.85 OFFCURVE",
"365.827 119.85 CURVE SMOOTH",
"353.561 141.85 OFFCURVE",
"349.561 167.85 OFFCURVE",
"349.561 253.85 CURVE SMOOTH",
"349.561 867.543 LINE",
"588.757 867.543 LINE",
"604.353 933 LINE",
"349.561 933 LINE",
"349.561 1160 LINE",
"314.636 1163.798 LINE",
"48.208 899 LINE",
"53.006 867.543 LINE",
"168.468 867.543 LINE",
"168.468 232 LINE SMOOTH",
"168.468 126.595 OFFCURVE",
"184.335 70 OFFCURVE",
"227.665 32 CURVE SMOOTH",
"262.127 0 OFFCURVE",
"314.919 -18 OFFCURVE",
"371.046 -18 CURVE SMOOTH"
);
}
);
width = 629.16185;
}
);
leftKerningGroup = t;
rightKerningGroup = t;
unicode = 0074;
},
{
glyphname = tbar;
layers = (
{
components = (
{
name = t;
transform = "{1, 0, 0, 1, 2, 0}";
}
);
layerId = "FA6D65B5-4623-4FAC-A199-3F662257AC29";
paths = (
{
closed = 1;
nodes = (
"658 577 LINE",
"658 674 LINE",
"48 674 LINE",
"48 577 LINE"
);
}
);
width = 718;
},
{
components = (
{
alignment = -1;
name = t;
transform = "{1, 0, 0, 1, 2, 0}";
}
);
layerId = "E9E5A43B-81E4-4E67-9C96-907763DB0C14";
paths = (
{
closed = 1;
nodes = (
"591.237 590.873 LINE",
"591.237 661.861 LINE",
"56.671 661.861 LINE",
"56.671 590.873 LINE"
);
}
);
width = 633.89595;
}
);
leftKerningGroup = t;
rightKerningGroup = t;
unicode = 0167;
},
{
glyphname = u;
layers = (
{
anchors = (
{
name = bottom;
position = "{746, 0}";
},
{
name = top;
position = "{519, 1146}";
}
);
layerId = "FA6D65B5-4623-4FAC-A199-3F662257AC29";
paths = (
{
closed = 1;
nodes = (
"553 -18 OFFCURVE",
"692 48 OFFCURVE",
"773 143 CURVE",
"773 268 LINE",
"737 185 OFFCURVE",
"678 143 OFFCURVE",
"602 143 CURVE SMOOTH",
"524 143 OFFCURVE",
"477 176 OFFCURVE",
"454 239 CURVE SMOOTH",
"440 275 OFFCURVE",
"436 326 OFFCURVE",
"436 451 CURVE SMOOTH",
"436 933 LINE",
"32 933 LINE",
"32 871 LINE",
"164 836 LINE",
"164 373 LINE SMOOTH",
"164 211 OFFCURVE",
"169 167 OFFCURVE",
"190 123 CURVE SMOOTH",
"234 30 OFFCURVE",
"319 -18 OFFCURVE",
"431 -18 CURVE SMOOTH"
);
},
{
closed = 1;
nodes = (
"773 -18 LINE",
"1132 69 LINE",
"1132 109 LINE",
"998 158 LINE",
"998 933 LINE",
"602 933 LINE",
"602 871 LINE",
"725 836 LINE",
"725 141 LINE",
"729 99 LINE",
"734 93 LINE",
"734 -18 LINE"
);
}
);
width = 1169;
},
{
anchors = (
{
name = bottom;
position = "{746, 0}";
},
{
name = top;
position = "{519, 1146}";
}
);
layerId = "E9E5A43B-81E4-4E67-9C96-907763DB0C14";
paths = (
{
closed = 1;
nodes = (
"519.185 -18 OFFCURVE",
"635.642 41.064 OFFCURVE",
"719.243 143.867 CURVE",
"719.243 214.243 LINE",
"659.832 131.243 OFFCURVE",
"580.023 85.775 OFFCURVE",
"497.954 85.775 CURVE SMOOTH",
"435.561 85.775 OFFCURVE",
"390.295 111.838 OFFCURVE",
"371.63 155.763 CURVE SMOOTH",
"355.896 190.896 OFFCURVE",
"351.029 243.63 OFFCURVE",
"351.029 354.757 CURVE SMOOTH",
"351.029 933 LINE",
"38.069 933 LINE",
"38.069 894.41 LINE",
"170.069 866.347 LINE",
"170.069 344.387 LINE SMOOTH",
"170.069 182.387 OFFCURVE",
"175.069 136.653 OFFCURVE",
"194.335 94.387 CURVE SMOOTH",
"229.665 22.197 OFFCURVE",
"303.393 -18 OFFCURVE",
"400.653 -18 CURVE SMOOTH"
);
},
{
closed = 1;
nodes = (
"735.717 -18 LINE",
"1012.347 69 LINE",
"1012.347 92.526 LINE",
"891.353 135.457 LINE",
"891.353 933 LINE",
"579.457 933 LINE",
"579.457 894.41 LINE",
"710.26 866.347 LINE",
"710.26 155.74 LINE",
"713.393 138.017 LINE",
"720.127 136.353 LINE",
"720.127 -18 LINE"
);
}
);
width = 1067.55491;
}
);
leftKerningGroup = u;
rightKerningGroup = u;
unicode = 0075;
},
{
glyphname = v;
layers = (
{
layerId = "FA6D65B5-4623-4FAC-A199-3F662257AC29";
paths = (
{
closed = 1;
nodes = (
"619 -18 LINE",
"920 736 LINE SMOOTH",
"961 834 OFFCURVE",
"985 852 OFFCURVE",
"1121 871 CURVE",
"1121 933 LINE",
"707 933 LINE",
"707 871 LINE",
"802 857 OFFCURVE",
"834 843 OFFCURVE",
"834 806 CURVE SMOOTH",
"834 788 OFFCURVE",
"827 766 OFFCURVE",
"816 737 CURVE SMOOTH",
"644 301 LINE",
"637 301 LINE",
"440 776 LINE SMOOTH",
"435 790 OFFCURVE",
"431 803 OFFCURVE",
"431 813 CURVE SMOOTH",
"431 848 OFFCURVE",
"466 862 OFFCURVE",
"568 871 CURVE",
"568 933 LINE",
"-25 933 LINE",
"-25 871 LINE",
"70 864 OFFCURVE",
"88 850 OFFCURVE",
"112 796 CURVE SMOOTH",
"479 -18 LINE"
);
}
);
width = 1086;
},
{
layerId = "E9E5A43B-81E4-4E67-9C96-907763DB0C14";
paths = (
{
closed = 1;
nodes = (
"523.624 -18 LINE",
"802.081 758.543 LINE SMOOTH",
"833.543 846.139 OFFCURVE",
"851.474 872.809 OFFCURVE",
"984.006 894.41 CURVE",
"984.006 933 LINE",
"619.428 933 LINE",
"619.428 894.41 LINE",
"723.965 878.676 OFFCURVE",
"744.694 865.543 OFFCURVE",
"744.694 830.277 CURVE SMOOTH",
"744.694 814.012 OFFCURVE",
"739.428 792.012 OFFCURVE",
"728.428 760.41 CURVE SMOOTH",
"540.821 229.035 LINE",
"533.821 229.035 LINE",
"332.486 799.41 LINE SMOOTH",
"325.751 819.48 OFFCURVE",
"321.751 835.948 OFFCURVE",
"321.751 849.416 CURVE SMOOTH",
"321.751 877.48 OFFCURVE",
"344.613 889.746 OFFCURVE",
"445.746 894.41 CURVE",
"445.746 933 LINE",
"-11.994 933 LINE",
"-11.994 894.41 LINE",
"76.936 887.41 OFFCURVE",
"94.936 874.277 OFFCURVE",
"116.335 818.543 CURVE SMOOTH",
"438.249 -18 LINE"
);
}
);
width = 962.01156;
}
);
unicode = 0076;
},
{
glyphname = w;
layers = (
{
anchors = (
{
name = top;
position = "{933, 1146}";
}
);
layerId = "FA6D65B5-4623-4FAC-A199-3F662257AC29";
paths = (
{
closed = 1;
nodes = (
"1246 -18 LINE",
"1529 736 LINE SMOOTH",
"1563 824 OFFCURVE",
"1579 850 OFFCURVE",
"1730 871 CURVE",
"1730 933 LINE",
"1316 933 LINE",
"1316 871 LINE",
"1410 857 OFFCURVE",
"1443 843 OFFCURVE",
"1443 806 CURVE SMOOTH",
"1443 788 OFFCURVE",
"1436 766 OFFCURVE",
"1425 737 CURVE SMOOTH",
"1271 301 LINE",
"1264 301 LINE",
"1110 776 LINE SMOOTH",
"1107 785 OFFCURVE",
"1105 794 OFFCURVE",
"1105 803 CURVE SMOOTH",
"1105 843 OFFCURVE",
"1144 866 OFFCURVE",
"1239 871 CURVE",
"1239 933 LINE",
"646 933 LINE",
"646 871 LINE",
"741 864 OFFCURVE",
"760 852 OFFCURVE",
"783 796 CURVE SMOOTH",
"1105 -18 LINE"
);
},
{
closed = 1;
nodes = (
"570 -18 LINE",
"929 829 LINE",
"836 841 LINE",
"600 301 LINE",
"593 301 LINE",
"440 776 LINE SMOOTH",
"436 785 OFFCURVE",
"435 794 OFFCURVE",
"435 803 CURVE SMOOTH",
"435 843 OFFCURVE",
"473 866 OFFCURVE",
"568 871 CURVE",
"568 933 LINE",
"-25 933 LINE",
"-25 871 LINE",
"70 864 OFFCURVE",
"90 852 OFFCURVE",
"113 796 CURVE SMOOTH",
"435 -18 LINE"
);
}
);
width = 1685;
},
{
anchors = (
{
name = top;
position = "{761.324, 1146}";
}
);
layerId = "E9E5A43B-81E4-4E67-9C96-907763DB0C14";
paths = (
{
closed = 1;
nodes = (
"1037.908 -18 LINE",
"1313.104 758.543 LINE SMOOTH",
"1343.636 844.809 OFFCURVE",
"1361.37 872.543 OFFCURVE",
"1495.896 894.41 CURVE",
"1495.896 933 LINE",
"1130.451 933 LINE",
"1130.451 894.41 LINE",
"1226.185 880.41 OFFCURVE",
"1255.717 865.543 OFFCURVE",
"1255.717 828.543 CURVE SMOOTH",
"1255.717 811.41 OFFCURVE",
"1250.451 788.543 OFFCURVE",
"1240.318 760.41 CURVE SMOOTH",
"1055.104 229.035 LINE",
"1047.237 229.035 LINE",
"874.162 799.41 LINE SMOOTH",
"867.694 819.682 OFFCURVE",
"860.491 839.954 OFFCURVE",
"860.491 851.555 CURVE SMOOTH",
"860.491 879.416 OFFCURVE",
"882.15 887.676 OFFCURVE",
"987.555 894.41 CURVE",
"987.555 933 LINE",
"561.029 933 LINE",
"561.029 894.41 LINE",
"628.283 887.41 OFFCURVE",
"658.555 874.543 OFFCURVE",
"673.751 818.543 CURVE SMOOTH",
"951.532 -18 LINE"
);
},
{
closed = 1;
nodes = (
"494.566 -18 LINE",
"780.734 770.908 LINE",
"708.543 774.237 LINE",
"512.428 229.035 LINE",
"505.428 229.035 LINE",
"332.486 799.41 LINE SMOOTH",
"325.884 819.682 OFFCURVE",
"317.948 839.954 OFFCURVE",
"317.948 851.555 CURVE SMOOTH",
"317.948 879.416 OFFCURVE",
"339.474 887.676 OFFCURVE",
"445.746 894.41 CURVE",
"445.746 933 LINE",
"-11.994 933 LINE",
"-11.994 894.41 LINE",
"76.936 887.41 OFFCURVE",
"96.936 874.543 OFFCURVE",
"116.468 818.543 CURVE SMOOTH",
"409.855 -18 LINE"
);
}
);
width = 1472.57225;
}
);
leftKerningGroup = w;
rightKerningGroup = w;
unicode = 0077;
},
{
glyphname = x;
layers = (
{
layerId = "FA6D65B5-4623-4FAC-A199-3F662257AC29";
paths = (
{
closed = 1;
nodes = (
"1165 0 LINE",
"1165 62 LINE",
"1084 70 OFFCURVE",
"1060 93 OFFCURVE",
"1024 137 CURVE SMOOTH",
"523 776 LINE",
"503 801 OFFCURVE",
"493 818 OFFCURVE",
"493 832 CURVE SMOOTH",
"493 857 OFFCURVE",
"528 866 OFFCURVE",
"600 871 CURVE",
"600 933 LINE",
"18 933 LINE",
"18 871 LINE",
"111 857 OFFCURVE",
"136 841 OFFCURVE",
"171 796 CURVE SMOOTH",
"674 157 LINE SMOOTH",
"702 120 OFFCURVE",
"708 109 OFFCURVE",
"708 97 CURVE SMOOTH",
"708 76 OFFCURVE",
"683 69 OFFCURVE",
"586 62 CURVE",
"586 0 LINE"
);
},
{
closed = 1;
nodes = (
"463 0 LINE",
"463 62 LINE",
"373 72 OFFCURVE",
"333 90 OFFCURVE",
"333 120 CURVE SMOOTH",
"333 137 OFFCURVE",
"343 162 OFFCURVE",
"368 188 CURVE SMOOTH",
"627 456 LINE",
"530 488 LINE",
"253 187 LINE SMOOTH",
"187 114 OFFCURVE",
"130 79 OFFCURVE",
"4 62 CURVE",
"4 0 LINE"
);
},
{
closed = 1;
nodes = (
"899 752 LINE SMOOTH",
"970 822 OFFCURVE",
"1000 848 OFFCURVE",
"1123 871 CURVE",
"1123 933 LINE",
"693 933 LINE",
"693 871 LINE",
"774 861 OFFCURVE",
"810 841 OFFCURVE",
"810 810 CURVE SMOOTH",
"810 790 OFFCURVE",
"797 769 OFFCURVE",
"774 744 CURVE SMOOTH",
"540 507 LINE",
"635 484 LINE"
);
}
);
width = 1155;
},
{
layerId = "E9E5A43B-81E4-4E67-9C96-907763DB0C14";
paths = (
{
closed = 1;
nodes = (
"1036.676 0 LINE",
"1036.676 38.59 LINE",
"949.607 47.457 OFFCURVE",
"919.538 66.121 OFFCURVE",
"887.006 114.457 CURVE SMOOTH",
"431.092 799.41 LINE SMOOTH",
"413.694 825.277 OFFCURVE",
"404.561 843.145 OFFCURVE",
"404.561 857.145 CURVE SMOOTH",
"404.561 876.942 OFFCURVE",
"429.156 888.543 OFFCURVE",
"499.422 894.41 CURVE",
"499.422 933 LINE",
"38.809 933 LINE",
"38.809 894.41 LINE",
"137.012 880.41 OFFCURVE",
"168.948 867.012 OFFCURVE",
"201.347 818.543 CURVE SMOOTH",
"657.526 133.59 LINE SMOOTH",
"681.191 98.324 OFFCURVE",
"686.324 86.457 OFFCURVE",
"686.324 75.324 CURVE SMOOTH",
"686.324 52.59 OFFCURVE",
"666.526 47.324 OFFCURVE",
"579.931 38.59 CURVE",
"579.931 0 LINE"
);
},
{
closed = 1;
nodes = (
"398.838 0 LINE",
"398.838 38.59 LINE",
"316.642 49.457 OFFCURVE",
"282.711 70.058 OFFCURVE",
"282.711 101.792 CURVE SMOOTH",
"282.711 116.191 OFFCURVE",
"290.11 134.254 OFFCURVE",
"314.243 165.457 CURVE SMOOTH",
"542.896 456 LINE",
"477.977 488 LINE",
"233.925 163.59 LINE SMOOTH",
"175.728 87.121 OFFCURVE",
"119.595 56.457 OFFCURVE",
"0.532 38.59 CURVE",
"0.532 0 LINE"
);
},
{
closed = 1;
nodes = (
"795.821 774.543 LINE SMOOTH",
"857.283 850.613 OFFCURVE",
"891.618 871.41 OFFCURVE",
"1005.081 894.41 CURVE",
"1005.081 933 LINE",
"634.04 933 LINE",
"634.04 894.41 LINE",
"707.237 881.809 OFFCURVE",
"738.035 860.942 OFFCURVE",
"738.035 834.277 CURVE SMOOTH",
"738.035 814.277 OFFCURVE",
"732.838 802.815 OFFCURVE",
"705.503 767.41 CURVE SMOOTH",
"499.249 507 LINE",
"563.902 484 LINE"
);
}
);
width = 1037.08092;
}
);
unicode = 0078;
},
{
glyphname = y;
layers = (
{
anchors = (
{
name = top;
position = "{628, 1146}";
}
);
layerId = "FA6D65B5-4623-4FAC-A199-3F662257AC29";
paths = (
{
closed = 1;
nodes = (
"317 -458 OFFCURVE",
"371 -444 OFFCURVE",
"417 -412 CURVE SMOOTH",
"463 -378 OFFCURVE",
"500 -326 OFFCURVE",
"532 -248 CURVE SMOOTH",
"938 730 LINE SMOOTH",
"977 822 OFFCURVE",
"1000 847 OFFCURVE",
"1132 871 CURVE",
"1132 933 LINE",
"708 933 LINE",
"708 871 LINE",
"804 866 OFFCURVE",
"848 841 OFFCURVE",
"848 794 CURVE SMOOTH",
"848 778 OFFCURVE",
"845 760 OFFCURVE",
"832 732 CURVE SMOOTH",
"655 301 LINE",
"646 301 LINE",
"442 783 LINE SMOOTH",
"436 794 OFFCURVE",
"435 804 OFFCURVE",
"435 815 CURVE SMOOTH",
"435 852 OFFCURVE",
"473 864 OFFCURVE",
"560 871 CURVE",
"560 933 LINE",
"-14 933 LINE",
"-14 871 LINE",
"74 862 OFFCURVE",
"107 845 OFFCURVE",
"127 801 CURVE SMOOTH",
"503 -49 LINE",
"433 -236 LINE SMOOTH",
"407 -308 OFFCURVE",
"363 -352 OFFCURVE",
"322 -352 CURVE SMOOTH",
"290 -352 OFFCURVE",
"280 -341 OFFCURVE",
"262 -285 CURVE SMOOTH",
"245 -224 OFFCURVE",
"201 -195 OFFCURVE",
"148 -195 CURVE SMOOTH",
"86 -195 OFFCURVE",
"35 -239 OFFCURVE",
"35 -306 CURVE SMOOTH",
"35 -407 OFFCURVE",
"127 -458 OFFCURVE",
"243 -458 CURVE SMOOTH"
);
}
);
width = 1092;
},
{
anchors = (
{
name = top;
position = "{553.434, 1146}";
}
);
layerId = "E9E5A43B-81E4-4E67-9C96-907763DB0C14";
paths = (
{
closed = 1;
nodes = (
"277.116 -458 OFFCURVE",
"331.983 -437.064 OFFCURVE",
"368.445 -399.861 CURVE SMOOTH",
"398.838 -371.064 OFFCURVE",
"429.769 -322.532 OFFCURVE",
"455.699 -248 CURVE SMOOTH",
"807.075 753.41 LINE SMOOTH",
"840.006 848.012 OFFCURVE",
"869.075 871.277 OFFCURVE",
"1003.676 894.41 CURVE",
"1003.676 933 LINE",
"603.954 933 LINE",
"603.954 894.41 LINE",
"700.821 888.543 OFFCURVE",
"740.486 860.942 OFFCURVE",
"740.486 818.277 CURVE SMOOTH",
"740.486 802.277 OFFCURVE",
"736.618 779.942 OFFCURVE",
"727.087 755.41 CURVE SMOOTH",
"560.491 259.382 LINE",
"551.491 259.382 LINE",
"337.954 806.41 LINE SMOOTH",
"330.22 826.948 OFFCURVE",
"324.884 843.884 OFFCURVE",
"324.884 855.751 CURVE SMOOTH",
"324.884 880.613 OFFCURVE",
"349.879 888.277 OFFCURVE",
"442.948 894.41 CURVE",
"442.948 933 LINE",
"-10.532 933 LINE",
"-10.532 894.41 LINE",
"61.861 887.145 OFFCURVE",
"95.728 867.543 OFFCURVE",
"116.595 823.543 CURVE SMOOTH",
"463.983 -18.653 LINE",
"392.249 -236 LINE SMOOTH",
"358.445 -335.746 OFFCURVE",
"326.584 -378.012 OFFCURVE",
"287.318 -378.012 CURVE SMOOTH",
"263.121 -378.012 OFFCURVE",
"255.723 -368.746 OFFCURVE",
"248.994 -323.15 CURVE SMOOTH",
"237.197 -264.751 OFFCURVE",
"210.538 -240.954 OFFCURVE",
"163.607 -240.954 CURVE SMOOTH",
"103.341 -240.954 OFFCURVE",
"62.746 -278.884 OFFCURVE",
"62.746 -335.48 CURVE SMOOTH",
"62.746 -409.601 OFFCURVE",
"125.266 -458 OFFCURVE",
"216.121 -458 CURVE SMOOTH"
);
}
);
width = 989.68786;
}
);
leftKerningGroup = y;
rightKerningGroup = y;
unicode = 0079;
},
{
glyphname = z;
layers = (
{
anchors = (
{
name = bottom;
position = "{502, 0}";
},
{
name = top;
position = "{529, 1146}";
}
);
layerId = "FA6D65B5-4623-4FAC-A199-3F662257AC29";
paths = (
{
closed = 1;
nodes = (
"908 0 LINE",
"929 341 LINE",
"861 341 LINE",
"843 278 OFFCURVE",
"799 178 OFFCURVE",
"748 83 CURVE",
"407 83 LINE",
"929 876 LINE",
"929 933 LINE",
"127 933 LINE",
"93 583 LINE",
"162 583 LINE",
"176 634 OFFCURVE",
"206 702 OFFCURVE",
"276 850 CURVE",
"581 850 LINE",
"55 58 LINE",
"55 0 LINE"
);
}
);
width = 1005;
},
{
anchors = (
{
name = bottom;
position = "{458.647, 0}";
},
{
name = top;
position = "{468.306, 1146}";
}
);
layerId = "E9E5A43B-81E4-4E67-9C96-907763DB0C14";
paths = (
{
closed = 1;
nodes = (
"807.422 0 LINE",
"820.618 336.665 LINE",
"779.497 341 LINE",
"764.965 271.931 OFFCURVE",
"732.237 160.659 OFFCURVE",
"689.908 59.59 CURVE",
"290.815 59.59 LINE",
"842.295 883.803 LINE",
"842.295 933 LINE",
"125.266 933 LINE",
"102.538 583.867 LINE",
"143.792 583 LINE",
"154.324 638.335 OFFCURVE",
"176.52 714.139 OFFCURVE",
"235.249 872.543 CURVE",
"613.081 872.543 LINE",
"67.139 50.197 LINE",
"67.139 0 LINE"
);
}
);
width = 916.56069;
}
);
leftKerningGroup = z;
rightKerningGroup = z;
unicode = 007A;
},
{
glyphname = c_t;
layers = (
{
anchors = (
{
name = caret_1;
position = "{977, 0}";
}
);
layerId = "FA6D65B5-4623-4FAC-A199-3F662257AC29";
paths = (
{
closed = 1;
nodes = (
"727 -18 OFFCURVE",
"864 65 OFFCURVE",
"935 234 CURVE SMOOTH",
"943 255 LINE",
"894 294 LINE",
"882 280 LINE SMOOTH",
"817 204 OFFCURVE",
"727 164 OFFCURVE",
"621 164 CURVE SMOOTH",
"447 164 OFFCURVE",
"359 283 OFFCURVE",
"359 509 CURVE SMOOTH",
"359 732 OFFCURVE",
"445 859 OFFCURVE",
"593 859 CURVE SMOOTH",
"688 859 OFFCURVE",
"711 796 OFFCURVE",
"722 713 CURVE SMOOTH",
"729 660 OFFCURVE",
"750 598 OFFCURVE",
"838 598 CURVE SMOOTH",
"910 598 OFFCURVE",
"956 644 OFFCURVE",
"956 716 CURVE SMOOTH",
"956 783 OFFCURVE",
"912 836 OFFCURVE",
"848 884 CURVE SMOOTH",
"796 922 OFFCURVE",
"773 1007 OFFCURVE",
"773 1105 CURVE SMOOTH",
"773 1272 OFFCURVE",
"854 1366 OFFCURVE",
"1000 1366 CURVE SMOOTH",
"1130 1366 OFFCURVE",
"1202 1292 OFFCURVE",
"1202 1158 CURVE SMOOTH",
"1202 1033 OFFCURVE",
"1140 949 OFFCURVE",
"1016 898 CURVE",
"1026 845 LINE",
"1151 845 LINE",
"1151 232 LINE SMOOTH",
"1151 25 OFFCURVE",
"1244 -18 OFFCURVE",
"1404 -18 CURVE SMOOTH",
"1524 -18 OFFCURVE",
"1624 25 OFFCURVE",
"1684 100 CURVE",
"1644 158 LINE",
"1616 125 OFFCURVE",
"1580 109 OFFCURVE",
"1536 109 CURVE SMOOTH",
"1468 109 OFFCURVE",
"1424 118 OFFCURVE",
"1424 292 CURVE SMOOTH",
"1424 845 LINE",
"1670 845 LINE",
"1697 933 LINE",
"1424 933 LINE",
"1438 986 OFFCURVE",
"1443 1035 OFFCURVE",
"1443 1082 CURVE SMOOTH",
"1443 1309 OFFCURVE",
"1285 1459 OFFCURVE",
"1024 1459 CURVE SMOOTH",
"774 1459 OFFCURVE",
"588 1324 OFFCURVE",
"588 1140 CURVE SMOOTH",
"588 1067 OFFCURVE",
"623 991 OFFCURVE",
"690 949 CURVE",
"690 942 LINE",
"656 947 OFFCURVE",
"621 950 OFFCURVE",
"584 950 CURVE SMOOTH",
"280 950 OFFCURVE",
"63 743 OFFCURVE",
"63 454 CURVE SMOOTH",
"63 180 OFFCURVE",
"260 -18 OFFCURVE",
"537 -18 CURVE SMOOTH"
);
}
);
width = 1700;
},
{
anchors = (
{
name = caret_1;
position = "{950.988, 0}";
}
);
layerId = "E9E5A43B-81E4-4E67-9C96-907763DB0C14";
paths = (
{
closed = 1;
nodes = (
"687.116 -18 OFFCURVE",
"819.78 69.335 OFFCURVE",
"881.243 226.197 CURVE SMOOTH",
"890.11 248.931 LINE",
"854.116 269.723 LINE",
"836.046 244.451 LINE SMOOTH",
"773.647 163.249 OFFCURVE",
"679.312 118.046 OFFCURVE",
"568.977 118.046 CURVE SMOOTH",
"378.503 118.046 OFFCURVE",
"273.162 254.387 OFFCURVE",
"273.162 499.462 CURVE SMOOTH",
"273.162 742.405 OFFCURVE",
"378.237 889.347 OFFCURVE",
"552.249 889.347 CURVE SMOOTH",
"621.237 889.347 OFFCURVE",
"644.237 862.763 OFFCURVE",
"671.711 778.029 CURVE SMOOTH",
"699.52 690.347 OFFCURVE",
"714.451 667.364 OFFCURVE",
"767.769 667.364 CURVE SMOOTH",
"825.896 667.364 OFFCURVE",
"862.358 702.092 OFFCURVE",
"862.358 760.22 CURVE SMOOTH",
"862.358 824.618 OFFCURVE",
"814.023 872.416 OFFCURVE",
"744.821 912.613 CURVE SMOOTH",
"668.543 955.815 OFFCURVE",
"641.208 1027.809 OFFCURVE",
"641.208 1124.942 CURVE SMOOTH",
"641.208 1301.48 OFFCURVE",
"746.486 1410.22 OFFCURVE",
"914.162 1410.22 CURVE SMOOTH",
"1073.642 1410.22 OFFCURVE",
"1162.116 1311.942 OFFCURVE",
"1162.116 1138.058 CURVE SMOOTH",
"1162.116 1005.254 OFFCURVE",
"1111.387 925.59 OFFCURVE",
"1010.798 898.867 CURVE",
"1015.595 867.543 LINE",
"1131.058 867.543 LINE",
"1131.058 232 LINE SMOOTH",
"1131.058 57.948 OFFCURVE",
"1197.179 -18 OFFCURVE",
"1329.434 -18 CURVE SMOOTH",
"1432.96 -18 OFFCURVE",
"1522.555 29.335 OFFCURVE",
"1579.087 112.139 CURVE",
"1547.757 139.792 LINE",
"1507.618 92.919 OFFCURVE",
"1462.948 70.85 OFFCURVE",
"1411.145 70.85 CURVE SMOOTH",
"1337.942 70.85 OFFCURVE",
"1312.15 110.197 OFFCURVE",
"1312.15 253.85 CURVE SMOOTH",
"1312.15 867.543 LINE",
"1551.214 867.543 LINE",
"1566.942 933 LINE",
"1312.15 933 LINE",
"1320.081 982.532 OFFCURVE",
"1324.214 1030.665 OFFCURVE",
"1324.214 1073.329 CURVE SMOOTH",
"1324.214 1328.942 OFFCURVE",
"1182.688 1475.474 OFFCURVE",
"932.96 1475.474 CURVE SMOOTH",
"691.63 1475.474 OFFCURVE",
"517.769 1340.474 OFFCURVE",
"517.769 1153.006 CURVE SMOOTH",
"517.769 1073.069 OFFCURVE",
"551.035 997.069 OFFCURVE",
"618.035 953.335 CURVE",
"618.035 946.335 LINE",
"604.844 948.734 OFFCURVE",
"576.78 950 OFFCURVE",
"555.387 950 CURVE SMOOTH",
"275.665 950 OFFCURVE",
"78.607 745.601 OFFCURVE",
"78.607 454 CURVE SMOOTH",
"78.607 176.532 OFFCURVE",
"259.133 -18 OFFCURVE",
"513.59 -18 CURVE SMOOTH"
);
}
);
width = 1591.6185;
}
);
leftKerningGroup = e;
rightKerningGroup = t;
},
{
glyphname = f_b;
layers = (
{
anchors = (
{
name = caret_1;
position = "{810, 0}";
}
);
layerId = "FA6D65B5-4623-4FAC-A199-3F662257AC29";
paths = (
{
closed = 1;
nodes = (
"1619 -18 OFFCURVE",
"1827 208 OFFCURVE",
"1827 505 CURVE SMOOTH",
"1827 769 OFFCURVE",
"1668 950 OFFCURVE",
"1438 950 CURVE SMOOTH",
"1325 950 OFFCURVE",
"1225 903 OFFCURVE",
"1146 825 CURVE",
"1146 1280 LINE SMOOTH",
"1146 1387 OFFCURVE",
"989 1459 OFFCURVE",
"760 1459 CURVE SMOOTH",
"498 1459 OFFCURVE",
"304 1364 OFFCURVE",
"234 1200 CURVE SMOOTH",
"211 1149 OFFCURVE",
"204 1095 OFFCURVE",
"204 933 CURVE",
"49 933 LINE",
"25 850 LINE",
"204 850 LINE",
"204 97 LINE",
"55 62 LINE",
"55 0 LINE",
"658 0 LINE",
"658 62 LINE",
"477 97 LINE",
"477 850 LINE",
"718 850 LINE",
"757 933 LINE",
"477 933 LINE",
"477 993 LINE SMOOTH",
"477 1158 OFFCURVE",
"480 1209 OFFCURVE",
"498 1250 CURVE SMOOTH",
"528 1322 OFFCURVE",
"604 1366 OFFCURVE",
"700 1366 CURVE SMOOTH",
"810 1366 OFFCURVE",
"873 1308 OFFCURVE",
"873 1190 CURVE SMOOTH",
"873 0 LINE",
"924 0 LINE",
"1075 63 LINE",
"1086 63 LINE",
"1162 11 OFFCURVE",
"1255 -18 OFFCURVE",
"1350 -18 CURVE SMOOTH"
);
},
{
closed = 1;
nodes = (
"1213 77 OFFCURVE",
"1146 165 OFFCURVE",
"1146 299 CURVE SMOOTH",
"1146 711 LINE",
"1188 774 OFFCURVE",
"1246 813 OFFCURVE",
"1316 813 CURVE SMOOTH",
"1452 813 OFFCURVE",
"1529 679 OFFCURVE",
"1529 456 CURVE SMOOTH",
"1529 229 OFFCURVE",
"1445 77 OFFCURVE",
"1315 77 CURVE SMOOTH"
);
}
);
width = 1892;
},
{
anchors = (
{
name = caret_1;
position = "{696.416, 0}";
}
);
layerId = "E9E5A43B-81E4-4E67-9C96-907763DB0C14";
paths = (
{
closed = 1;
nodes = (
"1403.971 -18 OFFCURVE",
"1605.902 208 OFFCURVE",
"1605.902 505 CURVE SMOOTH",
"1605.902 769 OFFCURVE",
"1446.902 950 OFFCURVE",
"1216.902 950 CURVE SMOOTH",
"1111.705 950 OFFCURVE",
"1020.376 909.069 OFFCURVE",
"945.711 830.202 CURVE",
"945.711 1354.566 LINE SMOOTH",
"945.711 1415.613 OFFCURVE",
"807.786 1460.734 OFFCURVE",
"638.613 1460.734 CURVE SMOOTH",
"438.173 1460.734 OFFCURVE",
"277.121 1371.803 OFFCURVE",
"223.595 1232.081 CURVE SMOOTH",
"202.329 1178.48 OFFCURVE",
"196.197 1115.809 OFFCURVE",
"196.197 933 CURVE",
"60.272 933 LINE",
"38.006 872.543 LINE",
"196.197 872.543 LINE",
"196.197 64.919 LINE",
"61.936 36.855 LINE",
"61.936 0 LINE",
"563.491 0 LINE",
"563.491 36.855 LINE",
"378.156 64.919 LINE",
"378.156 872.543 LINE",
"627.827 872.543 LINE",
"651.22 933 LINE",
"378.156 933 LINE",
"378.156 1025.081 LINE SMOOTH",
"378.156 1193.549 OFFCURVE",
"381.156 1230.676 OFFCURVE",
"407.827 1282.081 CURVE SMOOTH",
"447.364 1360.15 OFFCURVE",
"504.289 1396.347 OFFCURVE",
"602.89 1396.347 CURVE SMOOTH",
"696.416 1396.347 OFFCURVE",
"768.954 1332.277 OFFCURVE",
"768.954 1240.289 CURVE SMOOTH",
"768.954 0 LINE",
"800.012 0 LINE",
"884.249 63 LINE",
"893.514 63 LINE",
"965.179 11 OFFCURVE",
"1050.376 -18 OFFCURVE",
"1139.306 -18 CURVE SMOOTH"
);
},
{
closed = 1;
nodes = (
"1020.514 46.653 OFFCURVE",
"945.711 134.653 OFFCURVE",
"945.711 268.653 CURVE SMOOTH",
"945.711 756.954 LINE",
"991.179 813.884 OFFCURVE",
"1058.717 849.416 OFFCURVE",
"1136.52 849.416 CURVE SMOOTH",
"1302.867 849.416 OFFCURVE",
"1402.41 700.676 OFFCURVE",
"1402.41 456 CURVE SMOOTH",
"1402.41 210.792 OFFCURVE",
"1296.734 46.653 OFFCURVE",
"1134.653 46.653 CURVE SMOOTH"
);
}
);
width = 1684.77457;
}
);
leftKerningGroup = f;
rightKerningGroup = b;
},
{
glyphname = f_f;
layers = (
{
anchors = (
{
name = caret_1;
position = "{690, 0}";
}
);
layerId = "FA6D65B5-4623-4FAC-A199-3F662257AC29";
paths = (
{
closed = 1;
nodes = (
"658 0 LINE",
"658 62 LINE",
"477 97 LINE",
"477 850 LINE",
"873 850 LINE",
"873 97 LINE",
"723 62 LINE",
"723 0 LINE",
"1362 0 LINE",
"1362 62 LINE",
"1146 97 LINE",
"1146 850 LINE",
"1359 850 LINE",
"1383 933 LINE",
"1146 933 LINE",
"1146 1030 LINE SMOOTH",
"1146 1149 OFFCURVE",
"1148 1236 OFFCURVE",
"1167 1290 CURVE SMOOTH",
"1186 1346 OFFCURVE",
"1232 1371 OFFCURVE",
"1283 1371 CURVE SMOOTH",
"1338 1371 OFFCURVE",
"1362 1346 OFFCURVE",
"1380 1280 CURVE SMOOTH",
"1397 1211 OFFCURVE",
"1441 1172 OFFCURVE",
"1503 1172 CURVE SMOOTH",
"1575 1172 OFFCURVE",
"1624 1220 OFFCURVE",
"1624 1288 CURVE SMOOTH",
"1624 1392 OFFCURVE",
"1501 1461 OFFCURVE",
"1316 1461 CURVE SMOOTH",
"1174 1461 OFFCURVE",
"1049 1413 OFFCURVE",
"970 1334 CURVE",
"906 1359 OFFCURVE",
"825 1373 OFFCURVE",
"732 1373 CURVE SMOOTH",
"489 1373 OFFCURVE",
"303 1276 OFFCURVE",
"234 1114 CURVE SMOOTH",
"216 1074 OFFCURVE",
"208 1031 OFFCURVE",
"204 933 CURVE",
"49 933 LINE",
"25 850 LINE",
"204 850 LINE",
"204 97 LINE",
"55 62 LINE",
"55 0 LINE"
);
},
{
closed = 1;
nodes = (
"477 1072 OFFCURVE",
"480 1121 OFFCURVE",
"498 1163 CURVE SMOOTH",
"528 1239 OFFCURVE",
"602 1280 OFFCURVE",
"681 1280 CURVE SMOOTH",
"774 1280 OFFCURVE",
"869 1220 OFFCURVE",
"876 1100 CURVE",
"873 1058 OFFCURVE",
"873 1003 OFFCURVE",
"873 933 CURVE",
"477 933 LINE"
);
}
);
width = 1412;
},
{
anchors = (
{
name = caret_1;
position = "{609.364, 0}";
}
);
layerId = "E9E5A43B-81E4-4E67-9C96-907763DB0C14";
paths = (
{
closed = 1;
nodes = (
"563.491 0 LINE",
"563.491 36.855 LINE",
"378.156 64.919 LINE",
"378.156 872.543 LINE",
"784.561 872.543 LINE",
"784.561 64.919 LINE",
"650.168 36.855 LINE",
"650.168 0 LINE",
"1156.509 0 LINE",
"1156.509 36.855 LINE",
"965.653 64.919 LINE",
"965.653 872.543 LINE",
"1172.584 872.543 LINE",
"1193.983 933 LINE",
"965.653 933 LINE",
"965.653 1030 LINE SMOOTH",
"965.653 1176.746 OFFCURVE",
"976.324 1262.879 OFFCURVE",
"1000.526 1316.012 CURVE SMOOTH",
"1027.329 1377.214 OFFCURVE",
"1075.931 1401.347 OFFCURVE",
"1128.665 1401.347 CURVE SMOOTH",
"1185.399 1401.347 OFFCURVE",
"1205.064 1373.746 OFFCURVE",
"1217.861 1310.347 CURVE SMOOTH",
"1227.925 1263.023 OFFCURVE",
"1250.249 1217.954 OFFCURVE",
"1309.647 1217.954 CURVE SMOOTH",
"1363.439 1217.954 OFFCURVE",
"1400.301 1254.682 OFFCURVE",
"1400.301 1307.942 CURVE SMOOTH",
"1400.301 1396.335 OFFCURVE",
"1296.376 1461 OFFCURVE",
"1162.532 1461 CURVE SMOOTH",
"1041.341 1461 OFFCURVE",
"924.145 1406.931 OFFCURVE",
"855.549 1320.127 CURVE",
"803.688 1352.931 OFFCURVE",
"726.156 1373 OFFCURVE",
"634.89 1373 CURVE SMOOTH",
"436.977 1373 OFFCURVE",
"276.988 1283.803 OFFCURVE",
"223.595 1144.347 CURVE SMOOTH",
"205.595 1100.012 OFFCURVE",
"198.462 1050.942 OFFCURVE",
"196.197 933 CURVE",
"60.272 933 LINE",
"38.006 872.543 LINE",
"196.197 872.543 LINE",
"196.197 64.919 LINE",
"61.936 36.855 LINE",
"61.936 0 LINE"
);
},
{
closed = 1;
nodes = (
"378.156 1105.815 OFFCURVE",
"381.156 1142.676 OFFCURVE",
"407.827 1194.214 CURVE SMOOTH",
"448.231 1272.815 OFFCURVE",
"516.162 1308.613 OFFCURVE",
"586.491 1308.613 CURVE SMOOTH",
"678.624 1308.613 OFFCURVE",
"768.422 1246.012 OFFCURVE",
"789.295 1136.416 CURVE",
"786.295 1086.613 OFFCURVE",
"784.561 1021.208 OFFCURVE",
"784.561 933 CURVE",
"378.156 933 LINE SMOOTH"
);
}
);
width = 1222.11561;
}
);
leftKerningGroup = f;
rightKerningGroup = f;
},
{
glyphname = f_f_b;
layers = (
{
anchors = (
{
name = caret_1;
position = "{688, 0}";
},
{
name = caret_2;
position = "{1432, 0}";
}
);
layerId = "FA6D65B5-4623-4FAC-A199-3F662257AC29";
paths = (
{
closed = 1;
nodes = (
"2288 -18 OFFCURVE",
"2496 208 OFFCURVE",
"2496 505 CURVE SMOOTH",
"2496 769 OFFCURVE",
"2337 950 OFFCURVE",
"2107 950 CURVE SMOOTH",
"1994 950 OFFCURVE",
"1894 903 OFFCURVE",
"1815 825 CURVE",
"1815 1280 LINE SMOOTH",
"1815 1387 OFFCURVE",
"1658 1459 OFFCURVE",
"1429 1459 CURVE SMOOTH",
"1243 1459 OFFCURVE",
"1091 1412 OFFCURVE",
"993 1325 CURVE",
"928 1355 OFFCURVE",
"831 1373 OFFCURVE",
"718 1373 CURVE SMOOTH",
"488 1373 OFFCURVE",
"299 1271 OFFCURVE",
"234 1114 CURVE SMOOTH",
"216 1074 OFFCURVE",
"208 1030 OFFCURVE",
"204 933 CURVE",
"49 933 LINE",
"25 850 LINE",
"204 850 LINE",
"204 97 LINE",
"55 62 LINE",
"55 0 LINE",
"658 0 LINE",
"658 62 LINE",
"477 97 LINE",
"477 850 LINE",
"873 850 LINE",
"873 97 LINE",
"723 62 LINE",
"723 0 LINE",
"1327 0 LINE",
"1327 62 LINE",
"1146 97 LINE",
"1146 850 LINE",
"1542 850 LINE",
"1542 0 LINE",
"1593 0 LINE",
"1744 63 LINE",
"1755 63 LINE",
"1830 11 OFFCURVE",
"1924 -18 OFFCURVE",
"2019 -18 CURVE SMOOTH"
);
},
{
closed = 1;
nodes = (
"477 1038 OFFCURVE",
"480 1114 OFFCURVE",
"498 1163 CURVE SMOOTH",
"530 1246 OFFCURVE",
"605 1280 OFFCURVE",
"685 1280 CURVE SMOOTH",
"808 1280 OFFCURVE",
"873 1197 OFFCURVE",
"873 1068 CURVE SMOOTH",
"873 1023 OFFCURVE",
"873 978 OFFCURVE",
"873 933 CURVE",
"477 933 LINE"
);
},
{
closed = 1;
nodes = (
"1881 77 OFFCURVE",
"1815 165 OFFCURVE",
"1815 299 CURVE SMOOTH",
"1815 711 LINE",
"1857 774 OFFCURVE",
"1915 813 OFFCURVE",
"1985 813 CURVE SMOOTH",
"2121 813 OFFCURVE",
"2198 679 OFFCURVE",
"2198 456 CURVE SMOOTH",
"2198 229 OFFCURVE",
"2114 77 OFFCURVE",
"1984 77 CURVE SMOOTH"
);
},
{
closed = 1;
nodes = (
"1146 993 LINE SMOOTH",
"1146 1158 OFFCURVE",
"1149 1209 OFFCURVE",
"1167 1250 CURVE SMOOTH",
"1197 1322 OFFCURVE",
"1272 1366 OFFCURVE",
"1369 1366 CURVE SMOOTH",
"1478 1366 OFFCURVE",
"1542 1308 OFFCURVE",
"1542 1190 CURVE SMOOTH",
"1542 933 LINE",
"1146 933 LINE"
);
}
);
width = 2561;
},
{
anchors = (
{
name = caret_1;
position = "{605.63, 0}";
},
{
name = caret_2;
position = "{1249.919, 0}";
}
);
layerId = "E9E5A43B-81E4-4E67-9C96-907763DB0C14";
paths = (
{
closed = 1;
nodes = (
"1992.335 -18 OFFCURVE",
"2193.399 208 OFFCURVE",
"2193.399 505 CURVE SMOOTH",
"2193.399 769 OFFCURVE",
"2035.266 950 OFFCURVE",
"1804.399 950 CURVE SMOOTH",
"1699.202 950 OFFCURVE",
"1608.74 909.069 OFFCURVE",
"1534.075 830.202 CURVE",
"1534.075 1354.566 LINE SMOOTH",
"1534.075 1415.613 OFFCURVE",
"1395.283 1460.734 OFFCURVE",
"1226.11 1460.734 CURVE SMOOTH",
"1070.457 1460.734 OFFCURVE",
"938.399 1405.064 OFFCURVE",
"862.942 1316.329 CURVE",
"811.815 1350.665 OFFCURVE",
"730.422 1373 OFFCURVE",
"633.029 1373 CURVE SMOOTH",
"436.844 1373 OFFCURVE",
"276.457 1283.139 OFFCURVE",
"223.595 1144.347 CURVE SMOOTH",
"205.595 1100.012 OFFCURVE",
"198.462 1050.809 OFFCURVE",
"196.197 933 CURVE",
"60.272 933 LINE",
"38.006 872.543 LINE",
"196.197 872.543 LINE",
"196.197 64.919 LINE",
"61.936 36.855 LINE",
"61.936 0 LINE",
"563.491 0 LINE",
"563.491 36.855 LINE",
"378.156 64.919 LINE",
"378.156 872.543 LINE",
"784.561 872.543 LINE",
"784.561 64.919 LINE",
"650.168 36.855 LINE",
"650.168 0 LINE",
"1151.855 0 LINE",
"1151.855 36.855 LINE",
"965.653 64.919 LINE",
"965.653 872.543 LINE",
"1357.318 872.543 LINE",
"1357.318 3.468 LINE",
"1388.376 3.468 LINE",
"1472.613 63 LINE",
"1481.879 63 LINE",
"1552.543 11 OFFCURVE",
"1638.74 -18 OFFCURVE",
"1727.671 -18 CURVE SMOOTH"
);
},
{
closed = 1;
nodes = (
"378.156 1101.295 OFFCURVE",
"381.156 1141.746 OFFCURVE",
"407.827 1194.214 CURVE SMOOTH",
"447.63 1273.746 OFFCURVE",
"504.422 1308.613 OFFCURVE",
"585.289 1308.613 CURVE SMOOTH",
"697.884 1308.613 OFFCURVE",
"770.688 1243.821 OFFCURVE",
"788.896 1132.162 CURVE",
"786.295 1086.295 OFFCURVE",
"784.561 1023.087 OFFCURVE",
"784.561 933 CURVE",
"378.156 933 LINE"
);
},
{
closed = 1;
nodes = (
"1607.879 46.653 OFFCURVE",
"1534.075 134.653 OFFCURVE",
"1534.075 268.653 CURVE SMOOTH",
"1534.075 756.954 LINE",
"1578.676 813.884 OFFCURVE",
"1646.214 849.416 OFFCURVE",
"1724.017 849.416 CURVE SMOOTH",
"1890.364 849.416 OFFCURVE",
"1990.775 700.676 OFFCURVE",
"1990.775 456 CURVE SMOOTH",
"1990.775 210.792 OFFCURVE",
"1885.098 46.653 OFFCURVE",
"1723.017 46.653 CURVE SMOOTH"
);
},
{
closed = 1;
nodes = (
"965.653 1025.081 LINE SMOOTH",
"965.653 1193.549 OFFCURVE",
"969.52 1230.676 OFFCURVE",
"996.191 1282.081 CURVE SMOOTH",
"1034.861 1360.15 OFFCURVE",
"1092.52 1396.347 OFFCURVE",
"1190.387 1396.347 CURVE SMOOTH",
"1284.647 1396.347 OFFCURVE",
"1357.318 1332.277 OFFCURVE",
"1357.318 1240.289 CURVE SMOOTH",
"1357.318 933 LINE",
"965.653 933 LINE"
);
}
);
width = 2272.27168;
}
);
leftKerningGroup = f;
rightKerningGroup = b;
},
{
glyphname = f_f_h;
layers = (
{
anchors = (
{
name = caret_1;
position = "{692, 0}";
},
{
name = caret_2;
position = "{1367, 0}";
}
);
layerId = "FA6D65B5-4623-4FAC-A199-3F662257AC29";
paths = (
{
closed = 1;
nodes = (
"658 0 LINE",
"658 62 LINE",
"477 97 LINE",
"477 850 LINE",
"871 850 LINE",
"871 97 LINE",
"722 62 LINE",
"722 0 LINE",
"1325 0 LINE",
"1325 62 LINE",
"1144 97 LINE",
"1144 850 LINE",
"1417 850 LINE",
"1441 933 LINE",
"1144 933 LINE",
"1144 993 LINE SMOOTH",
"1144 1158 OFFCURVE",
"1148 1209 OFFCURVE",
"1165 1250 CURVE SMOOTH",
"1195 1322 OFFCURVE",
"1271 1366 OFFCURVE",
"1368 1366 CURVE SMOOTH",
"1477 1366 OFFCURVE",
"1540 1308 OFFCURVE",
"1540 1190 CURVE SMOOTH",
"1540 97 LINE",
"1408 62 LINE",
"1408 0 LINE",
"1936 0 LINE",
"1936 62 LINE",
"1813 97 LINE",
"1813 737 LINE",
"1855 780 OFFCURVE",
"1903 799 OFFCURVE",
"1962 799 CURVE SMOOTH",
"2043 799 OFFCURVE",
"2091 764 OFFCURVE",
"2119 702 CURVE SMOOTH",
"2135 667 OFFCURVE",
"2137 616 OFFCURVE",
"2137 491 CURVE SMOOTH",
"2137 97 LINE",
"2013 62 LINE",
"2013 0 LINE",
"2541 0 LINE",
"2541 62 LINE",
"2409 97 LINE",
"2409 560 LINE SMOOTH",
"2409 722 OFFCURVE",
"2404 766 OFFCURVE",
"2383 810 CURVE SMOOTH",
"2337 903 OFFCURVE",
"2251 950 OFFCURVE",
"2133 950 CURVE SMOOTH",
"2020 950 OFFCURVE",
"1896 906 OFFCURVE",
"1813 843 CURVE",
"1813 1280 LINE SMOOTH",
"1813 1387 OFFCURVE",
"1656 1459 OFFCURVE",
"1427 1459 CURVE SMOOTH",
"1241 1459 OFFCURVE",
"1089 1412 OFFCURVE",
"993 1325 CURVE",
"926 1355 OFFCURVE",
"831 1373 OFFCURVE",
"718 1373 CURVE SMOOTH",
"488 1373 OFFCURVE",
"299 1271 OFFCURVE",
"234 1114 CURVE SMOOTH",
"216 1074 OFFCURVE",
"208 1030 OFFCURVE",
"204 933 CURVE",
"49 933 LINE",
"25 850 LINE",
"204 850 LINE",
"204 97 LINE",
"55 62 LINE",
"55 0 LINE"
);
},
{
closed = 1;
nodes = (
"477 1038 OFFCURVE",
"480 1114 OFFCURVE",
"498 1163 CURVE SMOOTH",
"530 1246 OFFCURVE",
"605 1280 OFFCURVE",
"685 1280 CURVE SMOOTH",
"804 1280 OFFCURVE",
"871 1200 OFFCURVE",
"871 1075 CURVE SMOOTH",
"871 1028 OFFCURVE",
"871 980 OFFCURVE",
"871 933 CURVE",
"477 933 LINE"
);
}
);
width = 2573;
},
{
anchors = (
{
name = caret_1;
position = "{605.295, 0}";
},
{
name = caret_2;
position = "{1186.653, 0}";
}
);
layerId = "E9E5A43B-81E4-4E67-9C96-907763DB0C14";
paths = (
{
closed = 1;
nodes = (
"563.491 0 LINE",
"563.491 36.855 LINE",
"378.156 64.919 LINE",
"378.156 872.543 LINE",
"784.295 872.543 LINE",
"784.295 64.919 LINE",
"650.035 36.855 LINE",
"650.035 0 LINE",
"1151.59 0 LINE",
"1151.59 36.855 LINE",
"965.387 64.919 LINE",
"965.387 872.543 LINE",
"1204.572 872.543 LINE",
"1225.971 933 LINE",
"965.387 933 LINE",
"965.387 1025.081 LINE SMOOTH",
"965.387 1193.549 OFFCURVE",
"969.387 1230.676 OFFCURVE",
"995.925 1282.081 CURVE SMOOTH",
"1034.595 1360.15 OFFCURVE",
"1092.387 1396.347 OFFCURVE",
"1190.254 1396.347 CURVE SMOOTH",
"1287.116 1396.347 OFFCURVE",
"1357.052 1328.809 OFFCURVE",
"1357.052 1234.22 CURVE SMOOTH",
"1357.052 66.653 LINE",
"1223.318 38.59 LINE",
"1223.318 0 LINE",
"1664.613 0 LINE",
"1664.613 38.59 LINE",
"1533.809 66.653 LINE",
"1533.809 738.734 LINE",
"1598.353 808.613 OFFCURVE",
"1681.035 846.688 OFFCURVE",
"1772.983 846.688 CURVE SMOOTH",
"1845.312 846.688 OFFCURVE",
"1889.844 818.624 OFFCURVE",
"1912.642 763.561 CURVE SMOOTH",
"1928.642 725.092 OFFCURVE",
"1934.11 669.757 OFFCURVE",
"1934.11 565.566 CURVE SMOOTH",
"1934.11 64.919 LINE",
"1803.173 38.59 LINE",
"1803.173 0 LINE",
"2247.069 0 LINE",
"2247.069 38.59 LINE",
"2115.069 64.919 LINE",
"2115.069 590.347 LINE SMOOTH",
"2115.069 758.416 OFFCURVE",
"2110.936 802.416 OFFCURVE",
"2091.671 840.347 CURVE SMOOTH",
"2056.075 909.069 OFFCURVE",
"1977.879 950 OFFCURVE",
"1881.555 950 CURVE SMOOTH",
"1764.22 950 OFFCURVE",
"1637.618 899.064 OFFCURVE",
"1533.809 809.185 CURVE",
"1533.809 1354.566 LINE SMOOTH",
"1533.809 1415.613 OFFCURVE",
"1393.283 1460.734 OFFCURVE",
"1225.844 1460.734 CURVE SMOOTH",
"1070.191 1460.734 OFFCURVE",
"938.133 1405.064 OFFCURVE",
"862.942 1316.329 CURVE",
"811.549 1350.665 OFFCURVE",
"730.422 1373 OFFCURVE",
"633.029 1373 CURVE SMOOTH",
"436.844 1373 OFFCURVE",
"276.457 1283.139 OFFCURVE",
"223.595 1144.347 CURVE SMOOTH",
"205.595 1100.012 OFFCURVE",
"198.462 1050.809 OFFCURVE",
"196.197 933 CURVE",
"60.272 933 LINE",
"38.006 872.543 LINE",
"196.197 872.543 LINE",
"196.197 64.919 LINE",
"61.936 36.855 LINE",
"61.936 0 LINE"
);
},
{
closed = 1;
nodes = (
"378.156 1101.295 OFFCURVE",
"381.156 1141.746 OFFCURVE",
"407.827 1194.214 CURVE SMOOTH",
"447.63 1273.746 OFFCURVE",
"504.422 1308.613 OFFCURVE",
"585.289 1308.613 CURVE SMOOTH",
"697.353 1308.613 OFFCURVE",
"770.422 1244.22 OFFCURVE",
"788.63 1133.092 CURVE",
"786.029 1086.96 OFFCURVE",
"784.295 1023.353 OFFCURVE",
"784.295 933 CURVE",
"378.156 933 LINE SMOOTH"
);
}
);
width = 2284.27168;
}
);
leftKerningGroup = f;
rightKerningGroup = n;
},
{
glyphname = f_f_i;
layers = (
{
anchors = (
{
name = caret_1;
position = "{690, 0}";
},
{
name = caret_2;
position = "{1361, 0}";
}
);
layerId = "FA6D65B5-4623-4FAC-A199-3F662257AC29";
paths = (
{
closed = 1;
nodes = (
"658 0 LINE",
"658 62 LINE",
"477 97 LINE",
"477 850 LINE",
"875 850 LINE",
"875 97 LINE",
"725 62 LINE",
"725 0 LINE",
"1329 0 LINE",
"1329 62 LINE",
"1148 97 LINE",
"1148 850 LINE",
"1394 850 LINE",
"1544 776 LINE",
"1544 97 LINE",
"1394 62 LINE",
"1394 0 LINE",
"1957 0 LINE",
"1957 62 LINE",
"1816 97 LINE",
"1816 968 LINE",
"1776 968 LINE",
"1394 933 LINE",
"1148 933 LINE",
"1148 993 LINE SMOOTH",
"1148 1155 OFFCURVE",
"1151 1206 OFFCURVE",
"1169 1250 CURVE SMOOTH",
"1197 1324 OFFCURVE",
"1272 1366 OFFCURVE",
"1385 1366 CURVE SMOOTH",
"1470 1366 OFFCURVE",
"1491 1348 OFFCURVE",
"1531 1243 CURVE SMOOTH",
"1563 1156 OFFCURVE",
"1619 1112 OFFCURVE",
"1695 1112 CURVE SMOOTH",
"1774 1112 OFFCURVE",
"1829 1167 OFFCURVE",
"1829 1244 CURVE SMOOTH",
"1829 1373 OFFCURVE",
"1665 1459 OFFCURVE",
"1422 1459 CURVE SMOOTH",
"1243 1459 OFFCURVE",
"1091 1410 OFFCURVE",
"994 1324 CURVE",
"929 1355 OFFCURVE",
"832 1373 OFFCURVE",
"718 1373 CURVE SMOOTH",
"489 1373 OFFCURVE",
"299 1271 OFFCURVE",
"234 1114 CURVE SMOOTH",
"216 1074 OFFCURVE",
"208 1030 OFFCURVE",
"204 933 CURVE",
"49 933 LINE",
"25 850 LINE",
"204 850 LINE",
"204 97 LINE",
"55 62 LINE",
"55 0 LINE"
);
},
{
closed = 1;
nodes = (
"477 1037 OFFCURVE",
"479 1114 OFFCURVE",
"498 1163 CURVE SMOOTH",
"528 1246 OFFCURVE",
"605 1280 OFFCURVE",
"685 1280 CURVE SMOOTH",
"806 1280 OFFCURVE",
"859 1206 OFFCURVE",
"878 1065 CURVE",
"876 1030 OFFCURVE",
"875 987 OFFCURVE",
"875 933 CURVE",
"477 933 LINE"
);
}
);
width = 1985;
},
{
anchors = (
{
name = caret_1;
position = "{607.63, 0}";
},
{
name = caret_2;
position = "{1187.59, 0}";
}
);
layerId = "E9E5A43B-81E4-4E67-9C96-907763DB0C14";
paths = (
{
closed = 1;
nodes = (
"563.491 0 LINE",
"563.491 36.855 LINE",
"378.156 64.919 LINE",
"378.156 872.543 LINE",
"784.827 872.543 LINE",
"784.827 64.919 LINE",
"650.434 36.855 LINE",
"650.434 0 LINE",
"1152.121 0 LINE",
"1152.121 36.855 LINE",
"965.919 64.919 LINE",
"965.919 872.543 LINE",
"1224.925 872.543 LINE",
"1357.584 814.15 LINE",
"1357.584 66.653 LINE",
"1221.457 38.59 LINE",
"1221.457 0 LINE",
"1671.74 0 LINE",
"1671.74 38.59 LINE",
"1538.543 66.653 LINE",
"1538.543 952.393 LINE",
"1519.353 952.393 LINE",
"1224.925 933 LINE",
"965.919 933 LINE",
"965.919 1025.081 LINE SMOOTH",
"965.919 1179.277 OFFCURVE",
"974.121 1238.081 OFFCURVE",
"996.457 1278.613 CURVE SMOOTH",
"1038.329 1355.214 OFFCURVE",
"1098.59 1392.879 OFFCURVE",
"1197.717 1392.879 CURVE SMOOTH",
"1273.179 1392.879 OFFCURVE",
"1296.78 1375.746 OFFCURVE",
"1322.04 1297.624 CURVE SMOOTH",
"1347.971 1221.896 OFFCURVE",
"1385.763 1187.434 OFFCURVE",
"1440.087 1187.434 CURVE SMOOTH",
"1500.879 1187.434 OFFCURVE",
"1542.006 1231.162 OFFCURVE",
"1542.006 1293.422 CURVE SMOOTH",
"1542.006 1393.809 OFFCURVE",
"1419.624 1460.734 OFFCURVE",
"1215.642 1460.734 CURVE SMOOTH",
"1073.058 1460.734 OFFCURVE",
"941.867 1406.532 OFFCURVE",
"863.075 1316.197 CURVE",
"811.948 1350.665 OFFCURVE",
"730.555 1373 OFFCURVE",
"633.029 1373 CURVE SMOOTH",
"436.977 1373 OFFCURVE",
"276.457 1283.139 OFFCURVE",
"223.595 1144.347 CURVE SMOOTH",
"205.595 1100.012 OFFCURVE",
"198.462 1050.809 OFFCURVE",
"196.197 933 CURVE",
"60.272 933 LINE",
"38.006 872.543 LINE",
"196.197 872.543 LINE",
"196.197 64.919 LINE",
"61.936 36.855 LINE",
"61.936 0 LINE"
);
},
{
closed = 1;
nodes = (
"378.156 1101.162 OFFCURVE",
"381.023 1141.746 OFFCURVE",
"407.827 1194.214 CURVE SMOOTH",
"447.364 1273.746 OFFCURVE",
"504.422 1308.613 OFFCURVE",
"585.289 1308.613 CURVE SMOOTH",
"697.618 1308.613 OFFCURVE",
"770.561 1244.15 OFFCURVE",
"789.561 1130.029 CURVE",
"786.694 1082.89 OFFCURVE",
"784.827 1019.081 OFFCURVE",
"784.827 933 CURVE",
"378.156 933 LINE SMOOTH"
);
}
);
width = 1710.14451;
}
);
leftKerningGroup = f;
rightKerningGroup = i;
},
{
glyphname = f_f_j;
layers = (
{
anchors = (
{
name = caret_1;
position = "{692, 0}";
},
{
name = caret_2;
position = "{1376, 0}";
}
);
layerId = "FA6D65B5-4623-4FAC-A199-3F662257AC29";
paths = (
{
closed = 1;
nodes = (
"1549 -458 OFFCURVE",
"1661 -396 OFFCURVE",
"1742 -257 CURVE SMOOTH",
"1799 -160 OFFCURVE",
"1816 -70 OFFCURVE",
"1816 121 CURVE SMOOTH",
"1816 968 LINE",
"1779 968 LINE",
"1394 933 LINE",
"1148 933 LINE",
"1148 993 LINE SMOOTH",
"1148 1155 OFFCURVE",
"1151 1207 OFFCURVE",
"1169 1250 CURVE SMOOTH",
"1197 1324 OFFCURVE",
"1274 1366 OFFCURVE",
"1385 1366 CURVE SMOOTH",
"1470 1366 OFFCURVE",
"1491 1348 OFFCURVE",
"1531 1243 CURVE SMOOTH",
"1563 1156 OFFCURVE",
"1619 1112 OFFCURVE",
"1695 1112 CURVE SMOOTH",
"1774 1112 OFFCURVE",
"1829 1167 OFFCURVE",
"1829 1244 CURVE SMOOTH",
"1829 1373 OFFCURVE",
"1665 1459 OFFCURVE",
"1422 1459 CURVE SMOOTH",
"1243 1459 OFFCURVE",
"1091 1410 OFFCURVE",
"994 1324 CURVE",
"929 1355 OFFCURVE",
"832 1373 OFFCURVE",
"718 1373 CURVE SMOOTH",
"489 1373 OFFCURVE",
"299 1271 OFFCURVE",
"234 1114 CURVE SMOOTH",
"216 1074 OFFCURVE",
"208 1030 OFFCURVE",
"204 933 CURVE",
"49 933 LINE",
"25 850 LINE",
"204 850 LINE",
"204 97 LINE",
"55 62 LINE",
"55 0 LINE",
"658 0 LINE",
"658 62 LINE",
"477 97 LINE",
"477 850 LINE",
"875 850 LINE",
"875 97 LINE",
"725 62 LINE",
"725 0 LINE",
"1329 0 LINE",
"1329 62 LINE",
"1148 97 LINE",
"1148 850 LINE",
"1394 850 LINE",
"1544 776 LINE",
"1544 -84 LINE SMOOTH",
"1544 -275 OFFCURVE",
"1501 -366 OFFCURVE",
"1417 -366 CURVE SMOOTH",
"1368 -366 OFFCURVE",
"1339 -338 OFFCURVE",
"1299 -253 CURVE SMOOTH",
"1267 -190 OFFCURVE",
"1237 -169 OFFCURVE",
"1183 -169 CURVE SMOOTH",
"1111 -169 OFFCURVE",
"1065 -211 OFFCURVE",
"1065 -278 CURVE SMOOTH",
"1065 -385 OFFCURVE",
"1190 -458 OFFCURVE",
"1376 -458 CURVE SMOOTH"
);
},
{
closed = 1;
nodes = (
"477 1037 OFFCURVE",
"479 1114 OFFCURVE",
"498 1163 CURVE SMOOTH",
"528 1246 OFFCURVE",
"605 1280 OFFCURVE",
"685 1280 CURVE SMOOTH",
"808 1280 OFFCURVE",
"875 1206 OFFCURVE",
"875 1067 CURVE SMOOTH",
"875 1022 OFFCURVE",
"875 978 OFFCURVE",
"875 933 CURVE",
"477 933 LINE"
);
}
);
width = 1955;
},
{
anchors = (
{
name = caret_1;
position = "{607.896, 0}";
},
{
name = caret_2;
position = "{1202.59, 0}";
}
);
layerId = "E9E5A43B-81E4-4E67-9C96-907763DB0C14";
paths = (
{
closed = 1;
nodes = (
"1278.48 -458 OFFCURVE",
"1397.416 -380.393 OFFCURVE",
"1478.416 -234.457 CURVE SMOOTH",
"1530.214 -140.058 OFFCURVE",
"1538.543 -71.734 OFFCURVE",
"1538.543 252.792 CURVE SMOOTH",
"1538.543 1010.486 LINE",
"1519.751 1010.486 LINE",
"1224.925 933 LINE",
"965.919 933 LINE",
"965.919 1025.081 LINE SMOOTH",
"965.919 1179.277 OFFCURVE",
"974.121 1238.214 OFFCURVE",
"996.457 1278.613 CURVE SMOOTH",
"1038.329 1355.214 OFFCURVE",
"1098.855 1392.879 OFFCURVE",
"1197.717 1392.879 CURVE SMOOTH",
"1273.179 1392.879 OFFCURVE",
"1296.78 1375.746 OFFCURVE",
"1322.04 1297.624 CURVE SMOOTH",
"1347.971 1221.896 OFFCURVE",
"1385.763 1187.434 OFFCURVE",
"1440.087 1187.434 CURVE SMOOTH",
"1500.879 1187.434 OFFCURVE",
"1542.006 1231.162 OFFCURVE",
"1542.006 1293.422 CURVE SMOOTH",
"1542.006 1393.809 OFFCURVE",
"1419.624 1460.734 OFFCURVE",
"1215.642 1460.734 CURVE SMOOTH",
"1073.058 1460.734 OFFCURVE",
"941.867 1406.532 OFFCURVE",
"863.075 1316.197 CURVE",
"811.948 1350.665 OFFCURVE",
"730.555 1373 OFFCURVE",
"633.029 1373 CURVE SMOOTH",
"436.977 1373 OFFCURVE",
"276.457 1283.139 OFFCURVE",
"223.595 1144.347 CURVE SMOOTH",
"205.595 1100.012 OFFCURVE",
"198.462 1050.809 OFFCURVE",
"196.197 933 CURVE",
"60.272 933 LINE",
"38.006 872.543 LINE",
"196.197 872.543 LINE",
"196.197 64.919 LINE",
"61.936 36.855 LINE",
"61.936 0 LINE",
"563.491 0 LINE",
"563.491 36.855 LINE",
"378.156 64.919 LINE",
"378.156 872.543 LINE",
"784.827 872.543 LINE",
"784.827 64.919 LINE",
"650.434 36.855 LINE",
"650.434 0 LINE",
"1152.121 0 LINE",
"1152.121 36.855 LINE",
"965.919 64.919 LINE",
"965.919 872.543 LINE",
"1224.925 872.543 LINE",
"1357.584 844.497 LINE",
"1357.584 -84 LINE SMOOTH",
"1357.584 -279.335 OFFCURVE",
"1310.249 -373.803 OFFCURVE",
"1214.11 -373.803 CURVE SMOOTH",
"1169.445 -373.803 OFFCURVE",
"1148.249 -353.607 OFFCURVE",
"1122.121 -284.214 CURVE SMOOTH",
"1100.526 -229.884 OFFCURVE",
"1072.26 -202.815 OFFCURVE",
"1022.595 -202.815 CURVE SMOOTH",
"962.734 -202.815 OFFCURVE",
"924.538 -243.081 OFFCURVE",
"924.538 -308.347 CURVE SMOOTH",
"924.538 -400.607 OFFCURVE",
"1005.318 -458 OFFCURVE",
"1133.225 -458 CURVE SMOOTH"
);
},
{
closed = 1;
nodes = (
"378.156 1101.162 OFFCURVE",
"381.023 1141.746 OFFCURVE",
"407.827 1194.214 CURVE SMOOTH",
"447.364 1273.746 OFFCURVE",
"504.422 1308.613 OFFCURVE",
"585.289 1308.613 CURVE SMOOTH",
"697.884 1308.613 OFFCURVE",
"772.688 1244.15 OFFCURVE",
"789.162 1130.295 CURVE",
"786.561 1081.827 OFFCURVE",
"784.827 1017.884 OFFCURVE",
"784.827 933 CURVE",
"378.156 933 LINE SMOOTH"
);
}
);
width = 1687.94798;
}
);
leftKerningGroup = f;
rightKerningGroup = j;
},
